<svg id="BahrainFlag" xmlns="http://www.w3.org/2000/svg" width="28" height="25.76" viewBox="0 0 28 25.76">
    <path id="Path_2742" data-name="Path 2742"
          d="M6.685,0C2.993,0,0,2.523,0,5.635v14.49c0,3.112,2.993,5.635,6.685,5.635H12.5V0Z" fill="#f5f5f5"/>
    <path id="Path_2743" data-name="Path 2743"
          d="M117.53,0H102.136q-.247,0-.49.019L107.34,1.61l-5.761,1.61,5.761,1.61-5.761,1.61,5.761,1.61-5.761,1.61,5.761,1.61-5.761,1.61,5.761,1.61-5.761,1.61,5.761,1.61-5.761,1.61,5.761,1.61-5.761,1.61,5.761,1.61-5.694,1.591q.242.018.49.019H117.53a5.819,5.819,0,0,0,5.986-5.635V5.635A5.819,5.819,0,0,0,117.53,0Z"
          transform="translate(-95.516)" fill="#ff4b55"/>
</svg>
