<svg id="Component_66_2" data-name="Component 66 – 2" xmlns="http://www.w3.org/2000/svg" width="48" height="48" viewBox="0 0 48 48">
  <rect id="Rectangle_10112" data-name="Rectangle 10112" width="48" height="48" fill="none"/>
  <g id="place" transform="translate(8 8)">
    <path id="Path_4330" data-name="Path 4330" d="M32,16a15.982,15.982,0,1,1-.708-4.722A15.985,15.985,0,0,1,32,16Z" fill="#55d485"/>
    <ellipse id="Ellipse_1110" data-name="Ellipse 1110" cx="4.132" cy="1.702" rx="4.132" ry="1.702" transform="translate(19.846 15.874)" fill="#10995b"/>
    <path id="Path_4331" data-name="Path 4331" d="M148.031,268.137a1.662,1.662,0,0,1-.434.858,2.6,2.6,0,0,1-.792.532,8.082,8.082,0,0,1-2.07.562c-.734.12-1.476.193-2.217.25s-1.494.1-2.241.142c-1.492.075-2.986.127-4.478.21a42.913,42.913,0,0,0-4.411.419,10.544,10.544,0,0,0-2.071.5,2.288,2.288,0,0,0-.861.488.251.251,0,0,0-.08.271,1.377,1.377,0,0,0,.187.394,4.669,4.669,0,0,0,.676.8q.106.1.215.2a.315.315,0,0,0,.113.068,3.618,3.618,0,0,0,.962.219c.356.046.714.072,1.073.092.634.036,1.27.047,1.9.066a33.188,33.188,0,0,1,4.271.317,8.86,8.86,0,0,1,3.855,1.432,5.338,5.338,0,0,1,1.4,1.483l.03.049c.019.031.018.017,0,.043a.45.45,0,0,1-.1.066l-.229.148q-.216.137-.435.267-.441.261-.9.494t-.953.446q-.232.1-.467.191c-.03.012-.1.05-.117.033s-.039-.087-.054-.115a1.635,1.635,0,0,0-.131-.208,3.6,3.6,0,0,0-1.626-1.068,12.2,12.2,0,0,0-2.062-.57c-.724-.143-1.453-.249-2.185-.342s-1.44-.175-2.158-.271a14.7,14.7,0,0,1-2.1-.395,3.6,3.6,0,0,1-1.561-.819c-.106-.1-.2-.218-.3-.33a7.95,7.95,0,0,1-.638-.838,3.49,3.49,0,0,1-.644-1.8,2.228,2.228,0,0,1,.861-1.779,4.745,4.745,0,0,1,1.885-.83,15.253,15.253,0,0,1,2.126-.331c1.468-.139,2.949-.162,4.422-.176,1.494-.014,2.989-.007,4.483-.032a34.936,34.936,0,0,0,4.425-.273,10.17,10.17,0,0,0,1.068-.205,3.475,3.475,0,0,0,.952-.362.849.849,0,0,0,.322-.3.727.727,0,0,0,.078-.423c-.043-.306-.342-.515-.59-.656a4.229,4.229,0,0,0-.943-.371,1.877,1.877,0,0,0-.4-.091.843.843,0,0,1,.033-.161q.037-.174.075-.348t.074-.341a1.227,1.227,0,0,1,.036-.158,1.721,1.721,0,0,0,.315.081,6.069,6.069,0,0,1,.91.3,2.6,2.6,0,0,1,1.35,1.109A1.608,1.608,0,0,1,148.031,268.137Z" transform="translate(-118.148 -248.246)" fill="#10995b"/>
    <path id="Path_4332" data-name="Path 4332" d="M41.424,11.278H10.84a16.006,16.006,0,0,1,30.584,0Z" transform="translate(-10.132)" fill="#bce6f5"/>
    <g id="Group_13009" data-name="Group 13009" transform="translate(0.408 8.3)">
      <path id="Path_4333" data-name="Path 4333" d="M21.212,139.105l-5.935,10.28a16.023,16.023,0,0,1-3.045-1.8l-4.894-8.477a7.987,7.987,0,0,1,1.172-9.573,7.9,7.9,0,0,1,5.765-2.442A8.01,8.01,0,0,1,21.212,139.105Z" transform="translate(-6.253 -127.09)" fill="#f75454"/>
      <path id="Path_4334" data-name="Path 4334" d="M73.538,190.02a4.171,4.171,0,1,1-3.188-4.055A4.174,4.174,0,0,1,73.538,190.02Z" transform="translate(-61.343 -182.011)" fill="#bce6f5"/>
      <path id="Path_4335" data-name="Path 4335" d="M101.75,191.7a4.174,4.174,0,0,1-3.188,4.056,4.174,4.174,0,0,1,0-8.11A4.174,4.174,0,0,1,101.75,191.7Z" transform="translate(-89.555 -183.695)" fill="#fff"/>
    </g>
    <g id="Group_13010" data-name="Group 13010" transform="translate(18.11 0)">
      <path id="Path_4336" data-name="Path 4336" d="M283.183,17.577l5.074-8.788A5.859,5.859,0,0,0,283.183,0h0a5.859,5.859,0,0,0-5.074,8.788Z" transform="translate(-277.315 -0.001)" fill="#f75454"/>
      <path id="Path_4337" data-name="Path 4337" d="M326.53,46.029a3.051,3.051,0,1,1-2.332-2.966A3.053,3.053,0,0,1,326.53,46.029Z" transform="translate(-317.611 -40.17)" fill="#bce6f5"/>
      <path id="Path_4338" data-name="Path 4338" d="M347.165,47.261a2.4,2.4,0,1,1-2.332-2.966A3.053,3.053,0,0,1,347.165,47.261Z" transform="translate(-338.245 -41.402)" fill="#fff"/>
    </g>
  </g>
</svg>
