<svg id="confused" xmlns="http://www.w3.org/2000/svg" width="109.469" height="131.229" viewBox="0 0 109.469 131.229">
    <path id="Path_2575" data-name="Path 2575"
          d="M110.589,375.4h4.65c8.354-10.713,39.568-4.358,29.4,31.508H81.188C71.021,371.039,102.234,364.684,110.589,375.4Z"
          transform="translate(-69.761 -275.676)" fill="#bcd151"/>
    <path id="Path_2576" data-name="Path 2576"
          d="M245.219,371.305c10.133,2.6,19.59,13.491,13.322,35.6h9.584C276.431,377.607,257.123,368,245.219,371.305Z"
          transform="translate(-193.248 -275.676)" fill="#8d9f25"/>
    <path id="Path_2577" data-name="Path 2577"
          d="M183,358.179h0a9.584,9.584,0,0,0,9.584-9.584V336.732H173.417v11.862A9.584,9.584,0,0,0,183,358.179Z"
          transform="translate(-139.849 -250.425)" fill="#f6bb93"/>
    <path id="Path_2578" data-name="Path 2578" d="M173.417,346.189a61.276,61.276,0,0,0,19.169,1.091V336.733H173.417Z"
          transform="translate(-139.849 -250.426)" fill="#e49775"/>
    <g id="Group_8919" data-name="Group 8919" transform="translate(2.115 50.47)">
        <path id="Path_2579" data-name="Path 2579"
              d="M58.8,213.112H69.51v-16.2H58.8a8.1,8.1,0,0,0-8.1,8.1h0A8.1,8.1,0,0,0,58.8,213.112Z"
              transform="translate(-50.701 -196.915)" fill="#f6bb93"/>
        <path id="Path_2580" data-name="Path 2580"
              d="M308.248,213.112h-10.71v-16.2h10.71a8.1,8.1,0,0,1,8.1,8.1h0A8.1,8.1,0,0,1,308.248,213.112Z"
              transform="translate(-234.272 -196.915)" fill="#f6bb93"/>
    </g>
    <path id="Path_2581" data-name="Path 2581"
          d="M56.779,63.459c-2-8.645-4.949-20.169-6.279-25.79-8.554-7.427-10.324-23.126-5.152-34.284a2.714,2.714,0,0,1,4.176-.971C52.924,5.177,59.63,7.8,72.166,3.2c24.413-8.954,44.971,3.1,46.151,9.274,1.32,0,7.731.908,7.731,7.213,0,5.362-8.813,33.923-12.613,43.774H56.779Z"
          transform="translate(-42.449 -0.001)" fill="#52668d"/>
    <path id="Path_2582" data-name="Path 2582"
          d="M248.062,12.472C247.134,7.621,234.239-.863,216.91.072c13.078.8,22.411,8.055,23.154,12.4,1.181,0,6.916.908,6.916,7.213,0,5.362-7.884,33.923-11.283,43.774h7.483c3.8-9.851,12.613-38.412,12.613-43.774C255.793,13.38,249.382,12.472,248.062,12.472Z"
          transform="translate(-172.195 -0.001)" fill="#243b5d"/>
    <path id="Path_2583" data-name="Path 2583"
          d="M92.978,154.059c0,21.329,60.4,21.329,60.4,0,0-12.221-1.634-32.914-5.2-40.958A11.757,11.757,0,0,0,144,108.333a7.725,7.725,0,0,0-3.965-1.191,10.561,10.561,0,0,0-4.489,1.191c-3.855,1.822-7.744,5.091-12.363,5.091s-8.508-3.27-12.363-5.091a10.56,10.56,0,0,0-4.489-1.191,7.723,7.723,0,0,0-3.965,1.191,11.771,11.771,0,0,0-4.2,4.777C94.618,121.109,92.978,141.606,92.978,154.059Z"
          transform="translate(-80.027 -79.681)" fill="#f6bb93"/>
    <path id="Path_2584" data-name="Path 2584"
          d="M229.988,113.1a11.758,11.758,0,0,0-4.189-4.769,7.725,7.725,0,0,0-3.965-1.191,9.2,9.2,0,0,0-3.271.671,8.046,8.046,0,0,1,.873.52A11.4,11.4,0,0,1,223.1,113.1c3.117,8.044,4.548,28.736,4.548,40.958,0,10.191-12.07,15.512-24.676,15.965,15.74.494,32.211-4.827,32.211-15.965C235.184,141.838,233.549,121.145,229.988,113.1Z"
          transform="translate(-161.83 -79.681)" fill="#e49775"/>
    <g id="Group_8920" data-name="Group 8920" transform="translate(26.747 52.317)">
        <path id="Path_2585" data-name="Path 2585"
              d="M261.348,211.161a1.98,1.98,0,0,1-1.98-1.98V206.1a1.98,1.98,0,1,1,3.96,0v3.081A1.98,1.98,0,0,1,261.348,211.161Z"
              transform="translate(-230.517 -204.119)" fill="#243b5d"/>
        <path id="Path_2586" data-name="Path 2586"
              d="M148.783,211.161a1.98,1.98,0,0,1-1.98-1.98V206.1a1.98,1.98,0,0,1,3.96,0v3.081A1.98,1.98,0,0,1,148.783,211.161Z"
              transform="translate(-146.803 -204.119)" fill="#243b5d"/>
    </g>
    <path id="Path_2587" data-name="Path 2587"
          d="M246.354,180.783a10.469,10.469,0,0,1-6.109-1.865,1.98,1.98,0,0,1,2.326-3.206,6.967,6.967,0,0,0,7.565,0,1.98,1.98,0,0,1,2.326,3.206A10.469,10.469,0,0,1,246.354,180.783Z"
          transform="translate(-188.941 -130.395)" fill="#243b5d"/>
    <path id="Path_2588" data-name="Path 2588"
          d="M140.018,180.784a1.973,1.973,0,0,1-1.162-.378,6.968,6.968,0,0,0-7.566,0,1.98,1.98,0,0,1-2.326-3.206,10.942,10.942,0,0,1,12.218,0,1.981,1.981,0,0,1-1.165,3.583Z"
          transform="translate(-106.182 -130.397)" fill="#243b5d"/>
    <path id="Path_2589" data-name="Path 2589"
          d="M344.041,11.214a18.719,18.719,0,0,0-5.292,37.029,13.778,13.778,0,0,1-3.37,4.891,1,1,0,0,0,.749,1.739,13.705,13.705,0,0,0,11.007-6.979,18.722,18.722,0,0,0-3.094-36.681Z"
          transform="translate(-251.428 -8.271)" fill="#7cccf2"/>
    <path id="Path_2590" data-name="Path 2590"
          d="M378.711,11.215a18.538,18.538,0,0,0-3.648-.007l.078.007C383.755,12.263,389.963,21.631,388.97,32c-.748,7.809-5.369,13.932-11.271,15.9a11.737,11.737,0,0,1-7.58,6.726l-.049.011a.975.975,0,0,0,.73.242A13.7,13.7,0,0,0,381.805,47.9a18.722,18.722,0,0,0-3.094-36.681Z"
          transform="translate(-286.098 -8.271)" fill="#4facdb"/>
    <path id="Path_2591" data-name="Path 2591"
          d="M112.119,477.781v-9.813a1.98,1.98,0,0,1,3.96,0v9.813Zm50.591,0v-9.813a1.98,1.98,0,0,0-3.96,0v9.813Z"
          transform="translate(-94.262 -346.552)" fill="#8d9f25"/>
    <path id="Path_2592" data-name="Path 2592"
          d="M300.351,468.468a1.979,1.979,0,0,0-1.175-1.808,50.281,50.281,0,0,1-1.98,11.621h3.155v-9.813Z"
          transform="translate(-231.903 -347.052)" fill="#828c1f"/>
    <g id="Group_8921" data-name="Group 8921" transform="translate(84.692 9.319)">
        <path id="Path_2593" data-name="Path 2593"
              d="M386.9,119.262a1.98,1.98,0,0,1-1.98-1.98v-.264a1.98,1.98,0,0,1,3.961,0v.264A1.98,1.98,0,0,1,386.9,119.262Z"
              transform="translate(-381.832 -94.872)" fill="#243b5d"/>
        <path id="Path_2594" data-name="Path 2594"
              d="M377.947,55.2a1.98,1.98,0,0,1-1.98-1.98V49.727a3.046,3.046,0,0,1,3.043-3.043h.738a3.182,3.182,0,0,0,3.176-3.389,3.183,3.183,0,0,0-6.187-.826,1.98,1.98,0,1,1-3.747-1.285,7.144,7.144,0,0,1,13.886,1.865,7.083,7.083,0,0,1-1.923,5.343,7.174,7.174,0,0,1-5.026,2.25v2.576A1.98,1.98,0,0,1,377.947,55.2Z"
              transform="translate(-372.882 -36.359)" fill="#243b5d"/>
    </g>
    <path id="Path_2595" data-name="Path 2595"
          d="M223.918,276.726a1.974,1.974,0,0,1-1.4-.58,5.587,5.587,0,0,0-7.893,0,1.98,1.98,0,0,1-2.8-2.8,9.553,9.553,0,0,1,13.494,0,1.98,1.98,0,0,1-1.4,3.381Z"
          transform="translate(-167.98 -201.21)" fill="#243b5d"/>
</svg>
