<svg id="device-gallery" xmlns="http://www.w3.org/2000/svg" width="48" height="48" viewBox="0 0 48 48">
  <g id="Rectangle_9746" data-name="Rectangle 9746" fill="#f8fcff" stroke="#f3f3f3" stroke-width="1">
    <rect width="48" height="48" rx="8" stroke="none"/>
    <rect x="0.5" y="0.5" width="47" height="47" rx="7.5" fill="none"/>
  </g>
  <g id="Group_13210" data-name="Group 13210" transform="translate(-24 -664)">
    <rect id="Rectangle_9762" data-name="Rectangle 9762" width="32" height="32" transform="translate(32 672)" fill="none"/>
    <g id="gallery" transform="translate(34.814 674.814)">
      <path id="Path_4541" data-name="Path 4541" d="M20.235,2H6.136A4.14,4.14,0,0,0,2,6.136v14.1a4.14,4.14,0,0,0,4.136,4.136h14.1c.032,0,.062-.009.093-.01l.048.01a.844.844,0,0,0,.153-.03,4.129,4.129,0,0,0,3.842-4.107V6.136A4.14,4.14,0,0,0,20.235,2ZM6.136,3.6h14.1a2.541,2.541,0,0,1,2.538,2.538V17.01l-3.59-3.59a.8.8,0,0,0-1.13,0L14.7,16.77,7.758,9.824a.8.8,0,0,0-1.13,0L3.6,12.855V6.136A2.541,2.541,0,0,1,6.136,3.6ZM3.6,20.235V15.114l3.6-3.6L18.448,22.773H6.136A2.541,2.541,0,0,1,3.6,20.235Zm17.066,2.5L15.834,17.9l2.785-2.785,4.155,4.155v.966a2.538,2.538,0,0,1-2.109,2.5Z" fill="#57c1e3"/>
      <path id="Path_4542" data-name="Path 4542" d="M21.8,11.593A2.8,2.8,0,1,0,19,8.8,2.8,2.8,0,0,0,21.8,11.593Zm0-3.995a1.2,1.2,0,1,1-1.2,1.2A1.2,1.2,0,0,1,21.8,7.6Z" transform="translate(-3.417 -0.804)" fill="#57c1e3"/>
    </g>
  </g>
</svg>
