<svg id="device-camera" xmlns="http://www.w3.org/2000/svg" width="48" height="48" viewBox="0 0 48 48">
  <g id="Rectangle_9746" data-name="Rectangle 9746" fill="#f8fcff" stroke="#f3f3f3" stroke-width="1">
    <rect width="48" height="48" rx="8" stroke="none"/>
    <rect x="0.5" y="0.5" width="47" height="47" rx="7.5" fill="none"/>
  </g>
  <g id="Group_13209" data-name="Group 13209" transform="translate(-24 -600)">
    <rect id="Rectangle_9691" data-name="Rectangle 9691" width="32" height="32" transform="translate(32 608)" fill="none"/>
    <g id="camera" transform="translate(32 608)">
      <path id="Path_4539" data-name="Path 4539" d="M21.131,6.056H17.85L17.468,4.91A2.785,2.785,0,0,0,14.821,3H10.1A2.786,2.786,0,0,0,7.454,4.91L7.071,6.056H3.79A2.793,2.793,0,0,0,1,8.847V20.078a2.793,2.793,0,0,0,2.79,2.787H21.134a2.793,2.793,0,0,0,2.787-2.79V8.843a2.793,2.793,0,0,0-2.79-2.787Zm1.262,14.019a1.264,1.264,0,0,1-1.262,1.262H3.79a1.264,1.264,0,0,1-1.262-1.262V8.843A1.264,1.264,0,0,1,3.79,7.584H7.622a.764.764,0,0,0,.724-.523L8.9,5.391a1.261,1.261,0,0,1,1.2-.863h4.72a1.26,1.26,0,0,1,1.2.863l.557,1.67a.764.764,0,0,0,.724.523h3.832a1.264,1.264,0,0,1,1.262,1.262Z" transform="translate(3.539 3.067)" fill="#57c1e3"/>
      <path id="Path_4540" data-name="Path 4540" d="M14.23,10a5.73,5.73,0,1,0,5.73,5.73A5.73,5.73,0,0,0,14.23,10Zm0,9.933a4.2,4.2,0,1,1,4.2-4.2,4.2,4.2,0,0,1-4.2,4.2Z" transform="translate(1.77 1.416)" fill="#57c1e3"/>
      <circle id="Ellipse_1115" data-name="Ellipse 1115" cx="1" cy="1" r="1" transform="translate(23 12)" fill="#57c1e3"/>
    </g>
  </g>
</svg>
