<svg id="explore-button" xmlns="http://www.w3.org/2000/svg" width="40" height="40" viewBox="0 0 40 40">
    <path id="Path_3319" data-name="Path 3319" d="M20,0A20,20,0,1,1,0,20,20,20,0,0,1,20,0Z" fill="#3190af"/>
    <g id="Group_10414" data-name="Group 10414" transform="translate(-974 -438.054)">
        <g id="Group_10413" data-name="Group 10413" transform="translate(984 448.054)">
            <g id="Group_10415" data-name="Group 10415" transform="translate(0 0)">
                <rect id="Rectangle_8810" data-name="Rectangle 8810" width="20" height="20" fill="none"/>
                <g id="Group_9770" data-name="Group 9770" transform="translate(1.672 1.612)">
                    <path id="Path_2483" data-name="Path 2483"
                          d="M302.464,300.19l-3.947-3.947a7.6,7.6,0,0,1-2.281,2.281l3.947,3.947a1.613,1.613,0,1,0,2.281-2.281Z"
                          transform="translate(-285.733 -285.739)" fill="#fff"/>
                    <path id="Path_2484" data-name="Path 2484"
                          d="M12.9,6.451A6.451,6.451,0,1,0,6.452,12.9,6.452,6.452,0,0,0,12.9,6.451ZM6.452,11.29a4.838,4.838,0,1,1,4.839-4.838A4.844,4.844,0,0,1,6.452,11.29Z"
                          transform="translate(-0.001)" fill="#fff"/>
                    <path id="Path_2485" data-name="Path 2485"
                          d="M75.817,79.579h1.075a2.691,2.691,0,0,1,2.688-2.688V75.816A3.768,3.768,0,0,0,75.817,79.579Z"
                          transform="translate(-73.129 -73.128)" fill="#fff"/>
                </g>
            </g>
        </g>
    </g>
</svg>
