<svg xmlns="http://www.w3.org/2000/svg" viewBox="0 0 420.24 184.21"><defs><style>.cls-1{fill:#fff;}</style></defs><g id="Layer_2" data-name="Layer 2"><g id="Layer_1-2" data-name="Layer 1"><path class="cls-1" d="M14.73,146.16v12.71H30.5V146.16H45.23v37.53H30.5V169.48H14.73v14.21H0V146.16Z"/><path class="cls-1" d="M99.81,155.65V174.2c0,6.28-7.48,10-21.68,10s-21.68-3.73-21.68-10V155.65c0-6.28,7.47-10,21.68-10S99.81,149.37,99.81,155.65ZM85.9,173.37l.08-4.78-.08-12c0-1.05-3-1.49-7.4-1.49s-7.33.44-7.33,1.49v16.82c0,1,2.92,1.42,7.33,1.42S85.9,174.34,85.9,173.37Z"/><path class="cls-1" d="M125.75,146.16v26H150v11.51H111V146.16Z"/><path class="cls-1" d="M175.92,146.16v26h24.22v11.51H161.19V146.16Z"/><path class="cls-1" d="M199.91,146.16h17.5l10.47,13.23v-.52h.3v.52l10.46-13.23h16.15l-20.11,22.35v15.18H220V168.51Z"/><path class="cls-1" d="M309.37,155.65V174.2c0,6.28-7.48,10-21.68,10S266,180.48,266,174.2V155.65c0-6.28,7.47-10,21.68-10S309.37,149.37,309.37,155.65Zm-13.91,17.72.08-4.78-.08-12c0-1.05-3-1.49-7.4-1.49s-7.33.44-7.33,1.49v16.82c0,1,2.92,1.42,7.33,1.42S295.46,174.34,295.46,173.37Z"/><path class="cls-1" d="M320.58,174V146.16h14.73V171c0,1.35,2.84,1.87,7.55,1.87s7.48-.52,7.48-1.87V146.16h14.21V174c0,6.51-7.48,10.24-22,10.24S320.58,180.48,320.58,174Z"/><path class="cls-1" d="M398.26,146.16c14.73,0,22,3.51,22,10v17.49c0,6.51-7.25,10-22,10h-22.5V146.16ZM405.51,173V156.85c0-1.2-2.84-1.65-7.55-1.65h-7.47v19.44H398C402.67,174.64,405.51,174.2,405.51,173Z"/><polygon class="cls-1" points="210.13 0 210.13 0 208.64 40.49 211.6 40.49 210.13 0"/><polygon class="cls-1" points="249.88 15.29 249.88 15.29 238.95 44.69 241.77 45.59 249.88 15.29"/><polygon class="cls-1" points="263.12 35.25 263.12 35.25 252.69 50.42 255.26 51.89 263.12 35.25"/><polygon class="cls-1" points="283.97 39.31 283.97 39.31 265.95 58.78 268.24 60.67 283.97 39.31"/><polygon class="cls-1" points="292.87 59.46 292.87 59.46 277.91 70.18 279.82 72.44 292.87 59.46"/><polygon class="cls-1" points="310.54 73.33 310.54 73.33 286.1 83.9 287.42 86.55 310.54 73.33"/><polygon class="cls-1" points="309.37 97.13 309.37 97.13 291.07 99.07 291.62 101.98 309.37 97.13"/><polygon class="cls-1" points="317.5 117.64 317.5 117.64 291.78 114.61 291.61 117.57 317.5 117.64"/><polygon class="cls-1" points="102.61 117.64 102.61 117.64 128.33 114.61 128.5 117.57 102.61 117.64"/><polygon class="cls-1" points="227.76 23.49 227.76 23.49 223.83 41.47 226.76 41.87 227.76 23.49"/><polygon class="cls-1" points="170.39 15.29 170.39 15.29 181.33 44.69 178.5 45.59 170.39 15.29"/><polygon class="cls-1" points="157.16 35.25 157.16 35.25 167.58 50.42 165.01 51.89 157.16 35.25"/><polygon class="cls-1" points="136.31 39.31 136.31 39.31 154.32 58.78 152.03 60.67 136.31 39.31"/><polygon class="cls-1" points="127.41 59.46 127.41 59.46 142.37 70.18 140.45 72.44 127.41 59.46"/><polygon class="cls-1" points="109.73 73.33 109.73 73.33 134.18 83.9 132.85 86.55 109.73 73.33"/><polygon class="cls-1" points="110.9 97.13 110.9 97.13 129.21 99.07 128.66 101.98 110.9 97.13"/><polygon class="cls-1" points="192.52 23.49 192.52 23.49 196.45 41.47 193.51 41.87 192.52 23.49"/><path class="cls-1" d="M185.77,128.18s5.24-.23,14.8.2c16.39.74-11.55,2.78,11.41,2.25,2.56-.06,12.85.33,20,0s7.13.62-3.32,1.12-23.33,0-29.39-.29-8.27-1.07-2.94-1.45,7.35-1-4-.92-24.26-.9-18-1S185.77,128.18,185.77,128.18Z"/><path class="cls-1" d="M223.93,129.12s8.93,0,19.48.22,22.73.18,25.17.12,7.57.44-2.71.35-18.94.43-25.43,0-28.95-.36-27.6-.39Z"/><path class="cls-1" d="M187,132.73s6.08,0,13.25.52a170.58,170.58,0,0,0,17.12.28c1.65-.14,5.15,1.05-1.84.84s-12.88,1-17.3,0-19.69-.86-18.77-.93S187,132.73,187,132.73Z"/><path class="cls-1" d="M186.39,129.56s-3.68,0-8,.4a82.61,82.61,0,0,1-10.37.22c-1-.11-3.12.81,1.12.65s7.8.8,10.48,0,11.92-.67,11.37-.73S186.39,129.56,186.39,129.56Z"/><path class="cls-1" d="M166,128.4s-3.84,0-8.37.4a86.81,86.81,0,0,1-10.8.21c-1.05-.1-3.26.82,1.16.65s8.13.8,10.92,0,12.43-.67,11.85-.72S166,128.4,166,128.4Z"/><path class="cls-1" d="M260.07,132s-6.21,0-13.55.39-15.8.32-17.5.22-5.27.79,1.88.63,13.18.79,17.69,0,20.14-.65,19.2-.71S260.07,132,260.07,132Z"/><path class="cls-1" d="M236,103.89c-.47,1-2,4.17-3.06,6.34l.7.17,3.08-6.45Z"/><polygon class="cls-1" points="242.87 97.84 242.93 97.05 242.91 97.04 242.61 97.01 242.56 97.83 241.69 97.74 241.67 98.04 241 98 240.95 98.68 243.09 98.84 243.15 98.18 242.66 98.14 242.69 97.82 242.87 97.84"/><path class="cls-1" d="M237.43,104c-.56,1.16-2.14,4.46-3.16,6.54q2.56.66,5.06,1.4l-1-7.86Z"/><path class="cls-1" d="M239,104.16c.18,1.45.67,5.41,1,8l.7.22-1.08-8.17Z"/><polygon class="cls-1" points="221.48 78.95 223.29 79.05 223.76 77.27 221.8 76.31 221.48 78.95"/><path class="cls-1" d="M228.62,74.63c.54-1.76,0-3-1.11-3.18S226,73.37,226,73.37c-.33.92-.41,2.33,0,2.52A2,2,0,0,0,228.62,74.63Z"/><path class="cls-1" d="M210.16,40.49c-45.5,0-82.39,30.66-82.39,68.48,0,32.92,28,7.24,65.21,0,.09-.12.19-.25.29-.41a6.93,6.93,0,0,0,.35-2.94c0-.37,0-.63-.05-1.15l7.46-1c.06.45.14,1,.24,1.46a4.1,4.1,0,0,0,1.6,2.63h0c.68-.06,1.37-.11,2-.15l1.89-2.49c-.8-.72-1.54-1.41-1.92-1.77l-.9-.33a1.1,1.1,0,0,1-.43-.38l-.11-.63.34,0c-.1-.7-.24-2.61-.24-2.61l.13,0-.29-2.89a.33.33,0,0,1-.2-.27.3.3,0,0,1,.29-.32.31.31,0,0,1,.33.29.33.33,0,0,1-.1.23,16.22,16.22,0,0,0,2.9-.09c1.11-.13,1.89-.28,2.32-.37a.21.21,0,0,1,0-.19.24.24,0,0,1,.3-.18.25.25,0,0,1,.19.3.22.22,0,0,1,0,.08c0,.23.18.82.24,1.15s.17,1,.22,1.28l.13,0,.05.35,1.61.17,2.41.39.11.32-.14.12-.68-.07-.06,2.06.7.17,0,.62-.54.59-.42-.13-2,3.54,1.08,1a86,86,0,0,1,9.15.72l1.87-18.16-2.59.86a.63.63,0,0,1-.38.35L216,92.43a.63.63,0,0,1-.4-1.2l4.13-1.37a.63.63,0,0,1,.47,0l3-1,.91-8.82L220,79.72l.36-4.22a3.22,3.22,0,0,1-.8-2.3A5.89,5.89,0,0,1,220,71a7.51,7.51,0,0,1,1.56-2.1,6.09,6.09,0,0,1,1.57-.62l2.42.64.19-.64,4-3,4-1.48,2.88,1.18-.28,2.16-2.9,2.77.11.41,3.83,1,1.55,3-1,4L235.12,80a38.48,38.48,0,0,0-4-.78c0,.14-.12.62-.12.62l1.89,2.56-.25,2.18-2.75.38-3.16-1.45s-1.56-2.2-1.59-2.17-.21,3-.48,7.11l28.76-9.54-.37-.64a1.41,1.41,0,0,1,.51-1.92l.13-.07a1.41,1.41,0,0,1,1.92.51l2.61,4.52a1.4,1.4,0,0,1-.52,1.92l-.12.08a1.41,1.41,0,0,1-1.92-.52l-1.8-3.1-29.27,9.71c-.49,7.31-1.14,17.22-1.26,19q4.55.7,8.91,1.76l3.09-6.44-.35,0,.08-.87.76.06.06-.74,1.15.1v-.07a.87.87,0,0,1-.22-.32l-2.69-.22v.13l-1.86-.15,0-.56,1.85.14v.13l2.59.21s0-.07,0-.11a1.06,1.06,0,0,1,.45-.86l0-.21-.29,0a.81.81,0,0,1-.6.29.78.78,0,0,1-.17-1.55L234,98.81l0-.69-.54,0,0,.41-.41,0,.09-1.25.42,0,0,.4.56,0,.11-2-1.58-.17-.6.15.17-1.27.55.26,1.46.12,0-.36-.83-.19v-.33l.86-.2v-.21l-.19,0a2.82,2.82,0,1,1,2.82-2.82,2,2,0,0,1,0,.35l.26,0a2.81,2.81,0,1,1,2.8,3l-.2,0-.05.48,1.55.12-.12.45.74.12,0,.41.67-.08-.1.39.43,0v-.45h.43l-.07.29,3.54-.85s-.23,3.5-.27,3.57-.3-.05-.58-.15l-1.1-.08-.05.66,2.8.22,0,.32L240.93,99l0,.38-1.55-.13,0,.48-.28,0,0,.18.34,0,0,.53-.57,0,0,.35a1.06,1.06,0,0,1-.12,1.33l0,.21,1.39.12-.06.74.72.06-.08.88-.25,0c.19,1.42.77,5.77,1.11,8.53,30,9.32,51.14,25,51.14-3.62C292.54,71.15,255.65,40.49,210.16,40.49ZM190,82.77l4.1-1.26c.46.95.94,1.95,1.4,3L191,85.89C190.66,84.82,190.34,83.76,190,82.77Zm1.07,3.58,4.62-1.42c.49,1.08,1,2.18,1.37,3.27L192,89.76C191.77,88.68,191.44,87.52,191.11,86.35Zm1.35,5.12c-.09-.39-.19-.81-.3-1.25l5.11-1.57a38,38,0,0,1,1.29,3.92l-5.68,1.51A23.87,23.87,0,0,0,192.46,91.47Zm.78,7.16c-.08-1.42-.18-2.81-.31-4.06L198.68,93c.32,1.29.68,2.82,1,4.42Zm.3,5.35c0-1.52-.18-3.2-.27-4.86l6.56-1.19c.38,1.68.75,3.4,1.08,5Zm27.1-22.1s-4-2.46-14.69-3.25a83.91,83.91,0,0,0-13.29-.06c.4.77.83,1.62,1.27,2.5l-4,1.24c-.32-1-.62-2-.86-2.7a25.57,25.57,0,0,0-6.47,9.57,65.38,65.38,0,0,0-3.3,13.93s-.78,2.1-2.63-3.4-2.43-12.54-.12-15.22,7.43-6.16,7.43-6.16-7.31.61-11.17,2.39-11.59,5-11.59,5,2.26-9.61,8.39-10.69,14.34-.23,14.34-.23a57,57,0,0,0-9.76-4.27,81.27,81.27,0,0,0-14.48-3.12s8.36-5.65,16.38-3.14a21,21,0,0,1,11.55,9.08s-3.19-7.87,1.71-13.1,15.35-6.42,15.35-6.42-6.63,3.54-9.21,9.28a101.12,101.12,0,0,0-3.88,9.91s3.26-8.21,9.19-9.46,15.4,2.6,15.4,2.6-8.27.62-14.35,3.15a46.94,46.94,0,0,0-8.65,4.41s10.71-3.37,17.25-.29A28.22,28.22,0,0,1,220.64,81.88Z"/><polygon class="cls-1" points="243.29 97.22 243.24 97.87 244.97 98 243.29 97.22"/><path class="cls-1" d="M224.37,77.52l-.3,1.64,2.2.14,2.47.12,1.71-.46,1.08-2.65,1.11-3.44.38-2.73-.18-.34-6.31-1.19-.36.5,1.05.28a4.3,4.3,0,0,1,2.41,0c1.43.39,2.88,1.78,2.28,4.6s-1.74,3.93-2.26,4.34a3.35,3.35,0,0,1-2.87.58A5,5,0,0,1,224.37,77.52Z"/><rect class="cls-1" x="243.63" y="98.02" width="0.67" height="1.1" transform="translate(126.81 334.18) rotate(-85.56)"/><polygon class="cls-1" points="209.69 105.08 210.46 105.79 211.1 104.7 209.69 105.08"/><polygon class="cls-1" points="207.69 104.86 209.66 106.68 209.82 106.49 207.85 104.66 207.69 104.86"/><polygon class="cls-1" points="212.96 99.36 210.03 98.92 210.29 100.77 212.88 101.41 212.96 99.36"/><path class="cls-1" d="M206,107l.72.37c.87,0,1.75-.06,2.63-.07l-2.09-1.89Z"/><path class="cls-1" d="M208.43,103.93l.79.72,2.19-.48.86-1.47c-.34.1-.75.2-1.26.32a18.21,18.21,0,0,1-2.14.35Z"/><path class="cls-1" d="M207.37,104.21l-.24-.22-.6-.22.69.64Z"/><path class="cls-1" d="M209.37,98.37c-.61.09-1.69.27-2.36.35l-2.79.38,0,.2,3.74.78,0,.37-.44,0-.34,0,0,1.22.21,0a8.21,8.21,0,0,0,1.88-.55v-.37l.37,0C209.6,100.07,209.42,98.73,209.37,98.37Z"/><path class="cls-1" d="M206.85,101.79l-.08-1.42-2.46-.53.25,2A6.75,6.75,0,0,0,206.85,101.79Z"/></g></g></svg>