<svg id="interests" xmlns="http://www.w3.org/2000/svg" width="48" height="48" viewBox="0 0 48 48">
  <g id="Rectangle_10116" data-name="Rectangle 10116" fill="#f8fcff" stroke="#f3f3f3" stroke-width="1">
    <rect width="48" height="48" rx="8" stroke="none"/>
    <rect x="0.5" y="0.5" width="47" height="47" rx="7.5" fill="none"/>
  </g>
  <rect id="Rectangle_10117" data-name="Rectangle 10117" width="32" height="32" transform="translate(8 8)" fill="none"/>
  <g id="needs" transform="translate(11 11)">
    <path id="Path_4521" data-name="Path 4521" d="M5.44,10.88A5.44,5.44,0,0,0,9.859,2.266a.393.393,0,1,0-.639.46A4.651,4.651,0,1,1,8.012,1.562.393.393,0,0,0,8.448.907,5.44,5.44,0,1,0,5.44,10.88Z" transform="translate(0 0)" fill="#57c1e3" stroke="#57c1e3" stroke-width="0.5"/>
    <path id="Path_4522" data-name="Path 4522" d="M5.44,304.613a5.44,5.44,0,1,0,5.44,5.44,5.446,5.446,0,0,0-5.44-5.44Zm0,10.093a4.653,4.653,0,1,1,4.653-4.653,4.658,4.658,0,0,1-4.653,4.653Z" transform="translate(0 -288.633)" fill="#57c1e3" stroke="#57c1e3" stroke-width="0.5"/>
    <path id="Path_4523" data-name="Path 4523" d="M310.053,304.613a5.44,5.44,0,1,0,5.44,5.44A5.446,5.446,0,0,0,310.053,304.613Zm0,10.093a4.653,4.653,0,1,1,4.653-4.653A4.658,4.658,0,0,1,310.053,314.706Z" transform="translate(-288.633 -288.633)" fill="#57c1e3" stroke="#57c1e3" stroke-width="0.5"/>
    <path id="Path_4524" data-name="Path 4524" d="M226.107,155.616a1.655,1.655,0,1,0-1.655-1.655A1.657,1.657,0,0,0,226.107,155.616Zm0-2.523a.868.868,0,1,1-.868.868A.869.869,0,0,1,226.107,153.093Z" transform="translate(-212.677 -144.316)" fill="#57c1e3" stroke="#57c1e3" stroke-width="0.5"/>
    <path id="Path_4525" data-name="Path 4525" d="M184.371,226.528v2.1a.393.393,0,1,0,.787,0v-2.1a1.29,1.29,0,0,1,1.289-1.289h3.364a1.29,1.29,0,0,1,1.289,1.289v2.1a.393.393,0,1,0,.787,0v-2.1a2.078,2.078,0,0,0-2.076-2.076h-3.364A2.078,2.078,0,0,0,184.371,226.528Z" transform="translate(-174.699 -212.677)" fill="#57c1e3" stroke="#57c1e3" stroke-width="0.5"/>
    <path id="Path_4526" data-name="Path 4526" d="M216.829,264.532a.393.393,0,0,0-.393.393v2.523a.393.393,0,0,0,.787,0v-2.523A.393.393,0,0,0,216.829,264.532Z" transform="translate(-205.082 -250.654)" fill="#57c1e3" stroke="#57c1e3" stroke-width="0.5"/>
    <path id="Path_4527" data-name="Path 4527" d="M280.957,264.532a.393.393,0,0,0-.393.393v2.523a.393.393,0,1,0,.787,0v-2.523A.393.393,0,0,0,280.957,264.532Z" transform="translate(-265.845 -250.654)" fill="#57c1e3" stroke="#57c1e3" stroke-width="0.5"/>
    <path id="Path_4528" data-name="Path 4528" d="M58.855,48.183a.393.393,0,0,0-.492,0l-2.1,1.682a.393.393,0,0,0-.148.307v2.944a.393.393,0,0,0,.393.393h4.205a.393.393,0,0,0,.393-.393V50.172a.393.393,0,0,0-.148-.307Zm1.463,4.54H56.9V50.361l1.709-1.367,1.709,1.367v2.361Z" transform="translate(-53.169 -45.574)" fill="#57c1e3" stroke="#57c1e3" stroke-width="0.5"/>
    <path id="Path_4529" data-name="Path 4529" d="M96.193,96.587v.421a.393.393,0,1,0,.787,0v-.421a.393.393,0,1,0-.787,0Z" transform="translate(-91.147 -91.148)" fill="#57c1e3" stroke="#57c1e3" stroke-width="0.5"/>
    <path id="Path_4530" data-name="Path 4530" d="M310.053,10.88a5.44,5.44,0,1,0-5.44-5.44A5.446,5.446,0,0,0,310.053,10.88Zm0-10.093A4.653,4.653,0,1,1,305.4,5.44,4.658,4.658,0,0,1,310.053.787Z" transform="translate(-288.633)" fill="#57c1e3" stroke="#57c1e3" stroke-width="0.5"/>
    <path id="Path_4531" data-name="Path 4531" d="M377.918,45.7a2,2,0,0,0,1.021.372v.286a.393.393,0,1,0,.787,0v-.323a1.682,1.682,0,0,0,1.246-1.346,1.462,1.462,0,0,0-1.005-1.673l-.24-.087V41.565a1.732,1.732,0,0,1,.243.1.4.4,0,0,0,.374-.717,2.052,2.052,0,0,0-.618-.22v-.255a.393.393,0,1,0-.787,0v.283c-.032.008-.065.017-.1.027a1.393,1.393,0,0,0-.953,1.09,1.232,1.232,0,0,0,.406,1.213,3.111,3.111,0,0,0,.645.375v1.823a1.286,1.286,0,0,1-.6-.247.394.394,0,0,0-.569.156A.4.4,0,0,0,377.918,45.7Zm2.278-1.141a.893.893,0,0,1-.47.644V43.771A.689.689,0,0,1,380.2,44.563Zm-1.416-2.1a.462.462,0,0,1-.118-.448.641.641,0,0,1,.277-.424v.98A1.6,1.6,0,0,1,378.78,42.468Z" transform="translate(-357.913 -37.978)" fill="#57c1e3" stroke="#57c1e3" stroke-width="0.5"/>
    <path id="Path_4532" data-name="Path 4532" d="M49.005,360.726a1.92,1.92,0,0,0-1.156.39,1.929,1.929,0,0,0-3.092,1.545,3.452,3.452,0,0,0,1.487,2.419,10.173,10.173,0,0,0,1.41,1.007.394.394,0,0,0,.39,0,10.161,10.161,0,0,0,1.41-1.007,3.453,3.453,0,0,0,1.487-2.419A1.937,1.937,0,0,0,49.005,360.726Zm-1.155,4.56a9.63,9.63,0,0,1-1.1-.81,2.806,2.806,0,0,1-1.2-1.814,1.15,1.15,0,0,1,1.149-1.148,1.131,1.131,0,0,1,.86.4.393.393,0,0,0,.592,0,1.131,1.131,0,0,1,.86-.4,1.15,1.15,0,0,1,1.149,1.148C50.154,363.646,48.639,364.794,47.85,365.286Z" transform="translate(-42.409 -341.802)" fill="#57c1e3" stroke="#57c1e3" stroke-width="0.5"/>
    <path id="Path_4533" data-name="Path 4533" d="M357.309,360.726a.393.393,0,0,0,0,.787.448.448,0,0,1,.448.448v.421a.027.027,0,0,1-.027.027.393.393,0,0,0-.393.393v2.523a.027.027,0,0,1-.027.027h-3.364a.027.027,0,0,1-.027-.027V362.8a.393.393,0,0,0-.393-.393.027.027,0,0,1-.027-.027v-.421a.448.448,0,0,1,.448-.448h1.682a.393.393,0,1,0,0-.787h-1.682a1.236,1.236,0,0,0-1.235,1.234v.421a.815.815,0,0,0,.421.712v2.231a.815.815,0,0,0,.814.814h3.364a.815.815,0,0,0,.814-.814v-2.231a.815.815,0,0,0,.421-.712v-.421A1.236,1.236,0,0,0,357.309,360.726Z" transform="translate(-334.206 -341.802)" fill="#57c1e3" stroke="#57c1e3" stroke-width="0.5"/>
  </g>
</svg>
