<svg id="myQloud" xmlns="http://www.w3.org/2000/svg" width="388.31" height="150.4" viewBox="0 0 88 22.177">
  <g id="Layer_1" data-name="Layer 1">
    <path id="Path_4508" data-name="Path 4508" d="M167.98,63.865l-1.666-1.021s-.034-.02-.082-.056L161.14,59.65v4.4a2.309,2.309,0,0,0,.366,1.235,3.136,3.136,0,0,0,.681.658l7.276,4.468a2.05,2.05,0,0,0,1.109.32,2.195,2.195,0,0,0,1.094-.306l.471-.291a.885.885,0,0,1,.277-.1.8.8,0,0,1,.318,0l7.282,1.244Z" transform="translate(-133.722 -49.501)" fill="#2d6278"/>
    <path id="Path_4509" data-name="Path 4509" d="M170.987,5.525l1.531.944,4.574-2.818L171.671.33a2.28,2.28,0,0,0-1.13-.33,2.236,2.236,0,0,0-1.108.318L162.1,4.8a2.29,2.29,0,0,0-.723.767,2.146,2.146,0,0,0-.281,1.106V9.493l4.715,2.9V8.678a.929.929,0,0,1,.107-.427.91.91,0,0,1,.34-.362l3.588-2.212.223-.138a.823.823,0,0,1,.459-.131.788.788,0,0,1,.456.117Z" transform="translate(-133.687)" fill="#2d6278"/>
    <path id="Path_4510" data-name="Path 4510" d="M227.595,24.191l-1.31-.8-4.579,2.826,1.751,1.079a.888.888,0,0,1,.325.327,1.04,1.04,0,0,1,.131.466v3.883a.9.9,0,0,1-.112.441,1.021,1.021,0,0,1-.328.34l-3.752,2.29,4.584,2.824,3.291-2.016a2.3,2.3,0,0,0,.744-.786,2.522,2.522,0,0,0,.289-1.074V26.065a2.416,2.416,0,0,0-.279-1.084A2.275,2.275,0,0,0,227.595,24.191Z" transform="translate(-182.335 -19.41)" fill="#45a0bc"/>
    <path id="Path_4511" data-name="Path 4511" d="M287.047,44.1H283.92V30.15h3.127Z" transform="translate(-235.611 -25.02)" fill="#45a0bc"/>
    <path id="Path_4512" data-name="Path 4512" d="M323.438,56.594c0,3.052-2.382,5.249-5.661,5.249s-5.637-2.2-5.637-5.333,2.334-5.31,5.637-5.31C321.148,51.2,323.438,53.378,323.438,56.594Zm-8.149-.083c0,1.9.9,2.969,2.51,2.969,1.564,0,2.489-1.067,2.489-2.906,0-1.945-.881-3.012-2.511-3.012C316.2,53.562,315.289,54.629,315.289,56.51Z" transform="translate(-259.029 -42.488)" fill="#45a0bc"/>
    <path id="Path_4513" data-name="Path 4513" d="M397.96,62.89h-2.973V61.781a3.086,3.086,0,0,1-2.819,1.382,4.083,4.083,0,0,1-2.818-1.046,3.694,3.694,0,0,1-1.021-2.99V52.79h3.127v5.688c0,.982.044,1.234.33,1.589a1.688,1.688,0,0,0,1.361.585,1.639,1.639,0,0,0,1.343-.585c.288-.356.33-.585.33-1.589V52.79h3.127Z" transform="translate(-322.255 -43.808)" fill="#45a0bc"/>
    <path id="Path_4514" data-name="Path 4514" d="M465.492,44.169H462.5V43.081a3.355,3.355,0,0,1-2.928,1.361c-2.8,0-4.669-2.113-4.669-5.312s1.894-5.353,4.764-5.353a3.558,3.558,0,0,1,2.709,1.046V30.23H465.5Zm-7.512-5.06c0,1.778.881,2.927,2.246,2.927s2.246-1.171,2.246-2.893c0-1.8-.88-2.969-2.246-2.969S457.98,37.337,457.98,39.108Z" transform="translate(-377.499 -25.086)" fill="#45a0bc"/>
    <path id="Path_4515" data-name="Path 4515" d="M5.275,44.326l-1.9-7.354c-.145-.621-.269-1.057-.352-1.346a9.157,9.157,0,0,0-.248-.912c.043.5.043.851.043,1.077l.02,1.325v7.209H0V30.51H4.371l1.754,7.23c.269,1.077.5,2.212.662,3.127a3.526,3.526,0,0,0,.083-.436l.228-.89c.041-.248.124-.56.206-.932.1-.436.208-.869.208-.912L9.321,30.51h4.33V44.326H10.813V37.117l.02-1.325c0-.269,0-.58.041-1.077-.226.829-.373,1.388-.434,1.574-.124.373-.187.643-.208.664L8.348,44.326Z" transform="translate(0 -25.319)" fill="#2d6278"/>
    <path id="Path_4516" data-name="Path 4516" d="M99.607,52.91,96.129,63c-.558,1.635-.89,2.212-1.407,2.588a3.643,3.643,0,0,1-2.237.5H90.76V63.873h.871c1.035,0,1.511-.393,1.511-1.264,0-.352-.02-.413-.373-1.285L89.48,52.91h3.151l1.47,4.577c.291.932.291.953.519,1.781l.124.393c.124-.662.289-1.346.51-2.236L96.56,52.91Z" transform="translate(-74.255 -43.907)" fill="#2d6278"/>
  </g>
</svg>
