<?xml version="1.0" encoding="utf-8"?>
<!-- Generator: Adobe Illustrator 26.3.1, SVG Export Plug-In . SVG Version: 6.00 Build 0)  -->
<svg version="1.1" id="QloudCitySimpleLogo" xmlns="http://www.w3.org/2000/svg" xmlns:xlink="http://www.w3.org/1999/xlink"
	 x="0px" y="0px" viewBox="0 0 186.8 53.1" style="enable-background:new 0 0 186.8 53.1;" xml:space="preserve">
<style type="text/css">
	.st0{fill:#2D6278;}
	.st1{fill:#45A0BC;}
</style>
<g id="Layer_1">
	<path id="Path_2720" class="st0" d="M14.1,34l-3.4-2c-0.1,0-0.1-0.1-0.2-0.1L0,25.5v8.9c0,0.9,0.3,1.8,0.8,2.5
		c0.4,0.5,0.9,1,1.4,1.3l15,9c0.7,0.4,1.5,0.7,2.3,0.7s1.6-0.2,2.2-0.6l1-0.6c0.2-0.1,0.4-0.2,0.6-0.2s0.4,0,0.7,0L39,49L14.1,34z"
		/>
	<path id="Path_2721" class="st0" d="M20.4,16.2l3.2,1.9l9.5-5.7L21.8,5.7c-0.7-0.4-1.5-0.6-2.3-0.7c-0.8,0-1.6,0.2-2.3,0.7L2,14.7
		c-0.6,0.4-1.1,0.9-1.5,1.5C0.2,17,0,17.7,0,18.5v5.7l9.7,5.9v-7.5c0-0.3,0.1-0.6,0.2-0.9c0.2-0.3,0.4-0.6,0.7-0.7l7.4-4.5l0.5-0.3
		c0.3-0.2,0.6-0.3,0.9-0.3C19.8,16,20.1,16,20.4,16.2z"/>
	<path id="Path_2722" class="st1" d="M36.9,14.7l-2.7-1.6l-9.5,5.7l3.6,2.2c0.3,0.2,0.5,0.4,0.7,0.7c0.2,0.3,0.3,0.6,0.3,0.9v7.8
		c0,0.3-0.1,0.6-0.2,0.9c-0.2,0.3-0.4,0.5-0.7,0.7l-7.7,4.6l9.5,5.7l6.8-4.1c0.6-0.4,1.2-0.9,1.6-1.6c0.4-0.7,0.6-1.4,0.6-2.2v-16
		c0-0.8-0.2-1.5-0.6-2.2C38,15.6,37.5,15.1,36.9,14.7L36.9,14.7z"/>
	<path id="Path_2723" class="st1" d="M49.6,43.5h-6.5V15.4h6.5V43.5z"/>
	<path id="Path_2724" class="st1" d="M76.4,33.5c0,6.1-4.9,10.6-11.7,10.6s-11.6-4.4-11.6-10.7s4.8-10.7,11.6-10.7
		C71.7,22.6,76.4,27,76.4,33.5z M59.6,33.3c0,3.8,1.9,6,5.2,6c3.2,0,5.1-2.1,5.1-5.9c0-3.9-1.8-6.1-5.2-6.1
		C61.5,27.4,59.6,29.5,59.6,33.3L59.6,33.3z"/>
	<path id="Path_2725" class="st1" d="M99.8,43.5h-6.1v-2.2c-1.5,2-3.1,2.8-5.8,2.8c-2.1,0.1-4.2-0.7-5.8-2.1c-1.5-1.4-2.1-3.1-2.1-6
		V23.2h6.5v11.5c0,2,0.1,2.5,0.7,3.2c0.7,0.8,1.8,1.2,2.8,1.2c1.1,0.1,2.1-0.4,2.8-1.2c0.6-0.8,0.7-1.2,0.7-3.2V23.2h6.5v20.3H99.8z
		"/>
	<path id="Path_2726" class="st1" d="M125.2,43.5H119v-2.2c-1.4,1.9-3.7,2.9-6.1,2.7c-5.8,0-9.6-4.2-9.6-10.7s3.9-10.8,9.8-10.8
		c2.1-0.1,4.1,0.7,5.6,2.1v-9.3h6.5L125.2,43.5z M109.7,33.3c0,3.6,1.8,5.9,4.6,5.9s4.6-2.4,4.6-5.8c0-3.6-1.8-6-4.6-6
		S109.7,29.7,109.7,33.3L109.7,33.3z"/>
	<path id="Path_2727" class="st0" d="M128.9,34.4c0-4.9,3.8-8.4,8.8-8.4c2.6-0.1,5,1,6.7,2.9l-2.4,2.2c-1-1.2-2.5-1.9-4.1-1.9
		c-2.9,0-5.2,2.4-5.2,5.3c0,2.8,2.3,5.1,5.2,5.2c1.6,0,3.1-0.7,4.1-1.9l2.4,2.2c-1.7,1.9-4.2,3-6.7,2.9
		C132.6,42.8,128.9,39.3,128.9,34.4z"/>
	<path id="Path_2728" class="st0" d="M148.1,26.3h3.8v16.3h-3.8V26.3z"/>
	<path id="Path_2729" class="st0" d="M160.2,29.4H155v-3.1h14.2v3.1H164v13.2h-3.7L160.2,29.4z"/>
	<path id="Path_2730" class="st0" d="M179.9,36.8v5.8h-3.8v-5.8l-6.3-10.5h4l4.3,7.2l4.3-7.2h3.7L179.9,36.8z"/>
</g>
</svg>
