<svg id="QloudEstateSimpleLogo" xmlns="http://www.w3.org/2000/svg" width="209.477" height="45.165"
     viewBox="0 0 209.477 45.165">
    <g id="Layer_1" data-name="Layer 1">
        <path id="Path_2734" data-name="Path 2734" d="M128.889,59.071H122.2V30h6.689Z"
              transform="translate(-77.726 -19.082)" fill="#45a0bc"/>
        <path id="Path_2735" data-name="Path 2735"
              d="M174.568,61.726c0,6.362-5.1,10.94-12.1,10.94S150.41,68.087,150.41,61.551,155.4,50.48,162.464,50.48C169.67,50.48,174.568,55.011,174.568,61.726Zm-17.425-.175c0,3.967,1.933,6.187,5.368,6.187,3.345,0,5.324-2.224,5.324-6.06,0-4.054-1.885-6.278-5.372-6.278C159.075,55.4,157.143,57.628,157.143,61.551Z"
              transform="translate(-95.669 -32.108)" fill="#45a0bc"/>
        <path id="Path_2736" data-name="Path 2736"
              d="M247.2,73.065h-6.358V70.757a6.661,6.661,0,0,1-6.027,2.875,8.858,8.858,0,0,1-6.03-2.184c-1.554-1.456-2.165-3.225-2.165-6.234V52h6.689V63.868c0,2.049.095,2.573.71,3.312A3.79,3.79,0,0,0,236.93,68.4,3.547,3.547,0,0,0,239.8,67.18c.611-.786.706-1.219.706-3.312V52H247.2Z"
              transform="translate(-144.144 -33.075)" fill="#45a0bc"/>
        <path id="Path_2737" data-name="Path 2737"
              d="M315.778,59.071h-6.4V56.8a7.246,7.246,0,0,1-6.263,2.835c-5.983,0-9.983-4.4-9.983-11.071S297.177,37.41,303.3,37.41a7.7,7.7,0,0,1,5.79,2.184V30h6.686ZM299.721,48.517c0,3.7,1.885,6.1,4.8,6.1s4.8-2.442,4.8-6.016c0-3.749-1.885-6.187-4.8-6.187s-4.8,2.4-4.8,6.107Z"
              transform="translate(-186.448 -19.082)" fill="#45a0bc"/>
        <path id="Path_2738" data-name="Path 2738"
              d="M14.558,66.568l-3.548-2.125a1.687,1.687,0,0,1-.171-.113L0,57.83v9.131a4.7,4.7,0,0,0,.779,2.548A6.627,6.627,0,0,0,2.235,70.87l15.475,9.266a4.451,4.451,0,0,0,2.366.684,4.731,4.731,0,0,0,2.311-.633l1-.6a2,2,0,0,1,.59-.218,1.82,1.82,0,0,1,.677,0l15.489,2.58Z"
              transform="translate(0.001 -36.783)" fill="#2d6278"/>
        <path id="Path_2739" data-name="Path 2739"
              d="M21.02,11.453,24.3,13.415l9.728-5.823L22.476.684A4.928,4.928,0,0,0,20.074,0a4.859,4.859,0,0,0-2.358.659l-15.58,9.3A4.808,4.808,0,0,0,.6,11.551,4.367,4.367,0,0,0,0,13.83v5.823l10.034,6.052v-7.73a1.9,1.9,0,0,1,.226-.87,1.867,1.867,0,0,1,.728-.75l7.643-4.586.477-.288a1.787,1.787,0,0,1,.975-.269,1.721,1.721,0,0,1,.939.24Z"
              transform="translate(0.001)" fill="#2d6278"/>
        <path id="Path_2740" data-name="Path 2740"
              d="M75,24.333,72.213,22.67l-9.732,5.845,3.727,2.235a1.863,1.863,0,0,1,.691.681,2.155,2.155,0,0,1,.28.964v8.069a1.856,1.856,0,0,1-.24.914,2.183,2.183,0,0,1-.7.728L58.26,46.836l9.75,5.856,6.98-4.178a4.858,4.858,0,0,0,1.6-1.63,5.113,5.113,0,0,0,.615-2.224V28.216a4.957,4.957,0,0,0-.593-2.246A4.789,4.789,0,0,0,75,24.333Z"
              transform="translate(-37.056 -14.42)" fill="#45a0bc"/>
        <path id="Path_2741" data-name="Path 2741"
              d="M379.337,79.04v3.112H366.37V65.41h12.647v3.126h-8.8v3.639h7.774v3.013h-7.774v3.872Z"
              transform="translate(-233.033 -41.605)" fill="#2d6278"/>
        <path id="Path_2742" data-name="Path 2742"
              d="M406.05,87.391l1.245-2.679a8.8,8.8,0,0,0,4.473,1.245c1.721,0,2.366-.455,2.366-1.172,0-2.1-7.77.047-7.77-5.1,0-2.438,2.184-4.16,5.954-4.16a10.584,10.584,0,0,1,4.95,1.125l-1.245,2.653a7.384,7.384,0,0,0-3.7-.957c-1.674,0-2.391.528-2.391,1.2,0,2.184,7.77.073,7.77,5.142,0,2.391-2.224,4.087-6.074,4.087A11.043,11.043,0,0,1,406.05,87.391Z"
              transform="translate(-258.272 -48.042)" fill="#2d6278"/>
        <path id="Path_2743" data-name="Path 2743"
              d="M449.986,83.329a5.328,5.328,0,0,1-3.035.812c-3.039,0-4.808-1.554-4.808-4.615V74.241H440.16V71.374h1.983V68.24h3.73v3.134h3.206v2.868h-3.206v5.237a1.5,1.5,0,0,0,1.6,1.7,2.511,2.511,0,0,0,1.507-.477Z"
              transform="translate(-279.968 -43.405)" fill="#2d6278"/>
        <path id="Path_2744" data-name="Path 2744"
              d="M482.867,81.244v7.344h-3.49v-1.6c-.7,1.172-2.034,1.794-3.923,1.794-3.01,0-4.8-1.674-4.8-3.9s1.6-3.85,5.525-3.85h2.973c0-1.6-.957-2.548-2.962-2.548a6.187,6.187,0,0,0-3.719,1.223l-1.325-2.62a9.891,9.891,0,0,1,5.55-1.554C480.6,75.53,482.867,77.35,482.867,81.244Zm-3.73,3.275V83.205h-2.548c-1.743,0-2.3.648-2.3,1.507,0,.932.79,1.554,2.107,1.554a2.778,2.778,0,0,0,2.748-1.743Z"
              transform="translate(-299.362 -48.042)" fill="#2d6278"/>
        <path id="Path_2745" data-name="Path 2745"
              d="M519.116,83.329a5.327,5.327,0,0,1-3.035.812c-3.039,0-4.808-1.554-4.808-4.615V74.241H509.29V71.374h1.984V68.24h3.734v3.134h3.2v2.868h-3.2v5.237a1.5,1.5,0,0,0,1.6,1.7,2.525,2.525,0,0,0,1.507-.477Z"
              transform="translate(-323.939 -43.405)" fill="#2d6278"/>
        <path id="Path_2746" data-name="Path 2746"
              d="M551.818,83.205h-9.735a3.439,3.439,0,0,0,3.683,2.584,4.368,4.368,0,0,0,3.228-1.245l1.987,2.155a6.75,6.75,0,0,1-5.31,2.078c-4.447,0-7.341-2.8-7.341-6.624a6.564,6.564,0,0,1,6.864-6.624,6.374,6.374,0,0,1,6.693,6.671C551.887,82.489,551.839,82.9,551.818,83.205Zm-9.783-2.184h6.34a3.214,3.214,0,0,0-6.34,0Z"
              transform="translate(-342.41 -48.042)" fill="#2d6278"/>
    </g>
</svg>
