<svg id="QloudCityLogo_Compact" xmlns="http://www.w3.org/2000/svg" width="56" height="56" viewBox="0 0 56 56">
    <rect id="Rectangle_8747" data-name="Rectangle 8747" width="56" height="56" fill="none"/>
    <g id="Group_10250" data-name="Group 10250" transform="translate(-389 -8)">
        <path id="Path_2819" data-name="Path 2819"
              d="M12.149,156.6l-2.962-1.776a1.432,1.432,0,0,1-.14-.092L0,149.31v7.621a3.923,3.923,0,0,0,.65,2.141,5.553,5.553,0,0,0,1.216,1.138l12.916,7.733a3.71,3.71,0,0,0,1.961.56,3.945,3.945,0,0,0,1.928-.53l.841-.5a1.681,1.681,0,0,1,.493-.182,1.488,1.488,0,0,1,.56,0l12.928,2.152Z"
              transform="translate(400.001 -114.754)" fill="#2d6278"/>
        <path id="Path_2820" data-name="Path 2820"
              d="M17.546,96.2l2.726,1.636L28.4,92.96,18.77,87.21a4.133,4.133,0,0,0-2.006-.56,4.043,4.043,0,0,0-1.961.56L1.783,94.952A4.026,4.026,0,0,0,.5,96.274,3.642,3.642,0,0,0,0,98.194v4.875L8.37,108.1v-6.444a1.625,1.625,0,0,1,.188-.742,1.591,1.591,0,0,1,.605-.625l6.371-3.825.4-.241a1.471,1.471,0,0,1,.813-.227A1.429,1.429,0,0,1,17.546,96.2Z"
              transform="translate(400.003 -69.65)" fill="#2d6278"/>
        <path id="Path_2821" data-name="Path 2821"
              d="M77.132,112.551l-2.326-1.4-8.125,4.878,3.11,1.866a1.566,1.566,0,0,1,.577.56,1.788,1.788,0,0,1,.233.8v6.724a1.538,1.538,0,0,1-.2.765,1.8,1.8,0,0,1-.583.594l-6.646,3.99,8.139,4.886,5.822-3.488a4.032,4.032,0,0,0,1.334-1.359,4.231,4.231,0,0,0,.513-1.858V115.784a4.127,4.127,0,0,0-.5-1.877,3.976,3.976,0,0,0-1.35-1.356Z"
              transform="translate(354.53 -87.285)" fill="#45a0bc"/>
    </g>
</svg>
