<?xml version="1.0" encoding="utf-8"?>
<!-- Generator: Adobe Illustrator 26.3.1, SVG Export Plug-In . SVG Version: 6.00 Build 0)  -->
<svg version="1.1" xmlns="http://www.w3.org/2000/svg" xmlns:xlink="http://www.w3.org/1999/xlink" x="0px" y="0px"
	 viewBox="0 0 364.7 184" style="enable-background:new 0 0 364.7 184;" xml:space="preserve">
<style type="text/css">
	.st0{fill:none;}
	.st1{fill:#2D6278;}
	.st2{fill:#45A0BC;}
</style>
<g id="Layer_1">
	<rect id="Rectangle_1" class="st0" width="408" height="184"/>
	<g id="Layer_1_00000013886614088906215570000008352638379346391172_" transform="translate(7.999 8)">
		<path id="Path_2720" class="st1" d="M22.2,118.7l-6.7-4c-0.1-0.1-0.2-0.1-0.3-0.2l-20.3-12.2v17.1c0,1.7,0.5,3.4,1.5,4.8
			c0.7,1,1.7,1.8,2.7,2.6L28,144.1c1.3,0.8,2.8,1.3,4.4,1.3c1.6,0,3-0.5,4.3-1.2l1.9-1.1c0.4-0.2,0.7-0.4,1.1-0.4
			c0.5-0.1,0.8-0.1,1.3,0l29,4.9L22.2,118.7z"/>
		<path id="Path_2721" class="st1" d="M34.3,84.3l6.1,3.7l18.2-11L37,64.2c-1.4-0.8-2.9-1.2-4.5-1.3c-1.6,0-3,0.5-4.4,1.3L-1.1,81.6
			c-1.2,0.7-2.2,1.7-2.8,2.9c-0.7,1.3-1.2,2.7-1.1,4.3v10.9L13.6,111V96.6c0-0.5,0.2-1.2,0.5-1.6c0.3-0.5,0.8-1.1,1.4-1.4L29.8,85
			l0.9-0.5c0.5-0.4,1.2-0.5,1.8-0.5C33.1,83.9,33.7,84,34.3,84.3z"/>
		<path id="Path_2722" class="st2" d="M66,81.4l-5.2-3.1l-18.2,11l7,4.2c0.5,0.3,1,0.7,1.3,1.3c0.3,0.5,0.5,1.2,0.5,1.8v15.1
			c0,0.6-0.2,1.2-0.5,1.7c-0.4,0.5-0.7,1-1.3,1.4l-14.9,9l18.2,11L66,127c1.2-0.7,2.3-1.8,3-3c0.7-1.3,1.1-2.7,1.2-4.2V88.7
			c0-1.5-0.4-2.9-1.1-4.2C68.2,83.2,67.1,82.2,66,81.4L66,81.4z"/>
		<path id="Path_2723" class="st2" d="M90.6,137H78.1V82.8h12.5V137z"/>
		<path id="Path_2724" class="st2" d="M142.3,117.7c0,11.8-9.4,20.4-22.5,20.4s-22.4-8.5-22.4-20.7s9.3-20.6,22.4-20.6
			C133.1,96.7,142.3,105.1,142.3,117.7z M109.8,117.3c0,7.4,3.6,11.5,10,11.5c6.2,0,9.9-4.1,9.9-11.3c0-7.5-3.5-11.7-10-11.7
			C113.4,105.9,109.8,110.1,109.8,117.3L109.8,117.3z"/>
		<path id="Path_2725" class="st2" d="M187.3,137h-11.8v-4.3c-3,3.9-6,5.4-11.3,5.4c-4.1,0.1-8.2-1.4-11.3-4c-2.9-2.7-4-6-4-11.6
			V97.8h12.5v22.1c0,3.8,0.2,4.8,1.3,6.1c1.4,1.6,3.4,2.4,5.4,2.3c2,0.1,4-0.7,5.3-2.3c1.1-1.5,1.3-2.3,1.3-6.1V97.8h12.5L187.3,137
			z"/>
		<path id="Path_2726" class="st2" d="M236.3,137h-11.9v-4.2c-3.1,3.8-6.5,5.3-11.6,5.3c-11.2,0-18.6-8.2-18.6-20.6
			s7.5-20.8,19-20.8c4.6,0,7.8,1.2,10.8,4V82.9h12.5L236.3,137z M206.3,117.3c0,7,3.5,11.4,9,11.4s9-4.6,9-11.2c0-7-3.5-11.5-9-11.5
			S206.3,110.4,206.3,117.3L206.3,117.3z"/>
		<path id="Path_2727" class="st1" d="M243.4,119.4c0-9.4,7.2-16.2,17-16.2c5.4,0,10,2,12.9,5.6l-4.7,4.3c-3.5-4.3-9.9-4.9-14.2-1.5
			s-4.9,9.9-1.5,14.2c3.4,4.3,9.9,4.9,14.2,1.5c0.5-0.5,1-0.9,1.5-1.5l4.7,4.3c-2.9,3.7-7.5,5.6-12.9,5.6
			C250.6,135.6,243.4,128.9,243.4,119.4z"/>
		<path id="Path_2728" class="st1" d="M280.4,103.7h7.2V135h-7.2V103.7z"/>
		<path id="Path_2729" class="st1" d="M303.9,109.7h-10.1v-6h27.3v6H311v25.5h-7.2L303.9,109.7z"/>
		<path id="Path_2730" class="st1" d="M341.8,124v11.1h-7.2v-11.2l-12.2-20.2h7.7l8.3,13.9l8.4-13.9h7.1L341.8,124z"/>
		<path id="Path_2731" class="st1" d="M271.9,58.7h-8c-1.1,0-2,0.9-2,2s0.9,2,2,2l0,0h8c1.1,0,2-0.9,2-2
			C273.9,59.5,273,58.7,271.9,58.7L271.9,58.7z"/>
		<path id="Path_2732" class="st1" d="M271.9,66.6h-8c-1.1,0.1-1.9,1-1.9,2.1c0.1,1,0.8,1.8,1.9,1.9h8c1.1-0.1,1.9-1,1.9-2.1
			C273.7,67.5,272.9,66.6,271.9,66.6z"/>
		<path id="Path_2733" class="st1" d="M271.9,74.6h-8c-1.1,0-2,0.9-2,2s0.9,2,2,2l0,0h8c1.1,0,2-0.9,2-2S273,74.6,271.9,74.6
			L271.9,74.6z"/>
		<path id="Path_2734" class="st1" d="M271.9,82.6h-8c-1.1,0.1-1.9,1-1.9,2.1c0.1,1,0.8,1.8,1.9,1.9h8c1.1-0.1,1.9-1,1.9-2.1
			C273.7,83.5,272.9,82.7,271.9,82.6z"/>
		<path id="Path_2735" class="st1" d="M271.9,90.6h-8c-1.1,0-2,0.9-2,2s0.9,2,2,2l0,0h8c1.1,0,2-0.9,2-2S273,90.6,271.9,90.6z"/>
		<path id="Path_2736" class="st1" d="M325,27.9h21.2c3.3,0,5.9-2.7,5.9-6c0-2.5-1.6-4.7-3.9-5.5c-0.5-4.9-5-8.6-10-8.1
			c-2.4,0.3-4.6,1.5-6,3.3c-3.6-1.2-7.4,0.6-8.7,4.2c-0.1,0.2-0.1,0.3-0.1,0.5c-3.1,1-4.8,4.3-3.8,7.4
			C320.3,26.2,322.6,27.9,325,27.9L325,27.9z M325,20.2c1.1,0,2-0.9,2-2l0,0c0-1.6,1.3-2.7,2.8-2.7c0.6,0,1.2,0.2,1.6,0.5
			c0.8,0.6,2.1,0.5,2.8-0.4c0.1-0.1,0.2-0.3,0.2-0.4c1.3-2.6,4.3-3.6,6.8-2.3c1.9,0.9,3,2.9,2.8,5c-0.1,1.1,0.7,2.1,1.8,2.2
			c0.1,0,0.1,0,0.2,0l0,0c1,0,1.9,0.8,1.9,1.9s-0.8,1.9-1.9,1.9h-21c-1,0-1.9-0.8-1.9-1.9S324,20.1,325,20.2L325,20.2z"/>
		<path id="Path_2737" class="st1" d="M293.9,59.7L293.9,59.7c0,1.1-0.9,2-2,2s-2-0.9-2-2s0.9-2,2-2S293.9,58.5,293.9,59.7
			L293.9,59.7z"/>
		<path id="Path_2738" class="st1" d="M293.9,50.7V36l11.9-12.6v12.5h-2c-1.1,0-2,0.9-2,2l0,0v10.3c0,1.1,0.9,2,2,2l0,0h2v4.7h-2
			c-1.1,0-2,0.9-2,2s0.9,2,2,2h2v4.5h-2c-1.1,0-2,0.9-2,2s0.9,2,2,2l0,0h2V72h-2c-1.1,0-2,0.9-2,2s0.9,2,2,2l0,0h2v4.7h-2
			c-1.1,0-2,0.9-2,2s0.9,2,2,2l0,0h2v4.7h-2c-1.1,0-2,0.9-2,2s0.9,2,2,2l0,0h2v5.1h4V84.9h18.3v13.7h4V73.7H344v24.6h4V59.7
			c0-0.5-0.2-1-0.5-1.4l-7.4-7.8v-4.9c0-1.1-0.9-2-2-2s-2,0.9-2,2l0,0v4.9l-4,4.2v-4.9c0-0.5-0.3-1.2-0.7-1.6L317,36.3
			c-0.8-0.7-2.1-0.5-2.8,0.3c-0.3,0.4-0.5,0.8-0.5,1.3v42.8h-4V48c0-1.1-0.9-2-2-2l0,0h-2v-6.2h2c1.1,0,2-0.9,2-2l0,0V10.4
			c0-1.1-0.9-2-2-2s-2,0.9-2,2l0,0v7.1l-15.4,16.2c-0.4,0.4-0.5,0.8-0.5,1.4v15.6c0.1,1.1,1.1,1.9,2.2,1.8
			C293,52.3,293.8,51.6,293.9,50.7L293.9,50.7z M332.2,60.5l6-6.3l6,6.3v1.2h-11.9v-1.2H332.2z M332.2,65.6h11.9v4h-11.9V65.6z
			 M317.8,75.9h1.6c1.1,0,2-0.9,2-2s-0.9-2-2-2l0,0h-1.6v-4.7h1.6c1.1,0,2-0.9,2-2s-0.9-2-2-2h-1.6v-4.7h1.6c1.1,0,2-0.9,2-2
			s-0.9-2-2-2h-1.6V42.1l10.4,8.6v29.9h-10.4V75.9z"/>
		<path id="Path_2739" class="st1" d="M323,88.4h-8c-1.1,0-2,0.9-2,2l0,0v7.9h4v-6h4v6h4v-7.9C324.9,89.3,324.1,88.4,323,88.4
			L323,88.4L323,88.4z"/>
		<path id="Path_2740" class="st1" d="M258,98.3V54.6h20v43.7h4V78.6h11.9v19.7h4V68.6c0-1.1-0.9-2-2-2l0,0H282V44.7
			c0-1.1-0.9-2-2-2h-6v-16c0-1.1-0.9-2-2-2h-8c-1.1,0-2,0.9-2,2v15.9h-6c-1.1,0-2,0.9-2,2l0,0v53.7H258z M281.9,70.6h11.9v4h-11.9
			V70.6z M265.9,28.7h4v13.9h-4V28.7z M258,46.7h20v4h-20V46.7z"/>
	</g>
	<g id="Layer_2_00000098917702929902525150000008850106400646129076_">
	</g>
	<g id="Layer_3">
	</g>
	<g>
		<path class="st1" d="M93.5,166.5h-5.3v3.9h6.1v1.8H86v-12.8h8.3v1.8h-6.1v3.5h5.3V166.5z"/>
		<path class="st1" d="M99.3,165.8l1.8-3.1h2.4l-2.9,4.7l3,4.8h-2.4l-1.9-3.3l-1.9,3.3h-2.4l3-4.8l-2.9-4.7h2.4L99.3,165.8z"/>
		<path class="st1" d="M113.3,167.6c0,1.5-0.3,2.6-1,3.5c-0.7,0.9-1.6,1.3-2.7,1.3c-1,0-1.9-0.3-2.5-1v4.5h-2.1v-13.2h2l0.1,1
			c0.6-0.8,1.5-1.1,2.6-1.1c1.2,0,2.1,0.4,2.7,1.3s1,2.1,1,3.6V167.6z M111.1,167.4c0-0.9-0.2-1.7-0.6-2.3s-0.9-0.8-1.6-0.8
			c-0.9,0-1.5,0.4-1.9,1.1v4.2c0.4,0.7,1,1.1,1.9,1.1c0.7,0,1.2-0.3,1.6-0.8C110.9,169.3,111.1,168.5,111.1,167.4z"/>
		<path class="st1" d="M117.3,172.2h-2.1v-13.5h2.1V172.2z"/>
		<path class="st1" d="M119.2,167.4c0-0.9,0.2-1.8,0.6-2.5c0.4-0.7,0.9-1.3,1.6-1.7c0.7-0.4,1.4-0.6,2.3-0.6c1.3,0,2.3,0.4,3.1,1.2
			s1.2,1.9,1.3,3.3l0,0.5c0,0.9-0.2,1.8-0.5,2.5s-0.9,1.3-1.5,1.7s-1.4,0.6-2.3,0.6c-1.3,0-2.4-0.4-3.2-1.3s-1.2-2.1-1.2-3.6V167.4z
			 M121.3,167.6c0,1,0.2,1.7,0.6,2.3c0.4,0.6,1,0.8,1.7,0.8s1.3-0.3,1.7-0.8s0.6-1.4,0.6-2.5c0-1-0.2-1.7-0.6-2.3s-1-0.8-1.7-0.8
			c-0.7,0-1.3,0.3-1.7,0.8C121.5,165.6,121.3,166.5,121.3,167.6z"/>
		<path class="st1" d="M134.8,164.7c-0.3,0-0.6-0.1-0.9-0.1c-1,0-1.6,0.4-2,1.1v6.5h-2.1v-9.5h2l0.1,1.1c0.5-0.8,1.2-1.2,2.1-1.2
			c0.3,0,0.6,0,0.8,0.1L134.8,164.7z"/>
		<path class="st1" d="M140.1,172.4c-1.4,0-2.5-0.4-3.3-1.3c-0.8-0.9-1.3-2-1.3-3.4v-0.3c0-0.9,0.2-1.8,0.5-2.5
			c0.4-0.7,0.9-1.3,1.5-1.7s1.4-0.6,2.2-0.6c1.3,0,2.3,0.4,3,1.2s1.1,2,1.1,3.5v0.9h-6.2c0.1,0.8,0.3,1.4,0.8,1.9s1,0.7,1.7,0.7
			c1,0,1.8-0.4,2.4-1.2l1.2,1.1c-0.4,0.6-0.9,1-1.5,1.3C141.6,172.2,140.9,172.4,140.1,172.4z M139.9,164.2c-0.6,0-1.1,0.2-1.4,0.6
			s-0.6,1-0.7,1.7h4.1v-0.2c0-0.7-0.2-1.3-0.6-1.6S140.4,164.2,139.9,164.2z"/>
		<path class="st1" d="M152.4,167.5v4.7h-2.2v-12.8h4.9c1.4,0,2.6,0.4,3.4,1.1c0.8,0.7,1.3,1.7,1.3,3c0,1.3-0.4,2.2-1.2,2.9
			s-2,1-3.5,1H152.4z M152.4,165.7h2.7c0.8,0,1.4-0.2,1.8-0.6c0.4-0.4,0.6-0.9,0.6-1.6c0-0.7-0.2-1.2-0.6-1.7
			c-0.4-0.4-1-0.6-1.7-0.6h-2.7V165.7z"/>
		<path class="st1" d="M163.7,172.2h-2.1v-13.5h2.1V172.2z"/>
		<path class="st1" d="M171.7,172.2c-0.1-0.2-0.2-0.5-0.2-0.9c-0.7,0.7-1.5,1.1-2.5,1.1c-1,0-1.7-0.3-2.3-0.8s-0.9-1.2-0.9-2
			c0-1,0.4-1.8,1.1-2.3s1.8-0.8,3.2-0.8h1.3v-0.6c0-0.5-0.1-0.9-0.4-1.2s-0.7-0.4-1.3-0.4c-0.5,0-0.9,0.1-1.2,0.4
			c-0.3,0.2-0.5,0.6-0.5,0.9h-2.1c0-0.5,0.2-1,0.5-1.5s0.8-0.8,1.4-1.1s1.3-0.4,2-0.4c1.1,0,2,0.3,2.7,0.8s1,1.3,1,2.4v4.3
			c0,0.9,0.1,1.5,0.4,2v0.1H171.7z M169.4,170.7c0.4,0,0.8-0.1,1.2-0.3s0.7-0.5,0.8-0.8v-1.8h-1.2c-0.8,0-1.4,0.1-1.8,0.4
			s-0.6,0.7-0.6,1.2c0,0.4,0.1,0.7,0.4,1S168.9,170.7,169.4,170.7z"/>
		<path class="st1" d="M179.6,170.7c0.5,0,1-0.2,1.3-0.5s0.5-0.7,0.6-1.2h2c0,0.6-0.2,1.1-0.6,1.7c-0.3,0.5-0.8,0.9-1.4,1.2
			s-1.2,0.4-1.9,0.4c-1.3,0-2.4-0.4-3.2-1.3s-1.2-2.1-1.2-3.6v-0.2c0-1.4,0.4-2.6,1.2-3.5c0.8-0.9,1.8-1.3,3.2-1.3
			c1.1,0,2.1,0.3,2.8,1c0.7,0.7,1.1,1.5,1.1,2.6h-2c0-0.5-0.2-1-0.6-1.3s-0.8-0.5-1.3-0.5c-0.7,0-1.2,0.3-1.6,0.8
			c-0.4,0.5-0.6,1.3-0.6,2.3v0.3c0,1,0.2,1.8,0.6,2.3S178.9,170.7,179.6,170.7z"/>
		<path class="st1" d="M189.3,172.4c-1.4,0-2.5-0.4-3.3-1.3c-0.8-0.9-1.3-2-1.3-3.4v-0.3c0-0.9,0.2-1.8,0.5-2.5
			c0.4-0.7,0.9-1.3,1.5-1.7s1.4-0.6,2.2-0.6c1.3,0,2.3,0.4,3,1.2s1.1,2,1.1,3.5v0.9h-6.2c0.1,0.8,0.3,1.4,0.8,1.9s1,0.7,1.7,0.7
			c1,0,1.8-0.4,2.4-1.2l1.2,1.1c-0.4,0.6-0.9,1-1.5,1.3C190.8,172.2,190.1,172.4,189.3,172.4z M189,164.2c-0.6,0-1.1,0.2-1.4,0.6
			s-0.6,1-0.7,1.7h4.1v-0.2c0-0.7-0.2-1.3-0.6-1.6S189.6,164.2,189,164.2z"/>
		<path class="st1" d="M200.1,169.6c0-0.4-0.2-0.7-0.5-0.9c-0.3-0.2-0.8-0.4-1.6-0.5c-0.7-0.2-1.3-0.3-1.8-0.6
			c-1.1-0.5-1.6-1.3-1.6-2.2c0-0.8,0.3-1.5,1-2.1s1.6-0.8,2.6-0.8c1.1,0,2.1,0.3,2.8,0.8c0.7,0.6,1.1,1.3,1.1,2.2H200
			c0-0.4-0.2-0.8-0.5-1c-0.3-0.3-0.7-0.4-1.2-0.4c-0.5,0-0.9,0.1-1.1,0.3s-0.4,0.5-0.4,0.9c0,0.3,0.1,0.6,0.4,0.8
			c0.3,0.2,0.8,0.4,1.7,0.5c0.8,0.2,1.5,0.4,2,0.7c0.5,0.3,0.8,0.6,1.1,0.9c0.2,0.4,0.3,0.8,0.3,1.3c0,0.9-0.4,1.5-1.1,2.1
			s-1.6,0.8-2.8,0.8c-0.8,0-1.5-0.1-2.1-0.4s-1.1-0.7-1.4-1.2s-0.5-1-0.5-1.6h2.1c0,0.5,0.2,0.9,0.6,1.2c0.4,0.3,0.8,0.4,1.4,0.4
			c0.6,0,1-0.1,1.3-0.3S200.1,170,200.1,169.6z"/>
		<path class="st1" d="M211.1,160.4v2.3h1.7v1.6h-1.7v5.3c0,0.4,0.1,0.6,0.2,0.8c0.1,0.2,0.4,0.2,0.8,0.2c0.2,0,0.5,0,0.7-0.1v1.7
			c-0.5,0.1-1,0.2-1.4,0.2c-1.6,0-2.5-0.9-2.5-2.7v-5.4h-1.6v-1.6h1.6v-2.3H211.1z"/>
		<path class="st1" d="M213.7,167.4c0-0.9,0.2-1.8,0.6-2.5c0.4-0.7,0.9-1.3,1.6-1.7c0.7-0.4,1.4-0.6,2.3-0.6c1.3,0,2.3,0.4,3.1,1.2
			c0.8,0.8,1.2,1.9,1.3,3.3l0,0.5c0,0.9-0.2,1.8-0.5,2.5c-0.4,0.7-0.9,1.3-1.5,1.7c-0.7,0.4-1.4,0.6-2.3,0.6c-1.3,0-2.4-0.4-3.2-1.3
			s-1.2-2.1-1.2-3.6V167.4z M215.9,167.6c0,1,0.2,1.7,0.6,2.3c0.4,0.6,1,0.8,1.7,0.8s1.3-0.3,1.7-0.8s0.6-1.4,0.6-2.5
			c0-1-0.2-1.7-0.6-2.3c-0.4-0.6-1-0.8-1.7-0.8c-0.7,0-1.3,0.3-1.7,0.8C216.1,165.6,215.9,166.5,215.9,167.6z"/>
		<path class="st1" d="M236.5,166.5h-5.3v3.9h6.1v1.8H229v-12.8h8.3v1.8h-6.1v3.5h5.3V166.5z"/>
		<path class="st1" d="M244.6,172.2c-0.1-0.2-0.2-0.5-0.2-0.9c-0.7,0.7-1.5,1.1-2.5,1.1c-1,0-1.7-0.3-2.3-0.8s-0.9-1.2-0.9-2
			c0-1,0.4-1.8,1.1-2.3s1.8-0.8,3.2-0.8h1.3v-0.6c0-0.5-0.1-0.9-0.4-1.2s-0.7-0.4-1.3-0.4c-0.5,0-0.9,0.1-1.2,0.4
			c-0.3,0.2-0.5,0.6-0.5,0.9h-2.1c0-0.5,0.2-1,0.5-1.5s0.8-0.8,1.4-1.1s1.3-0.4,2-0.4c1.1,0,2,0.3,2.7,0.8s1,1.3,1,2.4v4.3
			c0,0.9,0.1,1.5,0.4,2v0.1H244.6z M242.3,170.7c0.4,0,0.8-0.1,1.2-0.3c0.4-0.2,0.7-0.5,0.8-0.8v-1.8h-1.2c-0.8,0-1.4,0.1-1.8,0.4
			s-0.6,0.7-0.6,1.2c0,0.4,0.1,0.7,0.4,1C241.4,170.6,241.8,170.7,242.3,170.7z"/>
		<path class="st1" d="M251.3,160.4v2.3h1.7v1.6h-1.7v5.3c0,0.4,0.1,0.6,0.2,0.8c0.1,0.2,0.4,0.2,0.8,0.2c0.2,0,0.5,0,0.7-0.1v1.7
			c-0.5,0.1-1,0.2-1.4,0.2c-1.6,0-2.5-0.9-2.5-2.7v-5.4h-1.6v-1.6h1.6v-2.3H251.3z"/>
		<path class="st1" d="M254.9,175.1l-1.2-0.7c0.3-0.5,0.6-1,0.7-1.4c0.1-0.4,0.2-0.8,0.2-1.2v-1.7h1.9l0,1.5c0,0.6-0.2,1.2-0.5,1.9
			C255.8,174.2,255.4,174.7,254.9,175.1z"/>
		<path class="st1" d="M269.8,168.9c0-0.6-0.2-1-0.6-1.3c-0.4-0.3-1.1-0.6-2.1-0.9s-1.9-0.7-2.5-1c-1.2-0.7-1.7-1.7-1.7-2.9
			c0-1,0.4-1.9,1.3-2.5s1.9-1,3.3-1c0.9,0,1.7,0.2,2.4,0.5s1.2,0.8,1.6,1.4c0.4,0.6,0.6,1.3,0.6,2h-2.2c0-0.7-0.2-1.2-0.6-1.6
			c-0.4-0.4-1-0.6-1.8-0.6c-0.7,0-1.3,0.2-1.7,0.5s-0.6,0.7-0.6,1.3c0,0.5,0.2,0.9,0.7,1.2c0.4,0.3,1.1,0.6,2.1,0.9
			c1,0.3,1.8,0.6,2.4,1c0.6,0.4,1,0.8,1.3,1.3s0.4,1.1,0.4,1.7c0,1.1-0.4,1.9-1.2,2.5c-0.8,0.6-1.9,0.9-3.3,0.9
			c-0.9,0-1.8-0.2-2.6-0.5c-0.8-0.3-1.4-0.8-1.8-1.4c-0.4-0.6-0.6-1.3-0.6-2.1h2.2c0,0.7,0.2,1.3,0.7,1.7s1.2,0.6,2.1,0.6
			c0.8,0,1.4-0.2,1.7-0.5C269.6,169.9,269.8,169.4,269.8,168.9z"/>
		<path class="st1" d="M275.9,163.7c0.7-0.8,1.6-1.2,2.6-1.2c2,0,3.1,1.2,3.1,3.5v6.2h-2.1v-6.1c0-0.7-0.1-1.1-0.4-1.4
			c-0.3-0.3-0.7-0.4-1.3-0.4c-0.9,0-1.5,0.4-1.9,1.1v6.8h-2.1v-13.5h2.1V163.7z"/>
		<path class="st1" d="M283.3,167.4c0-0.9,0.2-1.8,0.6-2.5c0.4-0.7,0.9-1.3,1.6-1.7c0.7-0.4,1.4-0.6,2.3-0.6c1.3,0,2.3,0.4,3.1,1.2
			c0.8,0.8,1.2,1.9,1.3,3.3l0,0.5c0,0.9-0.2,1.8-0.5,2.5c-0.4,0.7-0.9,1.3-1.5,1.7c-0.7,0.4-1.4,0.6-2.3,0.6c-1.3,0-2.4-0.4-3.2-1.3
			s-1.2-2.1-1.2-3.6V167.4z M285.5,167.6c0,1,0.2,1.7,0.6,2.3c0.4,0.6,1,0.8,1.7,0.8s1.3-0.3,1.7-0.8s0.6-1.4,0.6-2.5
			c0-1-0.2-1.7-0.6-2.3c-0.4-0.6-1-0.8-1.7-0.8c-0.7,0-1.3,0.3-1.7,0.8C285.7,165.6,285.5,166.5,285.5,167.6z"/>
		<path class="st1" d="M302.3,167.6c0,1.5-0.3,2.6-1,3.5c-0.7,0.9-1.6,1.3-2.7,1.3c-1,0-1.9-0.3-2.5-1v4.5h-2.1v-13.2h2l0.1,1
			c0.6-0.8,1.5-1.1,2.6-1.1c1.2,0,2.1,0.4,2.7,1.3c0.7,0.9,1,2.1,1,3.6V167.6z M300.1,167.4c0-0.9-0.2-1.7-0.6-2.3
			c-0.4-0.6-0.9-0.8-1.6-0.8c-0.9,0-1.5,0.4-1.9,1.1v4.2c0.4,0.7,1,1.1,1.9,1.1c0.7,0,1.2-0.3,1.6-0.8
			C299.9,169.3,300.1,168.5,300.1,167.4z"/>
		<path class="st1" d="M308.1,168.8c0-0.6,0.2-1.1,0.5-1.6s1-1.1,1.9-1.8c-0.5-0.6-0.8-1.2-1-1.6c-0.2-0.4-0.3-0.9-0.3-1.3
			c0-1,0.3-1.8,0.9-2.4s1.4-0.9,2.5-0.9c0.9,0,1.7,0.3,2.3,0.8s0.9,1.2,0.9,2c0,0.5-0.1,1-0.4,1.5c-0.3,0.4-0.7,0.9-1.3,1.3
			l-0.9,0.6l2.5,2.9c0.4-0.7,0.5-1.5,0.5-2.3h1.9c0,1.6-0.4,2.9-1.1,3.9l1.9,2.2h-2.5l-0.7-0.9c-0.9,0.7-2,1-3.3,1s-2.3-0.3-3-1
			C308.5,170.7,308.1,169.8,308.1,168.8z M312.4,170.7c0.7,0,1.4-0.2,2-0.7l-2.8-3.3l-0.3,0.2c-0.7,0.5-1.1,1.1-1.1,1.8
			c0,0.6,0.2,1.1,0.6,1.4S311.7,170.7,312.4,170.7z M311.2,162.4c0,0.5,0.3,1.1,0.9,1.9l1-0.7l0.3-0.2c0.4-0.3,0.5-0.7,0.5-1.2
			c0-0.3-0.1-0.6-0.4-0.9c-0.3-0.2-0.6-0.4-1-0.4c-0.4,0-0.7,0.1-1,0.4S311.2,162,311.2,162.4z"/>
		<path class="st1" d="M334.4,170.6c-0.5,0.6-1.1,1.1-1.9,1.4s-1.8,0.5-2.8,0.5c-1.1,0-2-0.2-2.8-0.7s-1.5-1.2-1.9-2.1
			c-0.4-0.9-0.7-2-0.7-3.2v-1c0-1.9,0.5-3.4,1.4-4.5s2.2-1.6,3.9-1.6c1.4,0,2.6,0.4,3.4,1.1c0.8,0.7,1.3,1.7,1.5,3h-2.2
			c-0.2-1.5-1.1-2.3-2.7-2.3c-1,0-1.8,0.4-2.3,1.1c-0.5,0.7-0.8,1.8-0.8,3.2v1c0,1.4,0.3,2.5,0.9,3.2c0.6,0.8,1.4,1.1,2.4,1.1
			c1.1,0,1.9-0.3,2.4-0.8v-2.5h-2.6v-1.7h4.9V170.6z"/>
		<path class="st1" d="M336.2,167.4c0-0.9,0.2-1.8,0.6-2.5c0.4-0.7,0.9-1.3,1.6-1.7c0.7-0.4,1.4-0.6,2.3-0.6c1.3,0,2.3,0.4,3.1,1.2
			c0.8,0.8,1.2,1.9,1.3,3.3l0,0.5c0,0.9-0.2,1.8-0.5,2.5c-0.4,0.7-0.9,1.3-1.5,1.7c-0.7,0.4-1.4,0.6-2.3,0.6c-1.3,0-2.4-0.4-3.2-1.3
			s-1.2-2.1-1.2-3.6V167.4z M338.3,167.6c0,1,0.2,1.7,0.6,2.3c0.4,0.6,1,0.8,1.7,0.8s1.3-0.3,1.7-0.8s0.6-1.4,0.6-2.5
			c0-1-0.2-1.7-0.6-2.3c-0.4-0.6-1-0.8-1.7-0.8c-0.7,0-1.3,0.3-1.7,0.8C338.6,165.6,338.3,166.5,338.3,167.6z"/>
		<path class="st1" d="M347,171.2c0-0.3,0.1-0.6,0.3-0.8s0.5-0.3,0.9-0.3s0.7,0.1,0.9,0.3s0.3,0.5,0.3,0.8c0,0.3-0.1,0.6-0.3,0.8
			s-0.5,0.3-0.9,0.3s-0.7-0.1-0.9-0.3S347,171.5,347,171.2z M349.1,168.5h-1.8l-0.2-9h2.2L349.1,168.5z"/>
	</g>
</g>
<g id="Layer_2">
</g>
</svg>
