<?xml version="1.0" encoding="utf-8"?>
<!-- Generator: Adobe Illustrator 26.3.1, SVG Export Plug-In . SVG Version: 6.00 Build 0)  -->
<svg version="1.1" id="QloudCitySimpleLogo" xmlns="http://www.w3.org/2000/svg" xmlns:xlink="http://www.w3.org/1999/xlink"
	 x="0px" y="0px" viewBox="0 0 186.8 53.1" style="enable-background:new 0 0 186.8 53.1;" xml:space="preserve">
<style type="text/css">
	.st0{fill:#F4F4F4;}
</style>
<g>
	<path class="st0" d="M9.8,18.7v5.4h6.7v-5.4h6.3v16.1h-6.3v-6.1H9.8v6.1H3.5V18.7H9.8z"/>
	<path class="st0" d="M46.2,22.8v7.9c0,2.7-3.2,4.3-9.3,4.3s-9.3-1.6-9.3-4.3v-7.9c0-2.7,3.2-4.3,9.3-4.3S46.2,20.1,46.2,22.8z
		 M40.2,30.3l0-2l0-5.1c0-0.4-1.3-0.6-3.2-0.6s-3.1,0.2-3.1,0.6v7.2c0,0.4,1.2,0.6,3.1,0.6C38.9,31,40.2,30.8,40.2,30.3z"/>
	<path class="st0" d="M57.3,18.7v11.1h10.4v4.9H51V18.7H57.3z"/>
	<path class="st0" d="M78.8,18.7v11.1h10.4v4.9H72.5V18.7H78.8z"/>
	<path class="st0" d="M89,18.7h7.5l4.5,5.7v-0.2h0.1v0.2l4.5-5.7h6.9l-8.6,9.6v6.5h-6.3v-6.5L89,18.7z"/>
	<path class="st0" d="M135.9,22.8v7.9c0,2.7-3.2,4.3-9.3,4.3c-6.1,0-9.3-1.6-9.3-4.3v-7.9c0-2.7,3.2-4.3,9.3-4.3
		S135.9,20.1,135.9,22.8z M129.9,30.3l0-2l0-5.1c0-0.4-1.3-0.6-3.2-0.6s-3.1,0.2-3.1,0.6v7.2c0,0.4,1.2,0.6,3.1,0.6
		S129.9,30.8,129.9,30.3z"/>
	<path class="st0" d="M140.7,30.6V18.7h6.3v10.6c0,0.6,1.2,0.8,3.2,0.8s3.2-0.2,3.2-0.8V18.7h6.1v11.9c0,2.8-3.2,4.4-9.4,4.4
		C143.9,35,140.7,33.4,140.7,30.6z"/>
	<path class="st0" d="M173.9,18.7c6.3,0,9.4,1.5,9.4,4.3v7.5c0,2.8-3.1,4.3-9.4,4.3h-9.6v-16H173.9z M177,30.2v-6.9
		c0-0.5-1.2-0.7-3.2-0.7h-3.2v8.3h3.2C175.8,30.9,177,30.7,177,30.2z"/>
</g>
</svg>
