<svg id="QloudityFullLogo" xmlns="http://www.w3.org/2000/svg" width="388.31" height="150.4" viewBox="0 0 388.31 150.4">
    <g id="Layer_1" data-name="Layer 1">
        <path id="Path_2720" data-name="Path 2720"
              d="M29.484,167.01,22.3,162.7a3.48,3.48,0,0,1-.34-.224L0,149.31v18.5A9.52,9.52,0,0,0,1.578,173a13.478,13.478,0,0,0,2.951,2.761l31.348,18.768a9,9,0,0,0,4.76,1.36,9.574,9.574,0,0,0,4.678-1.285l2.04-1.217a4.08,4.08,0,0,1,1.2-.442,3.611,3.611,0,0,1,1.36,0l31.375,5.222Z"
              transform="translate(0.002 -47.767)" fill="#2d6278"/>
        <path id="Path_2721" data-name="Path 2721"
              d="M42.587,109.831,49.2,113.8l19.72-11.839L45.559,88.01a10.03,10.03,0,0,0-4.869-1.36,9.812,9.812,0,0,0-4.76,1.36L4.331,106.8a9.771,9.771,0,0,0-3.114,3.21A8.84,8.84,0,0,0,0,114.666V126.5l20.318,12.2v-15.64a3.944,3.944,0,0,1,.456-1.8,3.862,3.862,0,0,1,1.469-1.516L37.7,110.456l.966-.585a3.57,3.57,0,0,1,1.972-.551A3.468,3.468,0,0,1,42.587,109.831Z"
              transform="translate(0.003 -27.715)" fill="#2d6278"/>
        <path id="Path_2722" data-name="Path 2722"
              d="M97.054,114.55l-5.644-3.4L71.69,122.989l7.548,4.529a3.8,3.8,0,0,1,1.4,1.36,4.339,4.339,0,0,1,.564,1.952v16.32a3.733,3.733,0,0,1-.49,1.856,4.359,4.359,0,0,1-1.414,1.442L63.17,160.13l19.754,11.859,14.13-8.466a9.785,9.785,0,0,0,3.237-3.3,10.268,10.268,0,0,0,1.244-4.508V122.4a10.016,10.016,0,0,0-1.2-4.556,9.649,9.649,0,0,0-3.278-3.291Z"
              transform="translate(-20.213 -35.555)" fill="#45a0bc"/>
        <path id="Path_2723" data-name="Path 2723" d="M145.867,176.921H132.39V118.34h13.477Z"
              transform="translate(-42.364 -37.856)" fill="#45a0bc"/>
        <path id="Path_2724" data-name="Path 2724"
              d="M211.494,163.084c0,12.825-10.247,22.045-24.384,22.045s-24.289-9.221-24.289-22.4,10.057-22.311,24.289-22.311C201.627,140.42,211.494,149.559,211.494,163.084Zm-35.108-.354c0,8,3.89,12.471,10.819,12.471,6.739,0,10.723-4.474,10.723-12.206,0-8.16-3.8-12.648-10.819-12.648C180.275,150.334,176.386,154.829,176.386,162.73Z"
              transform="translate(-52.102 -44.922)" fill="#45a0bc"/>
        <path id="Path_2725" data-name="Path 2725"
              d="M286.483,184.525H273.665v-4.658c-3.223,4.216-6.548,5.8-12.145,5.8a17.8,17.8,0,0,1-12.145-4.393c-3.135-2.9-4.366-6.5-4.366-12.559V142.1h13.471v23.895c0,4.128.19,5.182,1.428,6.671a7.627,7.627,0,0,0,5.882,2.462,7.109,7.109,0,0,0,5.787-2.462c1.231-1.584,1.421-2.462,1.421-6.671V142.1h13.484Z"
              transform="translate(-78.404 -45.46)" fill="#45a0bc"/>
        <path id="Path_2726" data-name="Path 2726"
              d="M362.375,176.921h-12.92v-4.57c-3.4,4.128-7.024,5.712-12.621,5.712-12.049,0-20.114-8.84-20.114-22.31s8.16-22.48,20.495-22.48c4.93,0,8.445,1.312,11.669,4.386V118.34h13.477Zm-32.361-21.257c0,7.48,3.794,12.294,9.676,12.294s9.683-4.916,9.683-12.117c0-7.555-3.794-12.471-9.683-12.471S330.014,148.2,330.014,155.665Z"
              transform="translate(-101.352 -37.856)" fill="#45a0bc"/>
        <path id="Path_2727" data-name="Path 2727"
              d="M395.16,168.334c0-10.2,7.847-17.544,18.414-17.544,5.862,0,10.757,2.135,13.96,6.011l-5.046,4.651a10.88,10.88,0,0,0-8.527-3.971,10.88,10.88,0,0,0,0,21.76,10.805,10.805,0,0,0,8.527-4.026l5.046,4.658c-3.2,3.924-8.1,6.052-14.008,6.052C403.007,185.878,395.16,178.561,395.16,168.334Z"
              transform="translate(-126.453 -48.241)" fill="#2d6278"/>
        <path id="Path_2728" data-name="Path 2728" d="M454.09,151.65h7.854v33.925H454.09Z"
              transform="translate(-145.311 -48.516)" fill="#2d6278"/>
        <path id="Path_2729" data-name="Path 2729" d="M486.24,158.049H475.36v-6.4h29.566v6.4h-10.88v27.526H486.24Z"
              transform="translate(-152.118 -48.516)" fill="#2d6278"/>
        <path id="Path_2730" data-name="Path 2730"
              d="M541.785,173.553v12.022h-7.854V173.457L520.8,151.65h8.337l9.058,15.069,9.064-15.069h7.711Z"
              transform="translate(-166.659 -48.516)" fill="#2d6278"/>
        <path id="Path_2731" data-name="Path 2731"
              d="M435.485,79.9h-8.629a2.156,2.156,0,0,0,0,4.311h8.629a2.156,2.156,0,1,0,0-4.311Z"
              transform="translate(-135.906 -25.555)" fill="#2d6278"/>
        <path id="Path_2732" data-name="Path 2732"
              d="M435.539,92.58h-8.629a2.162,2.162,0,0,0,0,4.318h8.629a2.162,2.162,0,0,0,0-4.318Z"
              transform="translate(-135.96 -29.613)" fill="#2d6278"/>
        <path id="Path_2733" data-name="Path 2733"
              d="M435.485,105.27h-8.629a2.156,2.156,0,0,0,0,4.311h8.629a2.156,2.156,0,1,0,0-4.311Z"
              transform="translate(-135.906 -33.674)" fill="#2d6278"/>
        <path id="Path_2734" data-name="Path 2734"
              d="M435.539,118h-8.629a2.162,2.162,0,0,0,0,4.318h8.629a2.162,2.162,0,0,0,0-4.318Z"
              transform="translate(-135.96 -37.748)" fill="#2d6278"/>
        <path id="Path_2735" data-name="Path 2735"
              d="M435.485,130.64h-8.629a2.156,2.156,0,1,0,0,4.311h8.629a2.156,2.156,0,1,0,0-4.311Z"
              transform="translate(-135.906 -41.792)" fill="#2d6278"/>
        <path id="Path_2736" data-name="Path 2736"
              d="M522.087,21.131h22.854a6.371,6.371,0,0,0,2.108-12.369,9.822,9.822,0,0,0-17.381-5.114,7.378,7.378,0,0,0-9.52,5.052,6.372,6.372,0,0,0,1.917,12.43Zm0-8.411a2.156,2.156,0,0,0,2.156-2.162,3.019,3.019,0,0,1,4.842-2.394,2.156,2.156,0,0,0,3.264-.768,5.5,5.5,0,0,1,10.411,2.931,2.169,2.169,0,0,0,2.149,2.373h.041a2.04,2.04,0,0,1,0,4.08H522.087a2.04,2.04,0,0,1,0-4.08Z"
              transform="translate(-165.043 0.01)" fill="#2d6278"/>
        <path id="Path_2737" data-name="Path 2737" d="M473.4,80.472h0a2.181,2.181,0,1,1,0-.007Z"
              transform="translate(-150.108 -25.046)" fill="#2d6278"/>
        <path id="Path_2738" data-name="Path 2738"
              d="M473.421,45.7V29.75l12.92-13.6V29.628h-2.135a2.156,2.156,0,0,0-2.156,2.156v11.05a2.156,2.156,0,0,0,2.156,2.156h2.156V50.02h-2.156a2.156,2.156,0,1,0,0,4.311h2.156v5.032h-2.156a2.156,2.156,0,1,0,0,4.311h2.156v5.032h-2.156a2.156,2.156,0,1,0,0,4.311h2.156V78.05h-2.156a2.156,2.156,0,1,0,0,4.311h2.156v5.032h-2.156a2.156,2.156,0,1,0,0,4.311h2.156v5.528h4.311V82.361h19.849V97.232h4.311V70.563h12.92V97.232h4.311V55.467a2.128,2.128,0,0,0-.6-1.482l-8.024-8.432V40.229a2.156,2.156,0,0,0-4.311,0v5.324l-4.311,4.529V44.723a2.155,2.155,0,0,0-.775-1.652l-15.531-12.92a2.156,2.156,0,0,0-3.536,1.652V78.043h-4.311V42.833a2.156,2.156,0,0,0-2.156-2.156h-2.156V33.946h2.156a2.156,2.156,0,0,0,2.156-2.162V2.136a2.156,2.156,0,0,0-4.311,0V9.9L469.722,27.4a2.156,2.156,0,0,0-.592,1.489V45.7a2.156,2.156,0,0,0,4.291,0Zm41.4,10.628,6.467-6.8,6.474,6.8v1.3h-12.92Zm0,5.61h12.92v4.311h-12.92ZM499.3,73.018H501a2.156,2.156,0,1,0,0-4.311h-1.7V63.675H501a2.156,2.156,0,1,0,0-4.311h-1.7V54.332H501a2.156,2.156,0,1,0,0-4.311h-1.7v-13.6l11.22,9.316V78.05H499.3Z"
              transform="translate(-150.124 0.02)" fill="#2d6278"/>
        <path id="Path_2739" data-name="Path 2739"
              d="M516.665,127.24h-8.622a2.162,2.162,0,0,0-2.162,2.162v8.554H510.2v-6.392h4.311v6.392h4.311V129.4a2.155,2.155,0,0,0-2.156-2.162Z"
              transform="translate(-161.885 -40.704)" fill="#2d6278"/>
        <path id="Path_2740" data-name="Path 2740"
              d="M416.325,105.559V58.34h21.563v47.219H442.2V84.214h12.92v21.345h4.311V73.436a2.156,2.156,0,0,0-2.156-2.162h-15.1V47.556a2.156,2.156,0,0,0-2.156-2.156h-6.467V28.149A2.156,2.156,0,0,0,431.421,26h-8.629a2.156,2.156,0,0,0-2.156,2.156V45.4h-6.467A2.156,2.156,0,0,0,412,47.556v58ZM442.2,75.6h12.92V79.91H442.2ZM424.92,30.3h4.318V45.4H424.92Zm-8.6,19.407h21.563v4.311H416.325Z"
              transform="translate(-131.842 -8.307)" fill="#2d6278"/>
    </g>
</svg>
