<?xml version="1.0" encoding="utf-8"?>
<!-- Generator: Adobe Illustrator 26.1.0, SVG Export Plug-In . SVG Version: 6.00 Build 0)  -->
<svg version="1.1" id="QloudEstateSimpleLogo" xmlns="http://www.w3.org/2000/svg" xmlns:xlink="http://www.w3.org/1999/xlink"
	 x="0px" y="0px" viewBox="0 0 209.5 45.2" style="enable-background:new 0 0 209.5 45.2;" xml:space="preserve">
<style type="text/css">
	.st0{fill:#45A0BC;}
	.st1{fill:#2D6278;}
	.st2{fill:#9E9B9B;}
</style>
<g id="Layer_1">
	<path id="Path_2734" class="st0" d="M44.2,37.6h-5.8V12.4h5.8L44.2,37.6z"/>
	<path id="Path_2735" class="st0" d="M68.2,28.6c0,5.5-4.4,9.5-10.5,9.5s-10.4-4-10.4-9.6s4.3-9.6,10.4-9.6
		C63.9,18.9,68.2,22.8,68.2,28.6z M53.1,28.4c0,3.4,1.7,5.3,4.6,5.3c2.9,0,4.6-1.9,4.6-5.2c0-3.5-1.6-5.4-4.6-5.4
		C54.8,23.1,53.1,25.1,53.1,28.4L53.1,28.4z"/>
	<path id="Path_2736" class="st0" d="M89.1,37.6h-5.5v-2c-1.2,1.7-3.2,2.6-5.2,2.5c-1.9,0-3.8-0.6-5.2-1.9c-1.3-1.3-1.9-2.8-1.9-5.4
		V19.4H77v10.3c0,1.8,0.1,2.2,0.6,2.9c0.6,0.7,1.6,1.1,2.5,1.1c0.9,0.1,1.9-0.3,2.5-1.1c0.5-0.7,0.6-1.1,0.6-2.9V19.4h5.8V37.6z"/>
	<path id="Path_2737" class="st0" d="M111.8,37.6h-5.5v-2c-1.3,1.7-3.3,2.6-5.4,2.4c-5.2,0-8.6-3.8-8.6-9.6s3.5-9.6,8.8-9.6
		c1.9-0.1,3.7,0.6,5,1.9v-8.3h5.8L111.8,37.6z M97.9,28.4c0,3.2,1.6,5.3,4.1,5.3c2.5,0,4.1-2.1,4.1-5.2c0-3.2-1.6-5.3-4.1-5.3
		C99.5,23.2,97.9,25.2,97.9,28.4L97.9,28.4z"/>
	<path id="Path_2738" class="st1" d="M12.6,28.7l-3.1-1.8c-0.1,0-0.1-0.1-0.1-0.1L0,21.2v7.9c0,0.8,0.2,1.5,0.7,2.2
		c0.4,0.5,0.8,0.8,1.3,1.2l13.4,8c0.6,0.4,1.3,0.6,2,0.6c0.7,0,1.4-0.2,2-0.5l0.9-0.5c0.2-0.1,0.3-0.2,0.5-0.2c0.2,0,0.4,0,0.6,0
		L34.7,42L12.6,28.7z"/>
	<path id="Path_2739" class="st1" d="M18.2,12.9l2.8,1.7l8.4-5l-10-6C18.8,3.2,18.1,3,17.3,3c-0.7,0-1.4,0.2-2,0.6l-13.5,8
		c-0.5,0.3-1,0.8-1.3,1.4C0.2,13.6,0,14.3,0,15v5l8.7,5.2v-6.7c0-0.3,0.1-0.5,0.2-0.8c0.1-0.3,0.4-0.5,0.6-0.6l6.6-4l0.4-0.2
		c0.3-0.2,0.5-0.2,0.8-0.2C17.6,12.7,17.9,12.8,18.2,12.9L18.2,12.9z"/>
	<path id="Path_2740" class="st0" d="M32.8,11.6l-2.4-1.4L22,15.2l3.2,1.9c0.2,0.1,0.5,0.3,0.6,0.6c0.1,0.3,0.2,0.5,0.2,0.8v7
		c0,0.3-0.1,0.5-0.2,0.8c-0.1,0.3-0.4,0.5-0.6,0.6L18.3,31l8.4,5.1l6-3.6c0.6-0.4,1-0.8,1.4-1.4c0.3-0.6,0.5-1.2,0.5-1.9V14.9
		c0-0.7-0.2-1.3-0.5-1.9C33.8,12.4,33.4,11.9,32.8,11.6z"/>
	<path id="Path_2741" class="st1" d="M126.4,35.3V38h-11.2V23.6h10.9v2.7h-7.6v3.1h6.7V32h-6.7v3.3L126.4,35.3z"/>
	<path id="Path_2742" class="st1" d="M127.7,37l1.1-2.3c1.2,0.7,2.5,1.1,3.9,1.1c1.5,0,2-0.4,2-1c0-1.8-6.7,0-6.7-4.4
		c0-2.1,1.9-3.6,5.1-3.6c1.5,0,3,0.3,4.3,1l-1.1,2.3c-1-0.6-2.1-0.8-3.2-0.8c-1.4,0-2.1,0.5-2.1,1c0,1.9,6.7,0.1,6.7,4.4
		c0,2.1-1.9,3.5-5.2,3.5C130.8,38.2,129.2,37.8,127.7,37z"/>
	<path id="Path_2743" class="st1" d="M146.9,37.5c-0.8,0.5-1.7,0.7-2.6,0.7c-2.6,0-4.2-1.3-4.2-4v-4.6h-1.7v-2.5h1.7v-2.7h3.2v2.7
		h2.8v2.5h-2.8v4.5c-0.1,0.7,0.4,1.4,1.1,1.5c0.1,0,0.2,0,0.3,0c0.5,0,0.9-0.1,1.3-0.4L146.9,37.5z"/>
	<path id="Path_2744" class="st1" d="M158.6,31.7V38h-3v-1.4c-0.6,1-1.8,1.6-3.4,1.6c-2.6,0-4.1-1.4-4.1-3.4s1.4-3.3,4.8-3.3h2.6
		c0-1.4-0.8-2.2-2.6-2.2c-1.2,0-2.3,0.4-3.2,1.1l-1.1-2.3c1.4-0.9,3.1-1.4,4.8-1.3C156.6,26.8,158.6,28.3,158.6,31.7z M155.3,34.5
		v-1.1h-2.2c-1.5,0-2,0.6-2,1.3c0,0.8,0.7,1.3,1.8,1.3C154,36.1,155,35.5,155.3,34.5L155.3,34.5z"/>
	<path id="Path_2745" class="st1" d="M168.7,37.5c-0.8,0.5-1.7,0.7-2.6,0.7c-2.6,0-4.2-1.3-4.2-4v-4.6h-1.7v-2.5h1.7v-2.7h3.2v2.7
		h2.8v2.5h-2.8v4.5c-0.1,0.7,0.4,1.4,1.1,1.5c0.1,0,0.2,0,0.3,0c0.5,0,0.9-0.1,1.3-0.4L168.7,37.5z"/>
	<path id="Path_2746" class="st1" d="M181,33.4h-8.4c0.4,1.4,1.7,2.4,3.2,2.2c1,0,2-0.3,2.8-1.1l1.7,1.9c-1.2,1.2-2.9,1.9-4.6,1.8
		c-3.8,0-6.3-2.4-6.3-5.7c0-3.1,2.5-5.7,5.6-5.7c0.1,0,0.2,0,0.3,0c3-0.2,5.6,2.2,5.8,5.2c0,0.2,0,0.4,0,0.5
		C181,32.8,181,33.1,181,33.4z M172.5,31.5h5.5c-0.3-1.5-1.7-2.5-3.2-2.3C173.6,29.4,172.7,30.3,172.5,31.5z"/>
</g>
<g>
	<path class="st2" d="M183.6,29.1h3c1.6,0,2.5,0.8,2.5,2.1c0,1.1-0.7,1.6-1.2,1.8c0.6,0.2,1.4,0.8,1.4,2.1c0,1.6-1.2,2.5-2.9,2.5
		h-2.9V29.1z M186.4,32.6c1.1,0,1.6-0.4,1.6-1.3c0-0.8-0.5-1.3-1.5-1.3h-1.7v2.5H186.4z M184.8,36.6h1.7c1,0,1.8-0.5,1.8-1.6
		c0-1-0.6-1.6-1.9-1.6h-1.6V36.6z"/>
	<path class="st2" d="M195.9,33.6h-3.8v2.9h4.2l-0.2,1h-5.1v-8.4h5.1v1h-3.9v2.5h3.8V33.6z"/>
	<path class="st2" d="M199.4,30.1H197v-1h6.1v1h-2.4v7.4h-1.2V30.1z"/>
	<path class="st2" d="M204.4,35.1l-0.8,2.5h-1.2c0.5-1.5,2.2-6.8,2.7-8.4h1.5l2.8,8.4h-1.3l-0.8-2.5H204.4z M207.1,34.1
		c-0.7-2.1-1.1-3.3-1.3-4h0c-0.2,1-0.7,2.3-1.2,4H207.1z"/>
</g>
</svg>
