<svg id="qloudCityMobile" xmlns="http://www.w3.org/2000/svg" width="24" height="24" viewBox="0 0 24 24">
  <rect id="Rectangle_10110" data-name="Rectangle 10110" width="24" height="24" fill="none"/>
  <g id="Group_13168" data-name="Group 13168" transform="translate(2 2)">
    <path id="Path_2766" data-name="Path 2766" d="M307.838,324.585a.318.318,0,1,0-.637,0v.637a.318.318,0,1,0,.637,0Z" transform="translate(-295.736 -312.165)" fill="#3190af"/>
    <path id="Path_2767" data-name="Path 2767" d="M307.518,426.667a.319.319,0,0,0-.318.318v1.274a.318.318,0,1,0,.637,0v-1.274A.319.319,0,0,0,307.518,426.667Z" transform="translate(-295.735 -410.743)" fill="#3190af"/>
    <path id="Path_2768" data-name="Path 2768" d="M341.971,222.185a.318.318,0,1,0-.637,0v.637a.318.318,0,1,0,.637,0Z" transform="translate(-328.595 -213.586)" fill="#3190af"/>
    <path id="Path_2769" data-name="Path 2769" d="M307.838,273.385a.318.318,0,1,0-.637,0v.637a.318.318,0,1,0,.637,0Z" transform="translate(-295.736 -262.876)" fill="#3190af"/>
    <path id="Path_2770" data-name="Path 2770" d="M307.837,375.785a.318.318,0,0,0-.637,0v.637a.318.318,0,1,0,.637,0v-.637Z" transform="translate(-295.735 -361.454)" fill="#3190af"/>
    <path id="Path_2771" data-name="Path 2771" d="M341.971,273.385a.318.318,0,1,0-.637,0v.637a.318.318,0,1,0,.637,0Z" transform="translate(-328.595 -262.876)" fill="#3190af"/>
    <path id="Path_2772" data-name="Path 2772" d="M273.7,222.185a.318.318,0,1,0-.637,0v.637a.318.318,0,1,0,.637,0Z" transform="translate(-262.876 -213.586)" fill="#3190af"/>
    <path id="Path_2773" data-name="Path 2773" d="M307.838,222.185a.318.318,0,1,0-.637,0v.637a.318.318,0,1,0,.637,0Z" transform="translate(-295.736 -213.586)" fill="#3190af"/>
    <path id="Path_2774" data-name="Path 2774" d="M341.971,120.422v-.637a.318.318,0,1,0-.637,0v.637a.318.318,0,1,0,.637,0Z" transform="translate(-328.595 -115.008)" fill="#3190af"/>
    <path id="Path_2775" data-name="Path 2775" d="M273.7,273.385a.318.318,0,1,0-.637,0v.637a.318.318,0,1,0,.637,0Z" transform="translate(-262.876 -262.876)" fill="#3190af"/>
    <path id="Path_2776" data-name="Path 2776" d="M376.1,119.785a.318.318,0,1,0-.637,0v.637a.318.318,0,1,0,.637,0Z" transform="translate(-361.454 -115.008)" fill="#3190af"/>
    <path id="Path_2777" data-name="Path 2777" d="M273.385,324.267a.319.319,0,0,0-.318.318v.637a.318.318,0,1,0,.637,0v-.637A.319.319,0,0,0,273.385,324.267Z" transform="translate(-262.876 -312.165)" fill="#3190af"/>
    <path id="Path_2778" data-name="Path 2778" d="M410.237,375.785a.319.319,0,0,0-.637,0v.637a.318.318,0,0,0,.637,0v-.637Z" transform="translate(-394.313 -361.454)" fill="#3190af"/>
    <path id="Path_2779" data-name="Path 2779" d="M409.918,426.667a.319.319,0,0,0-.318.318v1.274a.318.318,0,0,0,.637,0v-1.274A.319.319,0,0,0,409.918,426.667Z" transform="translate(-394.313 -410.743)" fill="#3190af"/>
    <path id="Path_2780" data-name="Path 2780" d="M444.052,324.267a.319.319,0,0,0-.318.318v.637a.318.318,0,1,0,.637,0v-.637A.319.319,0,0,0,444.052,324.267Z" transform="translate(-427.173 -312.165)" fill="#3190af"/>
    <path id="Path_2781" data-name="Path 2781" d="M307.518,55.022a.319.319,0,0,0,.318-.318V53.36l3.185-.8v5.325a.319.319,0,0,0,.207.3l2.341.878v3.283a.318.318,0,0,0,.637,0v-3.5a.319.319,0,0,0-.207-.3l-2.341-.878V51.518a.318.318,0,1,0-.637,0v.388l-3.581.9a.318.318,0,0,0-.241.309V54.7A.319.319,0,0,0,307.518,55.022Z" transform="translate(-295.735 -49.289)" fill="#3190af"/>
    <path id="Path_2782" data-name="Path 2782" d="M444.371,273.385a.318.318,0,1,0-.637,0v.637a.318.318,0,1,0,.637,0Z" transform="translate(-427.173 -262.876)" fill="#3190af"/>
    <path id="Path_2783" data-name="Path 2783" d="M410.238,273.385a.318.318,0,0,0-.637,0v.637a.318.318,0,0,0,.637,0Z" transform="translate(-394.314 -262.876)" fill="#3190af"/>
    <path id="Path_2784" data-name="Path 2784" d="M341.971,375.785a.318.318,0,0,0-.637,0v.637a.318.318,0,1,0,.637,0Z" transform="translate(-328.595 -361.454)" fill="#3190af"/>
    <path id="Path_2785" data-name="Path 2785" d="M410.238,324.585a.318.318,0,0,0-.637,0v.637a.318.318,0,0,0,.637,0Z" transform="translate(-394.314 -312.165)" fill="#3190af"/>
    <path id="Path_2786" data-name="Path 2786" d="M341.653,426.667a.319.319,0,0,0-.318.318v1.274a.318.318,0,1,0,.637,0v-1.274A.319.319,0,0,0,341.653,426.667Z" transform="translate(-328.595 -410.743)" fill="#3190af"/>
    <path id="Path_2787" data-name="Path 2787" d="M341.971,324.585a.318.318,0,1,0-.637,0v.637a.318.318,0,1,0,.637,0Z" transform="translate(-328.595 -312.165)" fill="#3190af"/>
    <path id="Path_2788" data-name="Path 2788" d="M244.347,165.7a.319.319,0,0,0,.318-.318V155.193a.319.319,0,0,0-.241-.309l-5.1-1.274a.319.319,0,0,0-.4.309v7.007a.318.318,0,1,0,.637,0v-6.6l4.459,1.115v9.943A.319.319,0,0,0,244.347,165.7Z" transform="translate(-230.016 -147.868)" fill="#3190af"/>
    <path id="Path_2789" data-name="Path 2789" d="M171.3,170.985a.318.318,0,1,0-.637,0v.637a.318.318,0,1,0,.637,0Z" transform="translate(-164.297 -164.297)" fill="#3190af"/>
    <path id="Path_2790" data-name="Path 2790" d="M171.3,119.785a.318.318,0,0,0-.637,0v.637a.318.318,0,0,0,.637,0Z" transform="translate(-164.297 -115.008)" fill="#3190af"/>
    <path id="Path_2791" data-name="Path 2791" d="M103.037,375.785a.318.318,0,0,0-.637,0v.637a.318.318,0,1,0,.637,0v-.637Z" transform="translate(-98.578 -361.454)" fill="#3190af"/>
    <path id="Path_2792" data-name="Path 2792" d="M34.452,241.482a.319.319,0,0,0,.318-.318v-1.592h3.185v7.962a.318.318,0,0,0,.637,0v-8.28a.319.319,0,0,0-.318-.318H34.451a.319.319,0,0,0-.318.318v1.911A.319.319,0,0,0,34.452,241.482Z" transform="translate(-32.859 -230.016)" fill="#3190af"/>
    <path id="Path_2793" data-name="Path 2793" d="M136.533,170.985v.637a.318.318,0,1,0,.637,0v-.637a.318.318,0,1,0-.637,0Z" transform="translate(-131.437 -164.297)" fill="#3190af"/>
    <path id="Path_2794" data-name="Path 2794" d="M171.3,68.585a.318.318,0,1,0-.637,0v.637a.318.318,0,1,0,.637,0Z" transform="translate(-164.297 -65.719)" fill="#3190af"/>
    <path id="Path_2795" data-name="Path 2795" d="M102.718,426.667a.319.319,0,0,0-.318.318v1.274a.318.318,0,1,0,.637,0v-1.274A.319.319,0,0,0,102.718,426.667Z" transform="translate(-98.578 -410.743)" fill="#3190af"/>
    <path id="Path_2796" data-name="Path 2796" d="M18.79,330.636h-.637V328.68a1.274,1.274,0,1,0-.637,0v1.956H9.554V329.33a1.592,1.592,0,1,0-.637,0v1.306H1.911v-3.217a1.592,1.592,0,1,0-.637,0v3.217H.318a.318.318,0,0,0,0,.637H18.79a.318.318,0,0,0,0-.637ZM.637,325.858a.955.955,0,1,1,.955.955A.957.957,0,0,1,.637,325.858Zm7.644,1.911a.955.955,0,1,1,.955.955A.957.957,0,0,1,8.281,327.769Zm8.917-.318a.637.637,0,1,1,.637.637A.638.638,0,0,1,17.2,327.451Z" transform="translate(0 -312.164)" fill="#3190af"/>
    <path id="Path_2797" data-name="Path 2797" d="M68.267,426.985v1.274a.318.318,0,1,0,.637,0v-1.274a.318.318,0,0,0-.637,0Z" transform="translate(-65.719 -410.743)" fill="#3190af"/>
    <path id="Path_2798" data-name="Path 2798" d="M103.038,273.385a.318.318,0,1,0-.637,0v.637a.318.318,0,1,0,.637,0Z" transform="translate(-98.579 -262.876)" fill="#3190af"/>
    <path id="Path_2799" data-name="Path 2799" d="M103.038,324.585a.318.318,0,1,0-.637,0v.637a.318.318,0,1,0,.637,0Z" transform="translate(-98.579 -312.165)" fill="#3190af"/>
    <path id="Path_2800" data-name="Path 2800" d="M68.267,273.385v.637a.318.318,0,1,0,.637,0v-.637a.318.318,0,1,0-.637,0Z" transform="translate(-65.719 -262.876)" fill="#3190af"/>
    <path id="Path_2801" data-name="Path 2801" d="M171.3,324.585a.318.318,0,1,0-.637,0v.637a.318.318,0,1,0,.637,0Z" transform="translate(-164.297 -312.165)" fill="#3190af"/>
    <path id="Path_2802" data-name="Path 2802" d="M205.438,222.185a.318.318,0,0,0-.637,0v.637a.318.318,0,0,0,.637,0Z" transform="translate(-197.157 -213.586)" fill="#3190af"/>
    <path id="Path_2803" data-name="Path 2803" d="M205.438,170.985a.318.318,0,1,0-.637,0v.637a.318.318,0,1,0,.637,0Z" transform="translate(-197.157 -164.297)" fill="#3190af"/>
    <path id="Path_2804" data-name="Path 2804" d="M205.438,273.385a.318.318,0,1,0-.637,0v.637a.318.318,0,1,0,.637,0Z" transform="translate(-197.157 -262.876)" fill="#3190af"/>
    <path id="Path_2805" data-name="Path 2805" d="M205.118,324.267a.319.319,0,0,0-.318.318v.637a.318.318,0,1,0,.637,0v-.637A.319.319,0,0,0,205.118,324.267Z" transform="translate(-197.156 -312.165)" fill="#3190af"/>
    <path id="Path_2806" data-name="Path 2806" d="M205.438,119.785a.318.318,0,0,0-.637,0v.637a.318.318,0,0,0,.637,0Z" transform="translate(-197.157 -115.008)" fill="#3190af"/>
    <path id="Path_2807" data-name="Path 2807" d="M171.3,375.785a.318.318,0,0,0-.637,0v.637a.318.318,0,1,0,.637,0Z" transform="translate(-164.297 -361.454)" fill="#3190af"/>
    <path id="Path_2808" data-name="Path 2808" d="M102.719,8.281a.319.319,0,0,0,.318-.318V5.611l1.1-.549a.319.319,0,0,0,.176-.285V2.108l1.592-.8,1.592.8V4.777a.318.318,0,0,0,.637,0V1.911a.319.319,0,0,0-.176-.285L106.223.759V.318a.318.318,0,0,0-.637,0v.44l-1.735.867a.319.319,0,0,0-.176.285V4.58l-1.1.549a.319.319,0,0,0-.176.285V7.962A.319.319,0,0,0,102.719,8.281Z" transform="translate(-98.579)" fill="#3190af"/>
    <path id="Path_2809" data-name="Path 2809" d="M171.3,273.385a.318.318,0,1,0-.637,0v.637a.318.318,0,1,0,.637,0Z" transform="translate(-164.297 -262.876)" fill="#3190af"/>
    <path id="Path_2810" data-name="Path 2810" d="M170.985,426.667a.319.319,0,0,0-.318.318v1.274a.318.318,0,1,0,.637,0v-1.274A.319.319,0,0,0,170.985,426.667Z" transform="translate(-164.297 -410.743)" fill="#3190af"/>
    <path id="Path_2811" data-name="Path 2811" d="M205.438,68.585a.318.318,0,1,0-.637,0v.637a.318.318,0,1,0,.637,0Z" transform="translate(-197.157 -65.719)" fill="#3190af"/>
    <path id="Path_2812" data-name="Path 2812" d="M171.3,222.185a.318.318,0,0,0-.637,0v.637a.318.318,0,0,0,.637,0Z" transform="translate(-164.297 -213.586)" fill="#3190af"/>
  </g>
</svg>
