<svg id="verify-icon" xmlns="http://www.w3.org/2000/svg" width="48" height="40" viewBox="0 0 48 40">
  <rect id="Rectangle_10060" data-name="Rectangle 10060" width="48" height="40" fill="none"/>
  <g id="id-card" transform="translate(4 3)">
    <path id="Path_4497" data-name="Path 4497" d="M40,130.759v21.379a2.758,2.758,0,0,1-2.759,2.759H2.759A2.758,2.758,0,0,1,0,152.138V130.759A2.758,2.758,0,0,1,2.759,128H15.172" transform="translate(0 -121.103)" fill="#9fc9d3"/>
    <path id="Path_4498" data-name="Path 4498" d="M218.348,45.128a1.2,1.2,0,0,1,.686,1.077v6.322A18.718,18.718,0,0,1,211.628,67.2l-4.09,3.238a1.485,1.485,0,0,1-1.834,0l-4.09-3.238a18.718,18.718,0,0,1-7.407-14.676V46.206a1.2,1.2,0,0,1,.686-1.077l10.617-5.15a2.551,2.551,0,0,1,2.221,0Z" transform="translate(-179.035 -39.724)" fill="#24ae5f"/>
    <ellipse id="Ellipse_1112" data-name="Ellipse 1112" cx="6.207" cy="6.179" rx="6.207" ry="6.179" transform="translate(21.379 6.952)" fill="#fff"/>
    <path id="Path_4499" data-name="Path 4499" d="M317.2,185.76a.687.687,0,0,1-.488-.2l-1.129-1.129a.69.69,0,0,1,.975-.975l.641.641,2.9-2.9a.69.69,0,0,1,.975.975l-3.386,3.386A.687.687,0,0,1,317.2,185.76Z" transform="translate(-290.744 -169.961)" fill="#24ae5f"/>
    <g id="Group_13075" data-name="Group 13075" transform="translate(2.915 11.034)">
      <path id="Path_4500" data-name="Path 4500" d="M48.878,376.551H38a.69.69,0,0,1,0-1.379H48.878a.69.69,0,0,1,0,1.379Z" transform="translate(-37.31 -360)" fill="#3f5c6c"/>
      <path id="Path_4501" data-name="Path 4501" d="M43.361,411.861H38a.69.69,0,0,1,0-1.379h5.361a.69.69,0,0,1,0,1.379Z" transform="translate(-37.31 -392.551)" fill="#3f5c6c"/>
      <path id="Path_4502" data-name="Path 4502" d="M54.061,191.543l-2.4-1.181a.9.9,0,0,1-.505-.806v-.927a3.6,3.6,0,0,0,.227-.287,5.411,5.411,0,0,0,.745-1.479.744.744,0,0,0,.533-.706v-.989a.733.733,0,0,0-.251-.548v-1.43s.3-2.225-2.759-2.225S46.9,183.19,46.9,183.19v1.43a.733.733,0,0,0-.251.548v.989a.739.739,0,0,0,.347.622,4.88,4.88,0,0,0,.907,1.85v.9a.9.9,0,0,1-.476.791l-2.237,1.2a1.979,1.979,0,0,0-1.048,1.741v.8H55.173v-.752A1.981,1.981,0,0,0,54.061,191.543Z" transform="translate(-43.605 -180.965)" fill="#3f5c6c"/>
    </g>
  </g>
</svg>
