<svg id="view_public_profile_icon" xmlns="http://www.w3.org/2000/svg" width="48" height="48" viewBox="0 0 48 48">
  <g id="Rectangle_9746" data-name="Rectangle 9746" fill="#f8fcff" stroke="#f3f3f3" stroke-width="1">
    <rect width="48" height="48" rx="8" stroke="none"/>
    <rect x="0.5" y="0.5" width="47" height="47" rx="7.5" fill="none"/>
  </g>
  <g id="Group_11981" data-name="Group 11981" transform="translate(-24 -469)">
    <rect id="Rectangle_9762" data-name="Rectangle 9762" width="32" height="32" transform="translate(32 477)" fill="none"/>
    <g id="man-user" transform="translate(-2.896 481)">
      <g id="Path_3665" data-name="Path 3665" transform="translate(-58.345)" fill="none">
        <path d="M109.367,11.738c2.668,0,4.832-2.628,4.832-5.869S113.488,0,109.367,0s-4.832,2.628-4.832,5.869S106.7,11.738,109.367,11.738Z" stroke="none"/>
        <path d="M 109.3668823242188 10.23757648468018 C 110.2008895874023 10.23757648468018 111.0029830932617 9.821236610412598 111.6253890991211 9.06524658203125 C 112.3174896240234 8.224626541137695 112.6986389160156 7.089446544647217 112.6986389160156 5.868816375732422 C 112.6986389160156 4.252126216888428 112.49951171875 3.193876266479492 112.0719680786133 2.538416385650635 C 111.7811889648438 2.092636346817017 111.1844177246094 1.499996304512024 109.3668823242188 1.499996304512024 C 107.5493087768555 1.499996304512024 106.9525146484375 2.092656373977661 106.6617202758789 2.538446426391602 C 106.2341384887695 3.193916320800781 106.0350036621094 4.252166271209717 106.0350036621094 5.868816375732422 C 106.0350036621094 7.089456558227539 106.4161605834961 8.224626541137695 107.1082534790039 9.06523609161377 C 107.7306900024414 9.821236610412598 108.5328140258789 10.23757648468018 109.3668823242188 10.23757648468018 M 109.3668823242188 11.73757648468018 C 106.6983642578125 11.73757648468018 104.5350036621094 9.110055923461914 104.5350036621094 5.868816375732422 C 104.5350036621094 2.627516269683838 105.2453918457031 -3.665008534881053e-06 109.3668823242188 -3.665008534881053e-06 C 113.4883728027344 -3.665008534881053e-06 114.1986389160156 2.627516269683838 114.1986389160156 5.868816375732422 C 114.1986389160156 9.110055923461914 112.0352783203125 11.73757648468018 109.3668823242188 11.73757648468018 Z" stroke="none" fill="#57c1e3"/>
      </g>
      <path id="Path_3666" data-name="Path 3666" d="M41.9,300.473c0-.2,0-.056,0,0Z" transform="translate(0 -279.775)" fill="none" stroke="#57c1e3" stroke-width="1.5"/>
      <path id="Path_3667" data-name="Path 3667" d="M308.085,301.666c0-.054,0-.375,0,0Z" transform="translate(-247.937 -280.813)" fill="none" stroke="#57c1e3" stroke-width="1.5"/>
      <path id="Path_3668" data-name="Path 3668" d="M60.15,186.014c-.089-5.646-.827-7.255-6.47-8.274a3.964,3.964,0,0,1-5.292,0c-5.581,1.007-6.364,2.592-6.466,8.09-.008.449-.012.473-.014.42,0,.1,0,.278,0,.593,0,0,1.343,2.708,9.125,2.708s9.125-2.708,9.125-2.708c0-.2,0-.343,0-.439A3.63,3.63,0,0,1,60.15,186.014Z" transform="translate(-0.012 -165.552)" fill="none" stroke="#57c1e3" stroke-width="1.5"/>
    </g>
  </g>
</svg>
