<svg id="ac-heating-icon" xmlns="http://www.w3.org/2000/svg" width="80" height="80" viewBox="0 0 80 80">
  <rect id="_129330626" data-name="129330626" width="80" height="80" rx="4" fill="none"/>
  <g id="air-conditioner-4" transform="translate(8 -86.672)">
    <g id="Group_10000" data-name="Group 10000" transform="translate(0 108.672)">
      <g id="Group_9999" data-name="Group 9999">
        <path id="Path_3080" data-name="Path 3080" d="M60.8,108.672H3.2a3.2,3.2,0,0,0-3.2,3.2v16.951a3.319,3.319,0,0,0,3.315,3.315h57.37A3.319,3.319,0,0,0,64,128.823V111.872A3.2,3.2,0,0,0,60.8,108.672Zm1.067,20.151a1.183,1.183,0,0,1-1.182,1.182H3.315a1.183,1.183,0,0,1-1.182-1.182V111.872A1.067,1.067,0,0,1,3.2,110.805H60.8a1.067,1.067,0,0,1,1.067,1.067Z" transform="translate(0 -108.672)" fill="#3190af"/>
        <path id="Path_3081" data-name="Path 3081" d="M92.267,212.672h-51.2A1.067,1.067,0,0,0,40,213.739v4.267a1.067,1.067,0,0,0,1.067,1.067h51.2a1.067,1.067,0,0,0,1.067-1.067v-4.267A1.067,1.067,0,0,0,92.267,212.672Zm-43.733,4.267h-6.4v-2.133h6.4Zm8.533,0h-6.4v-2.133h6.4Zm8.533,0H59.2v-2.133h6.4Zm8.533,0h-6.4v-2.133h6.4Zm8.533,0h-6.4v-2.133h6.4Zm8.533,0H84.8v-2.133h6.4Z" transform="translate(-34.667 -198.805)" fill="#3190af"/>
        <rect id="Rectangle_9533" data-name="Rectangle 9533" width="5" height="3" transform="translate(5 6)" fill="#3190af"/>
        <rect id="Rectangle_9534" data-name="Rectangle 9534" width="2" height="3" transform="translate(12 6)" fill="#3190af"/>
        <rect id="Rectangle_9535" data-name="Rectangle 9535" width="1" height="1" transform="translate(58 5)" fill="#3190af"/>
        <rect id="Rectangle_9536" data-name="Rectangle 9536" width="1" height="2" transform="translate(58 8)" fill="#3190af"/>
        <rect id="Rectangle_9537" data-name="Rectangle 9537" width="3" height="1" transform="translate(54 5)" fill="#3190af"/>
        <path id="Path_3082" data-name="Path 3082" d="M67.754,299.283a1.838,1.838,0,0,1,0-2.758l-1.508-1.508a3.969,3.969,0,0,0-.164,5.611q.08.084.164.164a1.077,1.077,0,0,1,.417.893c-.07.731-1,1.517-1.325,1.734l.6.885.592.887a5.189,5.189,0,0,0,2.26-3.294A3.179,3.179,0,0,0,67.754,299.283Z" transform="translate(-56.333 -270.17)" fill="#3190af"/>
        <path id="Path_3083" data-name="Path 3083" d="M131.754,299.283a1.838,1.838,0,0,1,0-2.758l-1.508-1.508a3.969,3.969,0,0,0-.164,5.611q.08.084.164.164a1.077,1.077,0,0,1,.417.893c-.07.731-1,1.517-1.325,1.734l.6.885.592.887a5.189,5.189,0,0,0,2.26-3.294A3.179,3.179,0,0,0,131.754,299.283Z" transform="translate(-111.8 -270.17)" fill="#3190af"/>
        <path id="Path_3084" data-name="Path 3084" d="M195.754,299.283a1.838,1.838,0,0,1,0-2.758l-1.508-1.508a3.969,3.969,0,0,0-.164,5.611q.08.084.164.164a1.077,1.077,0,0,1,.417.893c-.07.731-1,1.517-1.325,1.734l.6.885.592.887a5.189,5.189,0,0,0,2.26-3.294A3.179,3.179,0,0,0,195.754,299.283Z" transform="translate(-167.267 -270.17)" fill="#3190af"/>
        <path id="Path_3085" data-name="Path 3085" d="M259.754,299.283a1.838,1.838,0,0,1,0-2.758l-1.508-1.508a3.969,3.969,0,0,0-.164,5.611q.08.084.164.164a1.077,1.077,0,0,1,.417.893c-.07.731-1,1.517-1.325,1.734l.6.885.592.887a5.189,5.189,0,0,0,2.26-3.294A3.179,3.179,0,0,0,259.754,299.283Z" transform="translate(-222.733 -270.17)" fill="#3190af"/>
        <path id="Path_3086" data-name="Path 3086" d="M323.754,299.283a1.838,1.838,0,0,1,0-2.758l-1.508-1.508a3.969,3.969,0,0,0-.164,5.611q.08.084.164.164a1.077,1.077,0,0,1,.417.893c-.07.731-1,1.517-1.325,1.734l.6.885.592.887a5.188,5.188,0,0,0,2.26-3.294A3.179,3.179,0,0,0,323.754,299.283Z" transform="translate(-278.2 -270.17)" fill="#3190af"/>
        <path id="Path_3087" data-name="Path 3087" d="M387.754,299.283a1.838,1.838,0,0,1,0-2.758l-1.508-1.508a3.969,3.969,0,0,0-.164,5.611q.08.084.164.164a1.077,1.077,0,0,1,.417.893c-.07.731-1,1.517-1.325,1.734l.6.885.592.887a5.189,5.189,0,0,0,2.26-3.294A3.179,3.179,0,0,0,387.754,299.283Z" transform="translate(-333.667 -270.17)" fill="#3190af"/>
      </g>
    </g>
  </g>
</svg>
