<svg id="bathroom-icon" xmlns="http://www.w3.org/2000/svg" width="80" height="80" viewBox="0 0 80 80">
  <rect id="_129330626" data-name="129330626" width="80" height="80" rx="4" fill="none"/>
  <g id="bathroom-2" transform="translate(8 8)">
    <path id="Path_2878" data-name="Path 2878" d="M62.933,158.933h-19.2v-3.2a1.067,1.067,0,0,0-1.067-1.067H38.4a1.067,1.067,0,0,0-1.067,1.067v3.2H35.2V150.4h2.133v1.067a1.067,1.067,0,0,0,1.067,1.067h4.267a1.067,1.067,0,0,0,1.067-1.067v-3.2A4.267,4.267,0,0,0,39.467,144h-6.4a4.267,4.267,0,0,0-4.267,4.267v10.667H26.667v-3.2a1.067,1.067,0,0,0-1.067-1.067H21.333a1.067,1.067,0,0,0-1.067,1.067v3.2H1.067A1.067,1.067,0,0,0,0,160v4.267a1.067,1.067,0,0,0,1.067,1.067H4.518L7.5,176.259a8.353,8.353,0,0,0,6.012,5.973l-1.479,4.434H0V188.8H22.4v-2.133H18.546l1.422-4.267H44.032l1.422,4.267H28.8V188.8H64v-2.133H51.968L50.49,182.23a8.34,8.34,0,0,0,6.006-5.949l2.986-10.947h3.452A1.067,1.067,0,0,0,64,164.267V160A1.067,1.067,0,0,0,62.933,158.933ZM39.467,156.8H41.6v2.133H39.467Zm-8.533-8.533a2.133,2.133,0,0,1,2.133-2.133h6.4a2.133,2.133,0,0,1,2.133,2.133V150.4H39.467v-1.067a1.067,1.067,0,0,0-1.067-1.067H34.133a1.067,1.067,0,0,0-1.067,1.067v9.6H30.933Zm-7.467,12.8h4.267V169.6H23.467ZM22.4,156.8h2.133v2.133H22.4Zm-1.067,4.267v10.667H12.8V161.067Zm-19.2,0h8.533V163.2H2.133Zm14.164,25.6H14.281L15.7,182.4h2.017Zm31.405,0L46.281,182.4H48.3l1.422,4.267Zm6.729-10.926a6.019,6.019,0,0,1-5.365,4.526H14.933a6.026,6.026,0,0,1-5.371-4.547L6.731,165.333h3.936V172.8a1.067,1.067,0,0,0,1.067,1.067H22.4a1.067,1.067,0,0,0,1.067-1.067v-1.067H28.8a1.067,1.067,0,0,0,1.067-1.067v-5.333h27.4ZM61.867,163.2h-32v-2.133h32Zm0,0" transform="translate(0 -124.8)" fill="#3190af" stroke="#3190af" stroke-linecap="round" stroke-width="0.3"/>
    <path id="Path_2879" data-name="Path 2879" d="M184,464h2.133v2.133H184Zm0,0" transform="translate(-159.467 -402.133)" fill="#3190af" stroke="#3190af" stroke-linecap="round" stroke-width="0.3"/>
    <path id="Path_2880" data-name="Path 2880" d="M349.227,361.646l2.133-4.267-1.909-.953-1.843,3.676H344v2.133h4.267A1.066,1.066,0,0,0,349.227,361.646Zm0,0" transform="translate(-298.133 -308.902)" fill="#3190af" stroke="#3190af" stroke-linecap="round" stroke-width="0.3"/>
    <path id="Path_2881" data-name="Path 2881" d="M312,384h2.133v2.133H312Zm0,0" transform="translate(-270.4 -332.8)" fill="#3190af" stroke="#3190af" stroke-linecap="round" stroke-width="0.3"/>
    <path id="Path_2882" data-name="Path 2882" d="M16,21.333v2.133H37.333V21.333H35.2V2.133h2.133V0H16V2.133h2.133v19.2Zm11.733,0V8.533h5.333v12.8ZM33.067,6.4H27.733V2.133h5.333ZM25.6,2.133V6.4H20.267V2.133Zm-5.333,6.4H25.6v12.8H20.267Zm0,0" transform="translate(-13.867)" fill="#3190af" stroke="#3190af" stroke-linecap="round" stroke-width="0.3"/>
    <path id="Path_2883" data-name="Path 2883" d="M347.733,8.533A7.476,7.476,0,0,0,355.2,1.067,1.067,1.067,0,0,0,354.133,0H352a7.467,7.467,0,0,0-6.4,3.641A7.467,7.467,0,0,0,339.2,0h-2.133A1.067,1.067,0,0,0,336,1.067a7.476,7.476,0,0,0,7.467,7.467h1.067v2.133H342.4a1.066,1.066,0,0,0-1.051,1.242l.859,5.158h-4.074V19.2H355.2V17.067h-6.208l.859-5.158a1.066,1.066,0,0,0-1.052-1.242h-2.133V8.533ZM352,2.133h.96A5.342,5.342,0,0,1,347.733,6.4h-.96A5.342,5.342,0,0,1,352,2.133ZM343.467,6.4a5.342,5.342,0,0,1-5.227-4.267h.96A5.342,5.342,0,0,1,344.427,6.4Zm3.363,10.667H344.37l-.71-4.267h3.88Zm0,0" transform="translate(-291.2)" fill="#3190af" stroke="#3190af" stroke-linecap="round" stroke-width="0.3"/>
    <path id="Path_2884" data-name="Path 2884" d="M400,160h10.667v2.133H400Zm0,0" transform="translate(-346.667 -138.667)" fill="#3190af" stroke="#3190af" stroke-linecap="round" stroke-width="0.3"/>
  </g>
</svg>
