<svg id="bedroom-icon" xmlns="http://www.w3.org/2000/svg" width="80" height="80" viewBox="0 0 80 80">
  <rect id="_129330626" data-name="129330626" width="80" height="80" rx="4" fill="none"/>
  <g id="double-bed" transform="translate(-5.203 -27.276)">
    <path id="Path_2873" data-name="Path 2873" d="M156.861,192.339h-5.645V180.674a3.724,3.724,0,0,0-3.72-3.72h-30.86a3.724,3.724,0,0,0-3.72,3.72v11.664H107.27a3.68,3.68,0,0,0-3.71,3.641v20.687a3.133,3.133,0,1,0,6.267,0v-6.888h44.438v6.867a3.154,3.154,0,1,0,6.309,0V195.98A3.681,3.681,0,0,0,156.861,192.339Zm-51.584,15.723v-2.553h53.578v2.553Zm9.356-27.388a2.005,2.005,0,0,1,2-2H147.5a2.005,2.005,0,0,1,2,2v11.664h-2.045v-3.3a3.681,3.681,0,0,0-3.71-3.641H136.8a3.68,3.68,0,0,0-3.711,3.641v3.3h-2.048v-3.3a3.681,3.681,0,0,0-3.711-3.641h-6.943a3.68,3.68,0,0,0-3.711,3.641v3.3h-2.045Zm20.174,11.664v-3.3a1.962,1.962,0,0,1,1.993-1.924h6.944a1.962,1.962,0,0,1,1.993,1.924v3.3Zm-16.412,0v-3.3a1.962,1.962,0,0,1,1.994-1.924h6.943a1.962,1.962,0,0,1,1.993,1.924v3.3Zm-11.124,1.717h49.59a1.962,1.962,0,0,1,1.994,1.924v7.812H105.277V195.98a1.962,1.962,0,0,1,1.993-1.924Zm.838,22.611a1.417,1.417,0,0,1-2.832,0v-6.888h2.832Zm49.309,1.361a1.412,1.412,0,0,1-1.437-1.381v-6.867h2.874v6.867a1.412,1.412,0,0,1-1.437,1.381Z" transform="translate(-80.17 -120.792)" fill="#3190af" stroke="#3190af" stroke-width="1"/>
    <path id="Path_2874" data-name="Path 2874" d="M20.254,201.938H18.268V168.47h5.57a.975.975,0,0,0,.89-1.379L21.257,159.5a.98.98,0,0,0-.89-.571H14.452a.98.98,0,0,0-.89.57l-3.471,7.589a.975.975,0,0,0,.89,1.379h2.041v2.553a1.572,1.572,0,0,0-.736,1.327,1.595,1.595,0,1,0,3.19,0,1.572,1.572,0,0,0-.736-1.327v-2.553h1.812v33.469H14.565a.859.859,0,1,0,0,1.717h5.689a.859.859,0,1,0,0-1.717Zm-6.374-29.449a.132.132,0,0,1-.122-.14.155.155,0,0,1,.008-.047.873.873,0,0,0,.114.008.843.843,0,0,0,.114-.008.151.151,0,0,1,.008.047A.132.132,0,0,1,13.881,172.489Zm1.045-11.842h4.968l2.792,6.106H12.134Z" transform="translate(0 -105.347)" fill="#3190af" stroke="#3190af" stroke-width="1"/>
    <path id="Path_2875" data-name="Path 2875" d="M179.375,35.992a.859.859,0,0,0-.859.859V51.4a.858.858,0,0,0,.859.859h33.844a.858.858,0,0,0,.858-.859V36.851a.858.858,0,0,0-.858-.859ZM199.3,50.544l-.123-.131,4.009-3.377,3.746,3.508Zm-13.05,0,5.542-5.482,5.151,5.481Zm26.115,0h-2.921L203.8,45.261a.859.859,0,0,0-1.14-.03L198,49.159l-5.559-5.915a.858.858,0,0,0-.61-.271.838.838,0,0,0-.619.248l-7.4,7.321h-3.571V37.708H212.36Z" transform="translate(-144.401)" fill="#3190af" stroke="#3190af" stroke-width="1"/>
    <path id="Path_2876" data-name="Path 2876" d="M297.371,66.48a3.122,3.122,0,1,0-2.917-3.115A3.024,3.024,0,0,0,297.371,66.48Zm0-4.513a1.414,1.414,0,1,1-1.2,1.4A1.311,1.311,0,0,1,297.371,61.967Z" transform="translate(-243.749 -20.787)" fill="#3190af" stroke="#3190af" stroke-width="1"/>
  </g>
</svg>
