<svg id="bh-flag" xmlns="http://www.w3.org/2000/svg" width="32" height="32" viewBox="0 0 32 32">
    <g id="Ellipse_2" data-name="Ellipse 2" fill="#fff" stroke="#57c1e3" stroke-width="1">
        <circle cx="16" cy="16" r="16" stroke="none"/>
        <circle cx="16" cy="16" r="15.5" fill="none"/>
    </g>
    <g id="bahrain" transform="translate(0.667 0.667)">
        <path id="Union_1" data-name="Union 1"
              d="M4.46,30.667h0a14.708,14.708,0,0,1-3.3-.377c1.362-.534,3.08-1.128,3.3-1.2v-.019L0,27.294l4.46-1.721v-.019L0,23.882l4.46-1.62v-.018L0,20.471,4.46,18.85v-.018L0,17.059l4.46-1.62v-.019L0,13.646l4.46-1.62v-.018L0,10.235,4.46,8.614V8.6L0,6.823,4.46,5.2V5.184L0,3.411,4.46,1.79V1.772C4.219,1.679,2.261.922,1,.415A14.7,14.7,0,0,1,4.46,0h.013A15.172,15.172,0,0,1,19.465,15.333,15.174,15.174,0,0,1,4.547,30.666H4.46Z"
              transform="translate(11.201 0)" fill="#cd2029"/>
        <path id="Path_3259" data-name="Path 3259"
              d="M15.433,34.756l-4.572-1.777,4.572-1.726v-.009l-4.572-1.676,4.572-1.625v-.009l-4.572-1.777,4.572-1.625v-.009l-4.572-1.778,4.572-1.625v-.009l-4.572-1.777,4.572-1.625V17.7L10.861,15.92l4.572-1.625v-.009l-4.572-1.777,4.572-1.624v-.009L10.861,9.1l4.572-1.625V7.462C15.256,7.4,13.2,6.618,11.881,6.1a15.331,15.331,0,0,0,.164,29.874c1.423-.546,3.227-1.155,3.388-1.209Z"
              transform="translate(-0.082 -5.705)" fill="#efefef"/>
    </g>
</svg>
