<svg id="businesses_inactive" xmlns="http://www.w3.org/2000/svg" width="72" height="52" viewBox="0 0 72 52">
    <rect id="Rectangle_10007" data-name="Rectangle 10007" width="72" height="52" fill="none"/>
    <g id="store" transform="translate(16 -2.46)">
        <g id="Group_10243" data-name="Group 10243" transform="translate(0 10.46)">
            <path id="Path_2817" data-name="Path 2817"
                  d="M40.447,43.08l-2.53-10.121A1.264,1.264,0,0,0,36.69,32H3.8a1.264,1.264,0,0,0-1.227.959L.038,43.08A1.238,1.238,0,0,0,0,43.387a6.416,6.416,0,0,0,2.53,5.139V66.16A1.266,1.266,0,0,0,3.8,67.425H16.447a1.266,1.266,0,0,0,1.265-1.265V57.3h5.061V66.16a1.266,1.266,0,0,0,1.265,1.265H36.69a1.266,1.266,0,0,0,1.265-1.265V48.526a6.417,6.417,0,0,0,2.53-5.139A1.238,1.238,0,0,0,40.447,43.08ZM35.425,64.894H25.3V56.038a1.266,1.266,0,0,0-1.265-1.265H16.447a1.266,1.266,0,0,0-1.265,1.265v8.856H5.061V49.611a5.613,5.613,0,0,0,.949.1,5.9,5.9,0,0,0,4.744-2.447,5.823,5.823,0,0,0,9.489,0,5.823,5.823,0,0,0,9.489,0,5.9,5.9,0,0,0,4.744,2.447,5.613,5.613,0,0,0,.949-.1Zm-.949-17.712A3.652,3.652,0,0,1,31,43.387a1.265,1.265,0,1,0-2.53,0,3.652,3.652,0,0,1-3.479,3.8,3.652,3.652,0,0,1-3.479-3.8,1.265,1.265,0,1,0-2.53,0,3.652,3.652,0,0,1-3.479,3.8,3.652,3.652,0,0,1-3.479-3.8,1.265,1.265,0,1,0-2.53,0,3.652,3.652,0,0,1-3.479,3.8,3.639,3.639,0,0,1-3.477-3.649l2.252-9H35.7l2.252,9A3.643,3.643,0,0,1,34.476,47.182Z"
                  transform="translate(0 -32)" fill="#858585"/>
        </g>
    </g>
</svg>
