<svg id="business" xmlns="http://www.w3.org/2000/svg" width="112" height="112" viewBox="0 0 112 112">
  <rect id="Rectangle_10063" data-name="Rectangle 10063" width="112" height="112" fill="none"/>
  <g id="Group_13083" data-name="Group 13083" transform="translate(-696.051 -456.202)">
    <path id="Path_4428" data-name="Path 4428" d="M84.277,68.4V73.09a6.645,6.645,0,0,1-1.6,4.311,47.225,47.225,0,0,1-5.7,5.638,1.646,1.646,0,0,1-2.7-1.263A10.226,10.226,0,0,0,64.049,71.55H21.392A21.159,21.159,0,0,1,.411,53.189,46.985,46.985,0,0,1,46.852,0,46.983,46.983,0,0,1,91.658,61.309a1.158,1.158,0,0,1-1.1.807,6.28,6.28,0,0,0-6.28,6.28Z" transform="translate(705.051 465.201)" fill="#60c8dd"/>
    <path id="Path_4429" data-name="Path 4429" d="M120.4,81.124A39.273,39.273,0,1,1,81.124,41.851,39.273,39.273,0,0,1,120.4,81.124Z" transform="translate(670.875 431.026)" fill="#7cd2e3"/>
    <path id="Path_4430" data-name="Path 4430" d="M379.169,136.834v56.407a47.058,47.058,0,0,1-7.184,4.948A1.338,1.338,0,0,1,370,197.016V136.834A1.834,1.834,0,0,1,371.834,135h5.5A1.834,1.834,0,0,1,379.169,136.834Z" transform="translate(402.904 354.96)" fill="#3d4ec6"/>
    <path id="Path_4431" data-name="Path 4431" d="M57.336,114.186h-5.5A1.834,1.834,0,0,1,50,112.352V66.505a1.834,1.834,0,0,1,1.834-1.834h5.5a1.834,1.834,0,0,1,1.834,1.834v45.847A1.834,1.834,0,0,1,57.336,114.186Zm75.19-12.161V88.512a1.834,1.834,0,0,0-1.834-1.834h-5.5a1.834,1.834,0,0,0-1.834,1.834v29.9A46.871,46.871,0,0,0,132.525,102.025ZM88.512,97.681V51.834A1.834,1.834,0,0,0,86.678,50h-5.5a1.834,1.834,0,0,0-1.834,1.834V97.681a1.834,1.834,0,0,0,1.834,1.834h5.5A1.834,1.834,0,0,0,88.512,97.681Z" transform="translate(664.221 424.371)" fill="#ffb52d"/>
    <path id="Path_4432" data-name="Path 4432" d="M103.027,68.339H101.2a1.834,1.834,0,0,1-1.834-1.834V51.834A1.834,1.834,0,0,1,101.2,50h1.83a1.834,1.834,0,0,1,1.834,1.834V66.505A1.834,1.834,0,0,1,103.027,68.339Zm45.847,30.7V88.512a1.834,1.834,0,0,0-1.834-1.834h-1.83a1.834,1.834,0,0,0-1.834,1.834V99.043a1.834,1.834,0,0,0,1.834,1.834h1.83A1.834,1.834,0,0,0,148.874,99.043Zm-73.356-20.4V66.505a1.834,1.834,0,0,0-1.834-1.834h-1.83a1.834,1.834,0,0,0-1.834,1.834V78.644a1.834,1.834,0,0,0,1.834,1.834h1.83a1.834,1.834,0,0,0,1.834-1.834Z" transform="translate(647.871 424.371)" fill="#ffc14f"/>
    <path id="Path_4433" data-name="Path 4433" d="M166.678,146.851h-5.5a1.834,1.834,0,0,1-1.834-1.834V103.571a1.834,1.834,0,0,1,1.834-1.834h5.5a1.834,1.834,0,0,1,1.834,1.834v41.446A1.834,1.834,0,0,1,166.678,146.851Zm-27.508-9.169V91.834A1.834,1.834,0,0,0,137.336,90h-5.5A1.834,1.834,0,0,0,130,91.834v45.847a1.834,1.834,0,0,0,1.834,1.834h5.5A1.834,1.834,0,0,0,139.169,137.681Zm42.18,13.395h-1.83a1.834,1.834,0,0,1-1.834-1.834V100.086a1.834,1.834,0,0,1,1.834-1.834h1.83a1.834,1.834,0,0,1,1.834,1.834v49.155A1.834,1.834,0,0,1,181.349,151.076Z" transform="translate(598.892 391.707)" fill="#5766ce"/>
    <path id="Path_4434" data-name="Path 4434" d="M153.685,101.737h-1.83a1.834,1.834,0,0,1-1.834-1.834V91.834A1.834,1.834,0,0,1,151.855,90h1.83a1.834,1.834,0,0,1,1.834,1.834V99.9A1.834,1.834,0,0,1,153.685,101.737Zm31.176,9.9v-8.069a1.834,1.834,0,0,0-1.834-1.834H181.2a1.834,1.834,0,0,0-1.834,1.834v8.069a1.834,1.834,0,0,0,1.834,1.834h1.83A1.834,1.834,0,0,0,184.861,111.64Z" transform="translate(582.542 391.707)" fill="#717ed6"/>
    <path id="Path_4435" data-name="Path 4435" d="M179.808,58.648v6.725a.917.917,0,0,1-1.834,0V60.95l-17.49,17.49a.917.917,0,0,1-1.3,0l-5.646-5.646-21.2,19.75a.917.917,0,0,1-1.251-1.341l21.845-20.355a.917.917,0,0,1,1.274.022l5.624,5.624,16.93-16.93h-4.6a.917.917,0,0,1,0-1.834h6.725A.917.917,0,0,1,179.808,58.648Z" transform="translate(598.237 418.059)" fill="#fff5f5"/>
    <path id="Path_4436" data-name="Path 4436" d="M127.566,184.866a38.011,38.011,0,0,0-34.327,0,3.527,3.527,0,0,0-1.947,3.082v4.274c0,2.442,2.333,4.429,5.2,4.429h27.82c2.867,0,5.2-1.987,5.2-4.429v-4.274A3.526,3.526,0,0,0,127.566,184.866Zm.113,7.356c0,1.431-1.51,2.595-3.366,2.595H96.493c-1.856,0-3.366-1.164-3.366-2.595v-4.274a1.726,1.726,0,0,1,.99-1.471,36.185,36.185,0,0,1,32.573,0,1.726,1.726,0,0,1,.99,1.471v4.274Z" transform="translate(630.501 317.583)" fill="#7c3f2c"/>
    <path id="Path_4437" data-name="Path 4437" d="M72.871,242.717V263.07a23.008,23.008,0,0,1-23.31,23.039,7.951,7.951,0,0,1-.883-.05A47,47,0,0,1,10.24,252.765V242.717a6.829,6.829,0,0,1,6.829-6.829H66.042A6.829,6.829,0,0,1,72.871,242.717Z" transform="translate(696.688 272.573)" fill="#954c35"/>
    <path id="Path_4438" data-name="Path 4438" d="M209.709,242.717v37.864a46.736,46.736,0,0,1-22.88,5.943,47.344,47.344,0,0,1-6.632-.465,43.727,43.727,0,0,1-1.9-50.171h24.587A6.829,6.829,0,0,1,209.709,242.717Z" transform="translate(565.17 272.573)" fill="#ae583e"/>
    <path id="Path_4439" data-name="Path 4439" d="M71.705,242.642v6.342a5.117,5.117,0,0,1-2.182,4.2,58.78,58.78,0,0,1-33.671,10.274A58.78,58.78,0,0,1,2.182,253.18,5.117,5.117,0,0,1,0,248.985v-6.343a7.206,7.206,0,0,1,7.206-7.206H64.5A7.206,7.206,0,0,1,71.705,242.642Z" transform="translate(705.051 272.942)" fill="#c0694e"/>
    <path id="Path_4440" data-name="Path 4440" d="M211.587,242.695v6.343a5.117,5.117,0,0,1-2.182,4.2,58.78,58.78,0,0,1-33.671,10.274q-2.18,0-4.317-.148-.121-1.627-.122-3.286a43.5,43.5,0,0,1,7.565-24.585h25.52A7.207,7.207,0,0,1,211.587,242.695Z" transform="translate(565.17 272.9)" fill="#c97e67"/>
    <path id="Path_4441" data-name="Path 4441" d="M161.37,381.306H146A1.707,1.707,0,0,1,144.3,379.6v-1.707A1.707,1.707,0,0,1,146,376.184H161.37a1.707,1.707,0,0,1,1.707,1.707V379.6A1.708,1.708,0,0,1,161.37,381.306Z" transform="translate(587.216 158.006)" fill="#ff9f22"/>
    <path id="Path_4442" data-name="Path 4442" d="M175.814,381.306H163.692a1.707,1.707,0,0,1-1.707-1.707v-1.707a1.707,1.707,0,0,1,1.707-1.707h12.122a1.707,1.707,0,0,1,1.707,1.707V379.6A1.708,1.708,0,0,1,175.814,381.306Z" transform="translate(572.772 158.006)" fill="#ffc14f"/>
    <path id="Path_4443" data-name="Path 4443" d="M168.119,387.2H154.461a.854.854,0,1,1,0-1.707h13.658a.854.854,0,0,1,0,1.707Z" transform="translate(579.613 150.402)" fill="#ff9100"/>
    <path id="Path_4444" data-name="Path 4444" d="M159.412,387.2h-4.951a.854.854,0,1,1,0-1.707h4.951a.854.854,0,1,0,0,1.707Z" transform="translate(579.613 150.402)" fill="#dd7d00"/>
    <path id="Path_4445" data-name="Path 4445" d="M121.378,179.239a3.422,3.422,0,0,1-3.422,3.422h-8.649c-1.819,0-3.294-.942-3.294-2.1V179.8a1.45,1.45,0,0,1,1-1.225,35.754,35.754,0,0,1,10.582-2.739,3.42,3.42,0,0,1,3.786,3.4Z" transform="translate(618.479 321.63)" fill="#ae583e"/>
    <path id="Path_4446" data-name="Path 4446" d="M176.8,178.733v.757c0,1.162-1.475,2.1-3.294,2.1H155.983a3.423,3.423,0,0,1-.39-6.824,44.127,44.127,0,0,1,4.821-.262,38.348,38.348,0,0,1,15.392,3A1.45,1.45,0,0,1,176.8,178.733Z" transform="translate(580.469 322.697)" fill="#c0694e"/>
    <path id="Path_4447" data-name="Path 4447" d="M298.274,64.417a.917.917,0,0,1-.917.917h-4.668a.917.917,0,0,1,0-1.834h4.668A.917.917,0,0,1,298.274,64.417Z" transform="translate(466.786 413.348)" fill="#ececf1"/>
    <path id="Path_4448" data-name="Path 4448" d="M300.133,49.853a.917.917,0,0,1-.917.917h-3.592a.917.917,0,0,1,0-1.834h3.592A.917.917,0,0,1,300.133,49.853Zm-4.508-7.519h3.592a.917.917,0,0,0,0-1.834h-3.592a.917.917,0,0,0,0,1.834Z" transform="translate(464.39 432.129)" fill="#c2eaf2"/>
  </g>
</svg>
