<svg id="callDesktop" xmlns="http://www.w3.org/2000/svg" width="32" height="32" viewBox="0 0 32 32">
    <rect id="Rectangle_10054" data-name="Rectangle 10054" width="32" height="32" fill="none"/>
    <path id="Path_4211" data-name="Path 4211"
          d="M19.024,24a10.046,10.046,0,0,1-3.482-.751,26.112,26.112,0,0,1-8.785-6.1A26.529,26.529,0,0,1,.739,8.24C-.244,5.6-.247,3.427.733,2.434c.141-.143.284-.3.432-.454C2.06,1.026,3.07-.047,4.409,0A3.875,3.875,0,0,1,7.141,1.777C9.847,5.188,8.627,6.4,7.215,7.813l-.249.25C6.735,8.3,6.3,9.382,10.358,13.5a22.59,22.59,0,0,0,3.357,2.921c.568.375,1.585.941,2,.518l.251-.257a7.353,7.353,0,0,1,1.557-1.3c.768-.51,2.06-.521,4.393,1.381a3.941,3.941,0,0,1,1.75,2.771c.055,1.357-1.011,2.384-1.952,3.289-.155.15-.307.3-.447.438A3.074,3.074,0,0,1,19.024,24ZM4.313.807c-.951,0-1.81.917-2.571,1.728-.153.163-.3.321-.447.469-.73.739-.656,2.682.188,4.952A25.716,25.716,0,0,0,7.32,16.58a25.313,25.313,0,0,0,8.5,5.915c2.238.857,4.154.93,4.883.191.146-.148.3-.3.463-.452.818-.788,1.745-1.681,1.7-2.671a3.268,3.268,0,0,0-1.453-2.176c-2.8-2.284-3.585-1.478-4.884-.142l-.255.261c-.621.63-1.63.491-3-.412A23.333,23.333,0,0,1,9.8,14.066C6.427,10.652,5.35,8.562,6.4,7.49l.254-.254c1.321-1.317,2.118-2.113-.136-4.955A3.226,3.226,0,0,0,4.376.808Z"
          transform="translate(4.5 4.5)" fill="#3190af" stroke="#3190af" stroke-width="1"/>
</svg>
