<svg id="chat" xmlns="http://www.w3.org/2000/svg" width="24" height="24" viewBox="0 0 24 24">
    <rect id="Rectangle_10092" data-name="Rectangle 10092" width="24" height="24" fill="none"/>
    <path id="chat-2" data-name="chat"
          d="M13.364,1H4.636A3.641,3.641,0,0,0,1,4.636v5.818a3.643,3.643,0,0,0,2.909,3.564v2.255a.727.727,0,0,0,1.131.605l4.178-2.787h4.145A3.641,3.641,0,0,0,17,10.454V4.636A3.641,3.641,0,0,0,13.364,1ZM11.909,9.727H6.091a.727.727,0,0,1,0-1.455h5.818a.727.727,0,0,1,0,1.455Zm1.455-2.909H4.636a.727.727,0,1,1,0-1.455h8.727a.727.727,0,0,1,0,1.455Z"
          transform="translate(3 3)" fill="#3190af"/>
</svg>
