<svg id="chatDesktop" xmlns="http://www.w3.org/2000/svg" width="32" height="32" viewBox="0 0 32 32">
    <rect id="Rectangle_10055" data-name="Rectangle 10055" width="32" height="32" fill="none"/>
    <g id="Group_12136" data-name="Group 12136" transform="translate(-11.089 -5.496)">
        <path id="Path_2770" data-name="Path 2770"
              d="M214.416,191.141H199.524a.513.513,0,0,0,0,1.022h14.892a.513.513,0,0,0,0-1.022Z"
              transform="translate(-179.672 -176.435)" fill="#3190af" stroke="#3190af" stroke-width="0.7"/>
        <path id="Path_2771" data-name="Path 2771"
              d="M214.416,248.474H199.524a.513.513,0,0,0,0,1.022h14.892a.513.513,0,0,0,0-1.022Z"
              transform="translate(-179.672 -230.087)" fill="#3190af" stroke="#3190af" stroke-width="0.7"/>
        <path id="Path_2772" data-name="Path 2772"
              d="M214.416,305.807H199.524a.513.513,0,0,0,0,1.022h14.892a.513.513,0,0,0,0-1.022Z"
              transform="translate(-179.672 -283.74)" fill="#3190af" stroke="#3190af" stroke-width="0.7"/>
        <path id="Path_2773" data-name="Path 2773"
              d="M160.3,125.549H141.918a2.811,2.811,0,0,0-2.808,2.808v11.561a2.811,2.811,0,0,0,2.808,2.808H154.8a.445.445,0,0,1,.351.17l4.161,5.268a.83.83,0,0,0,.654.321.854.854,0,0,0,.281-.048.83.83,0,0,0,.564-.793v-4.966a2.821,2.821,0,0,0,2.295-2.76V128.357A2.811,2.811,0,0,0,160.3,125.549Zm1.842,14.368a1.849,1.849,0,0,1-1.818,1.841.483.483,0,0,0-.477.483v5.04l-3.937-4.985a1.405,1.405,0,0,0-1.109-.537H141.918a1.844,1.844,0,0,1-1.842-1.842V128.357a1.844,1.844,0,0,1,1.842-1.842H160.3a1.844,1.844,0,0,1,1.842,1.842Z"
              transform="translate(-123.812 -115.053)" fill="#3190af" stroke="#3190af" stroke-width="0.7"/>
    </g>
</svg>
