<svg xmlns="http://www.w3.org/2000/svg" width="16" height="14.134" viewBox="0 0 16 14.134">
    <g id="check-mark" transform="translate(-0.001 -20.566)">
        <path id="Path_2634" data-name="Path 2634"
              d="M15.3,20.674c-.722-.389-1.527.361-2,.805-1.083,1.055-2,2.277-3.027,3.388-1.139,1.222-2.194,2.444-3.36,3.638a10.019,10.019,0,0,0-1.833,2.222,36.451,36.451,0,0,0-2.971-2.888c-.805-.611-2.138-1.055-2.11.417.056,1.916,1.749,3.971,3,5.276A3.172,3.172,0,0,0,5.027,34.7C6,34.753,7,33.587,7.582,32.948c1.028-1.111,1.861-2.36,2.8-3.5,1.222-1.5,2.471-2.971,3.666-4.5C14.8,24.007,17.162,21.674,15.3,20.674ZM1.223,28.144a.21.21,0,0,0-.111.028,1.351,1.351,0,0,1-.305-.111h0Q.931,27.978,1.223,28.144Z"
              transform="translate(0)" fill="#54b948"/>
    </g>
</svg>
