<svg id="dashboard_inactive" xmlns="http://www.w3.org/2000/svg" width="72" height="52" viewBox="0 0 72 52">
    <rect id="Rectangle_10011" data-name="Rectangle 10011" width="72" height="52" fill="none"/>
    <g id="dashboard" transform="translate(16 6)">
        <path id="Path_2813" data-name="Path 2813"
              d="M15.767,13.637H2.983A2.986,2.986,0,0,1,0,10.654V2.983A2.986,2.986,0,0,1,2.983,0H15.767a2.986,2.986,0,0,1,2.983,2.983v7.671A2.986,2.986,0,0,1,15.767,13.637ZM2.983,2.557a.426.426,0,0,0-.426.426v7.671a.426.426,0,0,0,.426.426H15.767a.427.427,0,0,0,.426-.426V2.983a.426.426,0,0,0-.426-.426Zm0,0"
              fill="#858585"/>
        <path id="Path_2814" data-name="Path 2814"
              d="M15.767,237.2H2.983A2.986,2.986,0,0,1,0,234.213v-17.9a2.986,2.986,0,0,1,2.983-2.983H15.767a2.986,2.986,0,0,1,2.983,2.983v17.9A2.986,2.986,0,0,1,15.767,237.2ZM2.983,215.889a.426.426,0,0,0-.426.426v17.9a.426.426,0,0,0,.426.426H15.767a.426.426,0,0,0,.426-.426v-17.9a.427.427,0,0,0-.426-.426Zm0,0"
              transform="translate(0 -196.286)" fill="#858585"/>
        <path id="Path_2815" data-name="Path 2815"
              d="M293.1,354.969H280.315a2.986,2.986,0,0,1-2.983-2.983v-7.671a2.986,2.986,0,0,1,2.983-2.983H293.1a2.986,2.986,0,0,1,2.983,2.983v7.671A2.986,2.986,0,0,1,293.1,354.969Zm-12.784-11.08a.426.426,0,0,0-.426.426v7.671a.426.426,0,0,0,.426.426H293.1a.426.426,0,0,0,.426-.426v-7.671a.426.426,0,0,0-.426-.426Zm0,0"
              transform="translate(-255.172 -314.059)" fill="#858585"/>
        <path id="Path_2816" data-name="Path 2816"
              d="M293.1,23.864H280.315a2.986,2.986,0,0,1-2.983-2.983V2.983A2.986,2.986,0,0,1,280.315,0H293.1a2.986,2.986,0,0,1,2.983,2.983v17.9A2.986,2.986,0,0,1,293.1,23.864ZM280.315,2.557a.426.426,0,0,0-.426.426v17.9a.426.426,0,0,0,.426.426H293.1a.426.426,0,0,0,.426-.426V2.983a.426.426,0,0,0-.426-.426Zm0,0"
              transform="translate(-255.172)" fill="#858585"/>
    </g>
</svg>
