<svg id="DAY_TO_DAY" xmlns="http://www.w3.org/2000/svg" width="24" height="24" viewBox="0 0 24 24">
    <rect id="Rectangle_9960" data-name="Rectangle 9960" width="24" height="24" fill="none"/>
    <g id="Group_12297" data-name="Group 12297" transform="translate(2 2)">
        <path id="Path_4265" data-name="Path 4265"
              d="M211.676,151.883c0-.3.015-.612.039-.937h-.031c-.163.326-.294.619-.465.937l-.674,1.1V153h1.13Z"
              transform="translate(-198.855 -142.564)" fill="#3190af"/>
        <path id="Path_4266" data-name="Path 4266"
              d="M10.007,0a10,10,0,1,0,10,10A10.012,10.012,0,0,0,10.007,0Zm7.938,10.436a.732.732,0,0,1-.5.252l-.053,0-.012,0c-.014,0-.026,0-.04,0a.731.731,0,0,1-.622-.349L15.381,9.191A.734.734,0,0,1,15.807,7.9l.464-.034a6.789,6.789,0,1,0-.96,6.075.734.734,0,0,1,1.188.863A8.269,8.269,0,1,1,17.766,7.76l.89-.065a.734.734,0,0,1,.609,1.212Zm-7.348.88V10.55l1.9-3.067h1.44v2.951h.6v.882h-.6v1.2H12.827v-1.2H10.6ZM7.915,8.343a1.819,1.819,0,0,0-1.076.419l-.333-.844A2.794,2.794,0,0,1,8.156,7.4a1.564,1.564,0,0,1,1.766,1.58,3.126,3.126,0,0,1-1.339,2.168l-.465.388v.015h1.9v.968H6.444V11.8l.65-.588c1.1-.983,1.635-1.549,1.65-2.137C8.744,8.668,8.5,8.343,7.915,8.343Z"
              transform="translate(-0.006)" fill="#3190af"/>
    </g>
</svg>
