<svg id="directions" xmlns="http://www.w3.org/2000/svg" width="24" height="24" viewBox="0 0 24 24">
  <rect id="Rectangle_10100" data-name="Rectangle 10100" width="24" height="24" fill="none"/>
  <g id="Group_13300" data-name="Group 13300" transform="translate(5.333 2.051)">
    <path id="Path_8" data-name="Path 8" d="M85.745,0a6.8,6.8,0,0,0-6.788,6.788c0,1.5.885,3.791,2.787,7.2,1.3,2.325,2.589,4.288,2.643,4.371l.933,1.415a.509.509,0,0,0,.849,0l.933-1.415c.054-.082,1.336-2.028,2.643-4.371,1.9-3.407,2.787-5.694,2.787-7.2A6.8,6.8,0,0,0,85.745,0Zm3.113,13.49c-1.289,2.31-2.551,4.226-2.6,4.306l-.509.771-.509-.771c-.053-.081-1.325-2.014-2.6-4.307-1.763-3.16-2.658-5.415-2.658-6.7a5.77,5.77,0,1,1,11.541,0C91.515,8.075,90.621,10.33,88.857,13.49Z" transform="translate(-78.957)" fill="#3190af" stroke="#3190af" stroke-width="0.5"/>
    <path id="Path_9" data-name="Path 9" d="M157.086,73.291a3.725,3.725,0,1,0,3.795,3.724A3.764,3.764,0,0,0,157.086,73.291Zm0,6.442a2.718,2.718,0,1,1,2.769-2.718A2.747,2.747,0,0,1,157.086,79.733Z" transform="translate(-150.298 -70.341)" fill="#3190af" stroke="#3190af" stroke-width="0.5"/>
  </g>
</svg>
