<svg id="female_active" xmlns="http://www.w3.org/2000/svg" width="64" height="64" viewBox="0 0 64 64">
    <g id="Rectangle_9561" data-name="Rectangle 9561" fill="none" stroke="#3190af" stroke-width="1">
        <rect width="64" height="64" rx="4" stroke="none"/>
        <rect x="0.5" y="0.5" width="63" height="63" rx="3.5" fill="none"/>
    </g>
    <g id="Group_10966" data-name="Group 10966" transform="translate(23 12.375)">
        <path id="Path_3546" data-name="Path 3546"
              d="M70.6,6.918a3.459,3.459,0,1,0-3.459-3.459A3.463,3.463,0,0,0,70.6,6.918Z" transform="translate(-61.683)"
              fill="#3190af"/>
        <path id="Path_3547" data-name="Path 3547"
              d="M27.644,96.546,24.82,86.531a1.89,1.89,0,0,0-1.857-1.588H14.536a1.89,1.89,0,0,0-1.857,1.588L9.854,96.546a.5.5,0,0,0,0,.282,1.745,1.745,0,0,0-.021.268,1.911,1.911,0,0,0,1.892,1.926,1.885,1.885,0,0,0,1.849-1.538l1.219-4.611-2.017,9.954a1.952,1.952,0,0,0-.133.71,1.911,1.911,0,0,0,1.892,1.926h.206v8.312a1.891,1.891,0,1,0,3.782,0v-8.312h.452v8.312a1.892,1.892,0,1,0,3.782,0v-8.312h.206a1.911,1.911,0,0,0,1.891-1.926,1.946,1.946,0,0,0-.133-.711l-2.016-9.953,1.21,4.572a1.887,1.887,0,0,0,3.748-.348,1.789,1.789,0,0,0-.021-.269A.506.506,0,0,0,27.644,96.546Z"
              transform="translate(-9.835 -77.813)" fill="#3190af"/>
    </g>
</svg>
