<svg id="female-filled" xmlns="http://www.w3.org/2000/svg" width="18.008" height="38.266" viewBox="0 0 18.008 38.266">
  <path id="Path_3546" data-name="Path 3546" d="M70.631,6.987a3.494,3.494,0,1,0-3.493-3.494A3.5,3.5,0,0,0,70.631,6.987Z" transform="translate(-61.628)" fill="#fff"/>
  <path id="Path_3547" data-name="Path 3547" d="M27.822,96.662,24.97,86.546a1.909,1.909,0,0,0-1.875-1.6H14.583a1.909,1.909,0,0,0-1.876,1.6L9.854,96.662a.5.5,0,0,0,0,.285,1.763,1.763,0,0,0-.022.271,1.93,1.93,0,0,0,1.91,1.945,1.9,1.9,0,0,0,1.867-1.553l1.232-4.657-2.037,10.053a1.972,1.972,0,0,0-.134.717,1.93,1.93,0,0,0,1.911,1.945h.208v8.4a1.91,1.91,0,1,0,3.82,0v-8.4h.457v8.4a1.91,1.91,0,1,0,3.82,0v-8.4H23.1a1.93,1.93,0,0,0,1.91-1.945,1.965,1.965,0,0,0-.135-.718L22.835,92.952l1.222,4.618a1.906,1.906,0,0,0,3.786-.352,1.807,1.807,0,0,0-.022-.271A.511.511,0,0,0,27.822,96.662Z" transform="translate(-9.835 -77.742)" fill="#fff"/>
</svg>
