<svg id="female_inactive" xmlns="http://www.w3.org/2000/svg" width="64" height="64" viewBox="0 0 64 64">
    <g id="Rectangle_9561" data-name="Rectangle 9561" fill="none" stroke="#b5b5b5" stroke-width="1">
        <rect width="64" height="64" rx="4" stroke="none"/>
        <rect x="0.5" y="0.5" width="63" height="63" rx="3.5" fill="none"/>
    </g>
    <g id="Group_10966" data-name="Group 10966" transform="translate(23 12.375)">
        <g id="Path_3546" data-name="Path 3546" transform="translate(-61.683)" fill="none" stroke-linejoin="round">
            <path d="M70.6,6.918a3.459,3.459,0,1,0-3.459-3.459A3.463,3.463,0,0,0,70.6,6.918Z" stroke="none"/>
            <path d="M 70.59671783447266 5.918280601501465 C 71.95269012451172 5.918280601501465 73.05586242675781 4.815110683441162 73.05586242675781 3.459140777587891 C 73.05586242675781 2.103170871734619 71.95269012451172 1.000000834465027 70.59671783447266 1.000000834465027 C 69.24098205566406 1.000000834465027 68.13800048828125 2.103170871734619 68.13800048828125 3.459140777587891 C 68.13800048828125 4.815110683441162 69.24098205566406 5.918280601501465 70.59671783447266 5.918280601501465 M 70.59671783447266 6.918280601501465 C 68.68958282470703 6.918280601501465 67.13800048828125 5.366690635681152 67.13800048828125 3.459140777587891 C 67.13800048828125 1.551590800285339 68.68909454345703 7.775878998472763e-07 70.59671783447266 7.775878998472763e-07 C 72.50426483154297 7.775878998472763e-07 74.05586242675781 1.551590800285339 74.05586242675781 3.459140777587891 C 74.05586242675781 5.366690635681152 72.50426483154297 6.918280601501465 70.59671783447266 6.918280601501465 Z"
                  stroke="none" fill="#b5b5b5"/>
        </g>
        <g id="Path_3547" data-name="Path 3547" transform="translate(-9.835 -77.813)" fill="none"
           stroke-linejoin="round">
            <path d="M27.644,96.546,24.82,86.531a1.89,1.89,0,0,0-1.857-1.588H14.536a1.89,1.89,0,0,0-1.857,1.588L9.854,96.546a.5.5,0,0,0,0,.282,1.745,1.745,0,0,0-.021.268,1.911,1.911,0,0,0,1.892,1.926,1.885,1.885,0,0,0,1.849-1.538l1.219-4.611-2.017,9.954a1.952,1.952,0,0,0-.133.71,1.911,1.911,0,0,0,1.892,1.926h.206v8.312a1.891,1.891,0,1,0,3.782,0v-8.312h.452v8.312a1.892,1.892,0,1,0,3.782,0v-8.312h.206a1.911,1.911,0,0,0,1.891-1.926,1.946,1.946,0,0,0-.133-.711l-2.016-9.953,1.21,4.572a1.887,1.887,0,0,0,3.748-.348,1.789,1.789,0,0,0-.021-.269A.506.506,0,0,0,27.644,96.546Z"
                  stroke="none"/>
            <path d="M 14.53591728210449 85.94298553466797 C 14.10046768188477 85.94298553466797 13.74179840087891 86.25532531738281 13.66369819641113 86.70254516601562 C 13.6578483581543 86.73604583740234 13.65029716491699 86.76921081542969 13.64106750488281 86.80194091796875 L 10.84869956970215 96.70391845703125 C 10.86019706726074 96.79556274414062 10.85897636413574 96.88864135742188 10.8448486328125 96.98048400878906 C 10.83820724487305 97.02361297607422 10.83511734008789 97.06045532226562 10.83511734008789 97.09642028808594 C 10.83511734008789 97.60694122314453 11.23504829406738 98.02227020263672 11.72663879394531 98.02227020263672 C 12.14653778076172 98.02227020263672 12.51803779602051 97.71535491943359 12.59078788757324 97.308349609375 C 12.59557723999023 97.28156280517578 12.6014575958252 97.25495910644531 12.60841751098633 97.22865295410156 L 13.82786750793457 92.61745452880859 C 13.96615791320801 92.09455108642578 14.49513626098633 91.77638244628906 15.02185821533203 91.89926910400391 C 15.54858779907227 92.02217102050781 15.88212776184082 92.54160308837891 15.77471733093262 93.07170104980469 L 13.75785827636719 103.025390625 C 13.74657821655273 103.0810852050781 13.73056793212891 103.1357040405273 13.71000862121582 103.1886749267578 C 13.66664886474609 103.3003616333008 13.64466857910156 103.4173889160156 13.64466857910156 103.5364990234375 C 13.64466857910156 104.0470809936523 14.044677734375 104.4624633789062 14.53636741638184 104.4624633789062 L 14.74205780029297 104.4624633789062 C 15.29433822631836 104.4624633789062 15.74205780029297 104.9101791381836 15.74205780029297 105.4624633789062 L 15.74205780029297 113.7747802734375 C 15.74205780029297 114.2851028442383 16.14187812805176 114.7002792358398 16.6333179473877 114.7002792358398 C 17.12465858459473 114.7002792358398 17.52438735961914 114.2851028442383 17.52438735961914 113.7747802734375 L 17.52438735961914 105.4624633789062 C 17.52438735961914 104.9101791381836 17.97210884094238 104.4624633789062 18.52438735961914 104.4624633789062 L 18.97638893127441 104.4624633789062 C 19.52866744995117 104.4624633789062 19.97638893127441 104.9101791381836 19.97638893127441 105.4624633789062 L 19.97638893127441 113.7747802734375 C 19.97638893127441 114.2851028442383 20.37611770629883 114.7002792358398 20.86745834350586 114.7002792358398 C 21.35894775390625 114.7002792358398 21.75879669189453 114.2851028442383 21.75879669189453 113.7747802734375 L 21.75879669189453 105.4624633789062 C 21.75879669189453 104.9101791381836 22.20651817321777 104.4624633789062 22.75879669189453 104.4624633789062 L 22.96493911743164 104.4624633789062 C 23.4561767578125 104.4624633789062 23.85582733154297 104.0470809936523 23.85582733154297 103.5364990234375 C 23.85582733154297 103.414909362793 23.83454895019531 103.3011932373047 23.79076766967773 103.1888427734375 C 23.76997756958008 103.1354751586914 23.75380706787109 103.0804138183594 23.74243927001953 103.024284362793 L 21.72666931152344 93.07115173339844 C 21.61931800842285 92.54108428955078 21.95284843444824 92.02171325683594 22.47952842712402 91.89881134033203 C 23.0062141418457 91.77589416503906 23.5351676940918 92.09403228759766 23.67349815368652 92.61687469482422 L 24.8831787109375 97.18891143798828 C 24.89000701904297 97.21469116210938 24.89578819274902 97.24073028564453 24.90052795410156 97.26697540283203 C 24.97956848144531 97.70462036132812 25.34700775146484 98.02227020263672 25.77421951293945 98.02227020263672 C 26.26530838012695 98.02227020263672 26.66483688354492 97.60694122314453 26.66483688354492 97.09642028808594 C 26.66483688354492 97.06124877929688 26.66154861450195 97.02241516113281 26.6547679901123 96.97769927978516 C 26.64116287231445 96.88793182373047 26.63988494873047 96.79698181152344 26.6507682800293 96.70735168457031 L 23.85769844055176 86.80191040039062 C 23.84845733642578 86.76913452148438 23.84088897705078 86.73590087890625 23.83503723144531 86.70233917236328 C 23.75705718994141 86.25524139404297 23.39865875244141 85.94298553466797 22.96348762512207 85.94298553466797 L 14.53591728210449 85.94298553466797 M 14.53591728210449 84.94298553466797 L 22.96348762512207 84.94298553466797 C 23.88332748413086 84.94298553466797 24.65937805175781 85.60865020751953 24.82016754150391 86.53052520751953 L 27.64437866210938 96.54640197753906 C 27.67170715332031 96.64216613769531 27.66935729980469 96.73930358886719 27.64347839355469 96.82786560058594 C 27.65741729736328 96.91984558105469 27.66483688354492 97.00886535644531 27.66483688354492 97.09642028808594 C 27.66483688354492 98.15827941894531 26.81684875488281 99.02227020263672 25.77421951293945 99.02227020263672 C 24.86269760131836 99.02227020263672 24.08149719238281 98.35863494873047 23.91644668579102 97.44469451904297 L 22.70676803588867 92.87265014648438 L 24.72253799438477 102.8257827758789 C 24.81112670898438 103.0531387329102 24.85582733154297 103.2912826538086 24.85582733154297 103.5364990234375 C 24.85582733154297 104.5983810424805 24.00783920288086 105.4624633789062 22.96493911743164 105.4624633789062 L 22.75879669189453 105.4624633789062 L 22.75879669189453 113.7747802734375 C 22.75879669189453 114.8362808227539 21.91035842895508 115.7002792358398 20.86745834350586 115.7002792358398 C 19.82455825805664 115.7002792358398 18.97638893127441 114.8371887207031 18.97638893127441 113.7747802734375 L 18.97638893127441 105.4624633789062 L 18.52438735961914 105.4624633789062 L 18.52438735961914 113.7747802734375 C 18.52438735961914 114.8362808227539 17.67594718933105 115.7002792358398 16.6333179473877 115.7002792358398 C 15.59040832519531 115.7002792358398 14.74205780029297 114.8371887207031 14.74205780029297 113.7747802734375 L 14.74205780029297 105.4624633789062 L 14.53636741638184 105.4624633789062 C 13.49301719665527 105.4624633789062 12.64466857910156 104.5983810424805 12.64466857910156 103.5364990234375 C 12.64466857910156 103.2932205200195 12.68927764892578 103.0547943115234 12.77777862548828 102.8268051147461 L 14.79463768005371 92.87311553955078 L 13.57518768310547 97.48431396484375 C 13.41890716552734 98.35863494873047 12.63824844360352 99.02227020263672 11.72663879394531 99.02227020263672 C 10.68328857421875 99.02227020263672 9.835117340087891 98.15827941894531 9.835117340087891 97.09642028808594 C 9.835117340087891 97.00831604003906 9.842267990112305 96.92075347900391 9.856477737426758 96.82839965820312 C 9.829238891601562 96.73985290527344 9.826889038085938 96.64216613769531 9.854118347167969 96.54640197753906 L 12.67860794067383 86.53052520751953 C 12.8395881652832 85.60865020751953 13.61554718017578 84.94298553466797 14.53591728210449 84.94298553466797 Z"
                  stroke="none" fill="#b5b5b5"/>
        </g>
    </g>
</svg>
