<svg id="female-outline" xmlns="http://www.w3.org/2000/svg" width="18.008" height="38.266" viewBox="0 0 18.008 38.266">
  <g id="Path_3546" data-name="Path 3546" transform="translate(-61.628)" fill="none" stroke-linejoin="round">
    <path d="M70.631,6.987a3.494,3.494,0,1,0-3.493-3.494A3.5,3.5,0,0,0,70.631,6.987Z" stroke="none"/>
    <path d="M 70.63129425048828 5.987455368041992 C 72.00634765625 5.987455368041992 73.12503814697266 4.868775367736816 73.12503814697266 3.493725538253784 C 73.12503814697266 2.118675470352173 72.00634765625 0.9999955296516418 70.63129425048828 0.9999955296516418 C 69.25649261474609 0.9999955296516418 68.13800811767578 2.118675470352173 68.13800811767578 3.493725538253784 C 68.13800811767578 4.868775367736816 69.25649261474609 5.987455368041992 70.63129425048828 5.987455368041992 M 70.63129425048828 6.987455368041992 C 68.70509338378906 6.987455368041992 67.13800811767578 5.420345306396484 67.13800811767578 3.493725538253784 C 67.13800811767578 1.567105531692505 68.70458221435547 -4.461746357264929e-06 70.63129425048828 -4.461746357264929e-06 C 72.55791473388672 -4.461746357264929e-06 74.12503814697266 1.567105531692505 74.12503814697266 3.493725538253784 C 74.12503814697266 5.420345306396484 72.55791473388672 6.987455368041992 70.63129425048828 6.987455368041992 Z" stroke="none" fill="#b5b5b5"/>
  </g>
  <g id="Path_3547" data-name="Path 3547" transform="translate(-9.835 -77.742)" fill="none" stroke-linejoin="round">
    <path d="M27.822,96.662,24.97,86.546a1.909,1.909,0,0,0-1.875-1.6H14.583a1.909,1.909,0,0,0-1.876,1.6L9.854,96.662a.5.5,0,0,0,0,.285,1.763,1.763,0,0,0-.022.271,1.93,1.93,0,0,0,1.91,1.945,1.9,1.9,0,0,0,1.867-1.553l1.232-4.657-2.037,10.053a1.972,1.972,0,0,0-.134.717,1.93,1.93,0,0,0,1.911,1.945h.208v8.4a1.91,1.91,0,1,0,3.82,0v-8.4h.457v8.4a1.91,1.91,0,1,0,3.82,0v-8.4H23.1a1.93,1.93,0,0,0,1.91-1.945,1.965,1.965,0,0,0-.135-.718L22.835,92.952l1.222,4.618a1.906,1.906,0,0,0,3.786-.352,1.807,1.807,0,0,0-.022-.271A.511.511,0,0,0,27.822,96.662Z" stroke="none"/>
    <path d="M 14.58292388916016 85.94298553466797 C 14.13816452026367 85.94298553466797 13.77185440063477 86.26185607910156 13.69212532043457 86.71841430664062 C 13.68627548217773 86.75190734863281 13.67872428894043 86.78508758544922 13.66949462890625 86.81781005859375 L 10.84865379333496 96.82077026367188 C 10.86041259765625 96.91301727294922 10.85928726196289 97.00673675537109 10.8450756072998 97.09919738769531 C 10.83828544616699 97.14334106445312 10.83512496948242 97.18106842041016 10.83512496948242 97.21794128417969 C 10.83512496948242 97.73906707763672 11.24354553222656 98.16304016113281 11.74555397033691 98.16304016113281 C 12.17441558837891 98.16304016113281 12.55386543273926 97.84951782226562 12.628173828125 97.43374633789062 C 12.63296508789062 97.40695953369141 12.63884544372559 97.38035583496094 12.64581489562988 97.35403442382812 L 13.87746429443359 92.69674682617188 C 14.01574516296387 92.17385864257812 14.54472541809082 91.85569000244141 15.07145500183105 91.97857666015625 C 15.59817504882812 92.10147857666016 15.93171501159668 92.62091064453125 15.82430458068848 93.15100860595703 L 13.78728485107422 103.204216003418 C 13.77600479125977 103.2599182128906 13.75998497009277 103.3145599365234 13.73941421508789 103.3675384521484 C 13.6951847076416 103.4814605712891 13.67276382446289 103.6008605957031 13.67276382446289 103.7224044799805 C 13.67276382446289 104.2435989379883 14.08126449584961 104.667610168457 14.5833740234375 104.667610168457 L 14.79112434387207 104.667610168457 C 15.34340476989746 104.667610168457 15.79112434387207 105.1153259277344 15.79112434387207 105.667610168457 L 15.79112434387207 114.0630569458008 C 15.79112434387207 114.583984375 16.19942474365234 115.0077896118164 16.70128440856934 115.0077896118164 C 17.20304489135742 115.0077896118164 17.61126518249512 114.583984375 17.61126518249512 114.0630569458008 L 17.61126518249512 105.667610168457 C 17.61126518249512 105.1153259277344 18.05898475646973 104.667610168457 18.61126518249512 104.667610168457 L 19.06778526306152 104.667610168457 C 19.62006378173828 104.667610168457 20.06778526306152 105.1153259277344 20.06778526306152 105.667610168457 L 20.06778526306152 114.0630569458008 C 20.06778526306152 114.583984375 20.47600555419922 115.0077896118164 20.97776412963867 115.0077896118164 C 21.47967529296875 115.0077896118164 21.88801574707031 114.583984375 21.88801574707031 114.0630569458008 L 21.88801574707031 105.667610168457 C 21.88801574707031 105.1153259277344 22.33573532104492 104.667610168457 22.88801574707031 104.667610168457 L 23.09621429443359 104.667610168457 C 23.59787368774414 104.667610168457 24.00600433349609 104.2435989379883 24.00600433349609 103.7224044799805 C 24.00600433349609 103.5983352661133 23.98428344726562 103.4822845458984 23.93960571289062 103.3676071166992 C 23.91881561279297 103.3142471313477 23.90265464782715 103.2592010498047 23.89128494262695 103.2030792236328 L 21.85536575317383 93.15044403076172 C 21.74801445007324 92.62037658691406 22.08154487609863 92.10100555419922 22.60822486877441 91.97811126708984 C 23.13491821289062 91.85518646240234 23.66386413574219 92.17333984375 23.80220413208008 92.6961669921875 L 25.02397537231445 97.31391906738281 C 25.03079605102539 97.33969879150391 25.03657531738281 97.36573791503906 25.04131507873535 97.39197540283203 C 25.12200546264648 97.83876037597656 25.49725341796875 98.16304016113281 25.93358421325684 98.16304016113281 C 26.43509483337402 98.16304016113281 26.84310531616211 97.73906707763672 26.84310531616211 97.21794128417969 C 26.84310531616211 97.18191528320312 26.83973503112793 97.14217376708984 26.83281326293945 97.09645080566406 C 26.81912422180176 97.00605010986328 26.81793212890625 96.91444396972656 26.82906913757324 96.82420349121094 L 24.00752449035645 86.81778717041016 C 23.99828338623047 86.78501129150391 23.99071502685547 86.75177764892578 23.98486328125 86.71821594238281 C 23.90525436401367 86.26177978515625 23.53922462463379 85.94298553466797 23.09475326538086 85.94298553466797 L 14.58292388916016 85.94298553466797 M 14.58292388916016 84.94298553466797 L 23.09475326538086 84.94298553466797 C 24.02378463745117 84.94298553466797 24.80759429931641 85.61529541015625 24.96999359130859 86.54639434814453 L 27.82244491577148 96.66241455078125 C 27.85004425048828 96.75912475585938 27.84767532348633 96.85724639892578 27.82153511047363 96.94670104980469 C 27.83560562133789 97.03959655761719 27.84310531616211 97.12950134277344 27.84310531616211 97.21794128417969 C 27.84310531616211 98.2904052734375 26.98663330078125 99.16304016113281 25.93358421325684 99.16304016113281 C 25.01295471191406 99.16304016113281 24.22393417358398 98.49275970458984 24.05723571777344 97.56969451904297 L 22.83546447753906 92.95195007324219 L 24.87138366699219 103.0045776367188 C 24.96085357666016 103.2342147827148 25.00600433349609 103.474739074707 25.00600433349609 103.7224044799805 C 25.00600433349609 104.7948989868164 24.14954376220703 105.667610168457 23.09621429443359 105.667610168457 L 22.88801574707031 105.667610168457 L 22.88801574707031 114.0630569458008 C 22.88801574707031 115.1351699829102 22.03109359741211 116.0077896118164 20.97776412963867 116.0077896118164 C 19.92443466186523 116.0077896118164 19.06778526306152 115.1360855102539 19.06778526306152 114.0630569458008 L 19.06778526306152 105.667610168457 L 18.61126518249512 105.667610168457 L 18.61126518249512 114.0630569458008 C 18.61126518249512 115.1351699829102 17.75433540344238 116.0077896118164 16.70128440856934 116.0077896118164 C 15.64794540405273 116.0077896118164 14.79112434387207 115.1360855102539 14.79112434387207 114.0630569458008 L 14.79112434387207 105.667610168457 L 14.5833740234375 105.667610168457 C 13.52959442138672 105.667610168457 12.67276382446289 104.7948989868164 12.67276382446289 103.7224044799805 C 12.67276382446289 103.4766845703125 12.71781539916992 103.2358779907227 12.80720520019531 103.0056304931641 L 14.84422492980957 92.95241546630859 L 13.61257553100586 97.60971069335938 C 13.45473480224609 98.49275970458984 12.66627502441406 99.16304016113281 11.74555397033691 99.16304016113281 C 10.69176483154297 99.16304016113281 9.835124969482422 98.2904052734375 9.835124969482422 97.21794128417969 C 9.835124969482422 97.12894439697266 9.842344284057617 97.04050445556641 9.856683731079102 96.94723510742188 C 9.829185485839844 96.85781097412109 9.826805114746094 96.75912475585938 9.854314804077148 96.66241455078125 L 12.70703506469727 86.54639434814453 C 12.86962509155273 85.61529541015625 13.65334510803223 84.94298553466797 14.58292388916016 84.94298553466797 Z" stroke="none" fill="#b5b5b5"/>
  </g>
</svg>
