<svg id="Component_39_1" data-name="Component 39 – 1" xmlns="http://www.w3.org/2000/svg" width="48" height="48"
     viewBox="0 0 48 48">
    <g id="Group_10424" data-name="Group 10424" transform="translate(-824 -112)">
        <g id="Rectangle_9624" data-name="Rectangle 9624" transform="translate(824 112)" fill="none" stroke="#3190af"
           stroke-width="1">
            <rect width="48" height="48" rx="24" stroke="none"/>
            <rect x="0.5" y="0.5" width="47" height="47" rx="23.5" fill="none"/>
        </g>
        <g id="Group_10423" data-name="Group 10423" transform="translate(832.4 120.4)">
            <rect id="Rectangle_9623" data-name="Rectangle 9623" width="32" height="32" transform="translate(-0.4 -0.4)"
                  fill="none"/>
            <g id="Group_10260" data-name="Group 10260" transform="translate(5.6 6.6)">
                <path id="Path_2798" data-name="Path 2798"
                      d="M83.485,82.01H71.569a2.458,2.458,0,0,0-4.66,0h-1.86a.782.782,0,0,0,0,1.565h1.86a2.457,2.457,0,0,0,4.66,0H83.485a.782.782,0,1,0,0-1.565ZM69.239,83.686a.894.894,0,1,1,.894-.894A.895.895,0,0,1,69.239,83.686Z"
                      transform="translate(-64.267 -80.334)" fill="#45a0bc"/>
                <path id="Path_2799" data-name="Path 2799"
                      d="M83.485,210.543h-1.86a2.457,2.457,0,0,0-4.66,0H65.049a.782.782,0,1,0,0,1.565H76.965a2.457,2.457,0,0,0,4.66,0h1.86a.782.782,0,1,0,0-1.565Zm-4.19,1.676a.894.894,0,1,1,.894-.894A.895.895,0,0,1,79.295,212.219Z"
                      transform="translate(-64.267 -202.424)" fill="#45a0bc"/>
                <path id="Path_2800" data-name="Path 2800"
                      d="M83.485,339.076H74.921a2.458,2.458,0,0,0-4.66,0H65.049a.782.782,0,0,0,0,1.565h5.212a2.458,2.458,0,0,0,4.66,0h8.564a.782.782,0,1,0,0-1.565Zm-10.894,1.676a.894.894,0,1,1,.894-.894A.895.895,0,0,1,72.591,340.752Z"
                      transform="translate(-64.267 -324.253)" fill="#45a0bc"/>
            </g>
        </g>
    </g>
</svg>
