<svg id="follow" xmlns="http://www.w3.org/2000/svg" width="22.856" height="22.856" viewBox="0 0 22.856 22.856">
  <g id="Group_12382" data-name="Group 12382">
    <g id="Group_12381" data-name="Group 12381">
      <path id="Path_4270" data-name="Path 4270" d="M18.775,0H4.081A4.086,4.086,0,0,0,0,4.081V18.775a4.086,4.086,0,0,0,4.081,4.081H18.775a4.086,4.086,0,0,0,4.081-4.081V4.081A4.086,4.086,0,0,0,18.775,0Zm2.449,18.775a2.449,2.449,0,0,1-2.449,2.449H4.081a2.449,2.449,0,0,1-2.449-2.449V4.081A2.449,2.449,0,0,1,4.081,1.633H18.775a2.449,2.449,0,0,1,2.449,2.449Z" fill="#3190af"/>
    </g>
  </g>
  <g id="Group_12384" data-name="Group 12384" transform="translate(6.53 6.53)">
    <g id="Group_12383" data-name="Group 12383">
      <path id="Path_4271" data-name="Path 4271" d="M145.512,140.615h-3.265v-3.265a.816.816,0,0,0-1.633,0v3.265h-3.265a.816.816,0,1,0,0,1.633h3.265v3.265a.816.816,0,1,0,1.633,0v-3.265h3.265a.816.816,0,1,0,0-1.633Z" transform="translate(-136.533 -136.533)" fill="#3190af"/>
    </g>
  </g>
</svg>
