<svg id="header-schedule" xmlns="http://www.w3.org/2000/svg" width="32" height="40" viewBox="0 0 32 40">
    <g id="Group_10844" data-name="Group 10844" transform="translate(-1093 -8)">
        <rect id="Rectangle_9782" data-name="Rectangle 9782" width="32" height="40" transform="translate(1093 8)"
              fill="none"/>
        <g id="check" transform="translate(1097 16)">
            <path id="Path_4181" data-name="Path 4181"
                  d="M.352,17.1A.352.352,0,0,0,.7,16.75V6.511H21.475v3.864a.352.352,0,1,0,.7,0V3.427a2.14,2.14,0,0,0-2.137-2.138h-.922V.854A.855.855,0,0,0,18.265,0h-.653a.855.855,0,0,0-.854.854v.435H14.426V.854A.855.855,0,0,0,13.572,0h-.653a.855.855,0,0,0-.854.854v.435H9.733V.854A.855.855,0,0,0,8.879,0H8.226a.855.855,0,0,0-.854.854v.435H5.041V.854A.855.855,0,0,0,4.187,0H3.534A.855.855,0,0,0,2.68.854v.435H2.138A2.14,2.14,0,0,0,0,3.427V16.75A.352.352,0,0,0,.352,17.1ZM17.461.854A.151.151,0,0,1,17.612.7h.653a.151.151,0,0,1,.151.151V2.562a.151.151,0,0,1-.151.151h-.653a.151.151,0,0,1-.151-.151Zm-4.693,0A.151.151,0,0,1,12.919.7h.653a.151.151,0,0,1,.151.151V2.562a.151.151,0,0,1-.151.151h-.653a.151.151,0,0,1-.151-.151Zm-4.693,0A.151.151,0,0,1,8.226.7h.653A.151.151,0,0,1,9.03.854V2.562a.151.151,0,0,1-.151.151H8.226a.151.151,0,0,1-.151-.151Zm-4.693,0A.151.151,0,0,1,3.534.7h.653a.151.151,0,0,1,.151.151V2.562a.151.151,0,0,1-.151.151H3.534a.151.151,0,0,1-.151-.151ZM2.138,1.993H2.68v.569a.855.855,0,0,0,.854.854h.653a.855.855,0,0,0,.854-.854V1.993H7.372v.569a.855.855,0,0,0,.854.854h.653a.855.855,0,0,0,.854-.854V1.993h2.332v.569a.855.855,0,0,0,.854.854h.653a.855.855,0,0,0,.854-.854V1.993h2.332v.569a.855.855,0,0,0,.854.854h.653a.855.855,0,0,0,.854-.854V1.993h.922a1.436,1.436,0,0,1,1.434,1.434v2.38H.7V3.427A1.436,1.436,0,0,1,2.138,1.993Zm0,0"
                  fill="#45a0bc" stroke="#45a0bc" stroke-width="0.7"/>
            <path id="Path_4182" data-name="Path 4182"
                  d="M3.98,386.382H.915a.212.212,0,0,1-.211-.211v-1.807a.352.352,0,0,0-.7,0v1.807a.916.916,0,0,0,.915.915H3.98a.352.352,0,1,0,0-.7Zm0,0"
                  transform="translate(0 -366.011)" fill="#45a0bc" stroke="#45a0bc" stroke-width="0.7"/>
            <path id="Path_4183" data-name="Path 4183"
                  d="M52.663,160.762H51.441a.352.352,0,0,0,0,.7h1.222a.352.352,0,0,0,0-.7Zm0,0"
                  transform="translate(-48.695 -153.226)" fill="#45a0bc" stroke="#45a0bc" stroke-width="0.3"/>
            <path id="Path_4184" data-name="Path 4184"
                  d="M131.559,161.465h1.222a.352.352,0,0,0,0-.7h-1.222a.352.352,0,0,0,0,.7Zm0,0"
                  transform="translate(-125.057 -153.226)" fill="#45a0bc" stroke="#45a0bc" stroke-width="0.3"/>
            <path id="Path_4185" data-name="Path 4185"
                  d="M211.676,161.465H212.9a.352.352,0,0,0,0-.7h-1.222a.352.352,0,0,0,0,.7Zm0,0"
                  transform="translate(-201.418 -153.226)" fill="#45a0bc" stroke="#45a0bc" stroke-width="0.3"/>
            <path id="Path_4186" data-name="Path 4186"
                  d="M291.789,161.465h1.222a.352.352,0,0,0,0-.7h-1.222a.352.352,0,0,0,0,.7Zm0,0"
                  transform="translate(-277.776 -153.226)" fill="#45a0bc" stroke="#45a0bc" stroke-width="0.3"/>
            <path id="Path_4187" data-name="Path 4187"
                  d="M373.128,160.762h-1.222a.352.352,0,0,0,0,.7h1.222a.352.352,0,0,0,0-.7Zm0,0"
                  transform="translate(-354.138 -153.226)" fill="#45a0bc" stroke="#45a0bc" stroke-width="0.3"/>
            <path id="Path_4188" data-name="Path 4188"
                  d="M52.663,198.477H51.441a.352.352,0,0,0,0,.7h1.222a.352.352,0,0,0,0-.7Zm0,0"
                  transform="translate(-48.695 -189.173)" fill="#45a0bc" stroke="#45a0bc" stroke-width="0.3"/>
            <path id="Path_4189" data-name="Path 4189"
                  d="M131.559,199.18h1.222a.352.352,0,0,0,0-.7h-1.222a.352.352,0,0,0,0,.7Zm0,0"
                  transform="translate(-125.057 -189.173)" fill="#45a0bc" stroke="#45a0bc" stroke-width="0.3"/>
            <path id="Path_4190" data-name="Path 4190"
                  d="M211.676,199.18H212.9a.352.352,0,0,0,0-.7h-1.222a.352.352,0,0,0,0,.7Zm0,0"
                  transform="translate(-201.418 -189.173)" fill="#45a0bc" stroke="#45a0bc" stroke-width="0.3"/>
            <path id="Path_4191" data-name="Path 4191"
                  d="M291.789,199.18h1.222a.352.352,0,0,0,0-.7h-1.222a.352.352,0,0,0,0,.7Zm0,0"
                  transform="translate(-277.776 -189.173)" fill="#45a0bc" stroke="#45a0bc" stroke-width="0.3"/>
            <path id="Path_4192" data-name="Path 4192"
                  d="M373.128,198.477h-1.222a.352.352,0,0,0,0,.7h1.222a.352.352,0,0,0,0-.7Zm0,0"
                  transform="translate(-354.138 -189.173)" fill="#45a0bc" stroke="#45a0bc" stroke-width="0.3"/>
            <path id="Path_4193" data-name="Path 4193"
                  d="M130.491,246.494l1.06,1.06a.812.812,0,0,0,1.148,0l2.9-2.9a.812.812,0,0,0-1.148-1.148l-2.329,2.329-.486-.486a.812.812,0,1,0-1.148,1.148Z"
                  transform="translate(-121.958 -230.692)" fill="#45a0bc" stroke="#45a0bc" stroke-width="0.3"/>
            <path id="Path_4194" data-name="Path 4194"
                  d="M128.533,251.169v-2.805a.352.352,0,1,0-.7,0v2.357a4.663,4.663,0,0,0-6.4,6.037h-9.491a.352.352,0,0,0,0,.7h9.881a4.663,4.663,0,1,0,6.715-6.292Zm-2.842,7.657a3.961,3.961,0,1,1,3.961-3.961A3.965,3.965,0,0,1,125.691,258.825Zm0,0"
                  transform="translate(-106.355 -236.386)" fill="#45a0bc" stroke="#45a0bc" stroke-width="0.7"/>
            <g id="Group_10847" data-name="Group 10847" transform="translate(0.611 0.611)">
                <path id="Path_4195" data-name="Path 4195"
                      d="M341.67,320.527a2.842,2.842,0,1,0,2.842,2.842A2.845,2.845,0,0,0,341.67,320.527Zm.259,5.09a.288.288,0,0,0,.03-.128v-.352a.289.289,0,1,0-.579,0v.352a.286.286,0,0,0,.03.128,2.267,2.267,0,0,1-1.989-1.989.287.287,0,0,0,.128.03h.352a.289.289,0,0,0,0-.579h-.352a.289.289,0,0,0-.128.03,2.267,2.267,0,0,1,1.989-1.989.286.286,0,0,0-.03.128v.352a.289.289,0,1,0,.579,0v-.352a.288.288,0,0,0-.03-.128,2.267,2.267,0,0,1,1.989,1.989.288.288,0,0,0-.128-.03h-.352a.289.289,0,1,0,0,.579h.352a.286.286,0,0,0,.128-.03A2.267,2.267,0,0,1,341.929,325.617Zm0,0"
                      transform="translate(-322.945 -305.502)" fill="#45a0bc" stroke="#45a0bc" stroke-width="0.3"/>
                <path id="Path_4196" data-name="Path 4196"
                      d="M405.923,372.09h-.348v-.3a.289.289,0,0,0-.579,0v.586a.289.289,0,0,0,.289.289h.638a.289.289,0,1,0,0-.579Zm0,0"
                      transform="translate(-386.561 -354.513)" fill="#45a0bc" stroke="#45a0bc" stroke-width="0.3"/>
            </g>
        </g>
    </g>
</svg>
