<svg id="header-messages" xmlns="http://www.w3.org/2000/svg" width="32" height="40" viewBox="0 0 32 40">
    <rect id="Rectangle_9784" data-name="Rectangle 9784" width="32" height="40" fill="none"/>
    <g id="chat" transform="translate(2 8)">
        <g id="Group_9767" data-name="Group 9767">
            <path id="Path_2770" data-name="Path 2770"
                  d="M212.481,191.141H199.465a.41.41,0,1,0,0,.82h13.016a.41.41,0,1,0,0-.82Z"
                  transform="translate(-188.169 -182.335)" fill="#45a0bc" stroke="#45a0bc" stroke-width="0.5"/>
            <path id="Path_2771" data-name="Path 2771"
                  d="M212.481,248.474H199.465a.41.41,0,1,0,0,.82h13.016a.41.41,0,1,0,0-.82Z"
                  transform="translate(-188.169 -236.532)" fill="#45a0bc" stroke="#45a0bc" stroke-width="0.5"/>
            <path id="Path_2772" data-name="Path 2772"
                  d="M212.481,305.807H199.465a.41.41,0,1,0,0,.82h13.016a.41.41,0,1,0,0-.82Z"
                  transform="translate(-188.169 -290.73)" fill="#45a0bc" stroke="#45a0bc" stroke-width="0.5"/>
            <path id="Path_2773" data-name="Path 2773"
                  d="M157.117,125.549H141.5a2.388,2.388,0,0,0-2.386,2.386v9.823a2.388,2.388,0,0,0,2.386,2.386h10.949a.378.378,0,0,1,.3.145l3.536,4.476a.7.7,0,0,0,.556.273.726.726,0,0,0,.239-.041.705.705,0,0,0,.48-.674V140.1a2.4,2.4,0,0,0,1.95-2.345v-9.823A2.388,2.388,0,0,0,157.117,125.549Zm1.565,12.208a1.571,1.571,0,0,1-1.545,1.565.41.41,0,0,0-.4.41v4.282l-3.345-4.235a1.194,1.194,0,0,0-.942-.456H141.5a1.567,1.567,0,0,1-1.565-1.565v-9.823a1.567,1.567,0,0,1,1.565-1.565h15.621a1.567,1.567,0,0,1,1.565,1.565Z"
                  transform="translate(-131.502 -120.33)" fill="#45a0bc" stroke="#45a0bc" stroke-width="0.5"/>
            <path id="Path_2774" data-name="Path 2774"
                  d="M6.043,42.111a1.094,1.094,0,0,0-.707.407L2.518,46.085V42.51a.41.41,0,0,0-.4-.41A1.314,1.314,0,0,1,.82,40.791V32.24A1.311,1.311,0,0,1,2.13,30.93h13.6a1.311,1.311,0,0,1,1.309,1.309v1.582a.41.41,0,0,0,.82,0V32.24a2.132,2.132,0,0,0-2.13-2.13H2.13A2.132,2.132,0,0,0,0,32.24v8.551a2.14,2.14,0,0,0,1.7,2.085v3.629a.666.666,0,0,0,.453.637.686.686,0,0,0,.225.039.666.666,0,0,0,.525-.258l3.078-3.9a.277.277,0,0,1,.179-.1.41.41,0,0,0-.115-.812Z"
                  transform="translate(0 -30.11)" fill="#45a0bc" stroke="#45a0bc" stroke-width="0.5"/>
        </g>
    </g>
</svg>
