<svg id="header-notifications" xmlns="http://www.w3.org/2000/svg" width="32" height="40" viewBox="0 0 32 40">
    <rect id="Rectangle_9785" data-name="Rectangle 9785" width="32" height="40" fill="none"/>
    <g id="notification" transform="translate(5 8)">
        <path id="Path_2767" data-name="Path 2767"
              d="M48.811,12.322V10.078a7.278,7.278,0,0,0-5.156-6.953V2.109a2.109,2.109,0,1,0-4.219,0V3.125a7.278,7.278,0,0,0-5.156,6.953v2.244A11.04,11.04,0,0,1,31.194,20a.7.7,0,0,0,.508,1.19h6.4a3.516,3.516,0,0,0,6.89,0h6.4A.7.7,0,0,0,51.9,20,11.041,11.041,0,0,1,48.811,12.322ZM40.843,2.109a.7.7,0,0,1,1.406,0v.737c-.231-.022-.466-.034-.7-.034s-.472.012-.7.034Zm.7,20.484a2.113,2.113,0,0,1-1.988-1.406h3.977A2.113,2.113,0,0,1,41.546,22.594Zm-8.328-2.812a12.432,12.432,0,0,0,2.469-7.46V10.078a5.859,5.859,0,0,1,11.719,0v2.244a12.432,12.432,0,0,0,2.469,7.46Z"
              transform="translate(-30.999)" fill="#45a0bc"/>
        <path id="Path_2768" data-name="Path 2768"
              d="M392.376,59.171a.7.7,0,1,0,1.406,0,10.478,10.478,0,0,0-3.089-7.458.7.7,0,1,0-.994.994A9.081,9.081,0,0,1,392.376,59.171Z"
              transform="translate(-372.688 -49.092)" fill="#45a0bc"/>
        <path id="Path_2769" data-name="Path 2769"
              d="M31.7,59.874a.7.7,0,0,0,.7-.7,9.081,9.081,0,0,1,2.677-6.463.7.7,0,1,0-.994-.994A10.478,10.478,0,0,0,31,59.171.7.7,0,0,0,31.7,59.874Z"
              transform="translate(-31 -49.093)" fill="#45a0bc"/>
    </g>
</svg>
