<svg id="helpdesk_inactive" xmlns="http://www.w3.org/2000/svg" width="72" height="52" viewBox="0 0 72 52">
    <rect id="Rectangle_10005" data-name="Rectangle 10005" width="72" height="52" fill="none"/>
    <g id="support" transform="translate(0.244 4)">
        <g id="Group_10244" data-name="Group 10244" transform="translate(17.756 2)">
            <path id="Path_2818" data-name="Path 2818"
                  d="M50.53,16.535h-.1V14.109a14.109,14.109,0,1,0-28.218,0v2.426h-.594a4.032,4.032,0,0,0-3.861,4.158v6.188a3.911,3.911,0,0,0,3.81,4.009h3.714a.941.941,0,0,0,.9-.984c0-.019,0-.037,0-.056V17.723c0-.594-.347-1.188-.891-1.188H24.193V14.109a12.129,12.129,0,1,1,24.258,0v2.426H47.362c-.545,0-.891.594-.891,1.188V29.852a.941.941,0,0,0,.835,1.035l.056,0H48.5l-.1.148a7.822,7.822,0,0,1-6.287,3.119,4.9,4.9,0,0,0-9.7.941A4.95,4.95,0,0,0,37.362,40a5.1,5.1,0,0,0,3.564-1.535,4.357,4.357,0,0,0,1.188-2.376,9.8,9.8,0,0,0,7.871-3.911l.941-1.386a3.371,3.371,0,0,0,3.465-3.416V21.188C54.391,19.059,52.807,16.535,50.53,16.535ZM24.193,28.911H21.619a1.931,1.931,0,0,1-1.883-1.977c0-.018,0-.035,0-.053V20.693a2.053,2.053,0,0,1,1.881-2.178h2.574Zm15.3,8.168a2.921,2.921,0,0,1-2.129.941,3.02,3.02,0,0,1-2.97-2.921,2.921,2.921,0,1,1,5.842,0v0A2.624,2.624,0,0,1,39.49,37.079Zm12.921-9.7c0,1.337-1.287,1.535-1.881,1.535H48.451v-10.4H50.53c1.089,0,1.881,1.535,1.881,2.673Z"
                  transform="translate(-17.756)" fill="#858585" stroke="#858585" stroke-width="0.5"/>
        </g>
    </g>
</svg>
