<svg id="icon" xmlns="http://www.w3.org/2000/svg" width="16" height="14.176" viewBox="0 0 16 14.176">
    <path id="Path_2538" data-name="Path 2538"
          d="M3.674,17.2a.332.332,0,0,0,.335.358l4.033,0,.006-3.3s-.057-.545.472-.545h1.673a.519.519,0,0,1,.587.545l-.007,3.294h3.948a.414.414,0,0,0,.423-.445V11L9.581,6.055,3.674,11Z"
          transform="translate(-1.498 -3.381)" fill="#3190af"/>
    <path id="Path_2539" data-name="Path 2539"
          d="M0,8.7s.5.924,1.6,0l6.536-5.53,6.128,5.5c1.266.913,1.74,0,1.74,0L8.131,1.54Z"
          transform="translate(0 -1.54)" fill="#3190af"/>
    <path id="Path_2540" data-name="Path 2540" d="M22.744,4.275H21.168l.007,1.911,1.57,1.332Z"
          transform="translate(-8.633 -2.655)" fill="#3190af"/>
</svg>
