<svg fill="#3190AF" xmlns="http://www.w3.org/2000/svg" xmlns:xlink="http://www.w3.org/1999/xlink" width="64" height="64" viewBox="0 0 64 64">
  <defs>
    <clipPath id="clip-House">
      <rect width="64" height="64"/>
    </clipPath>
  </defs>
  <g id="House" clip-path="url(#clip-House)">
    <g id="House-2" data-name="House" transform="translate(-5.999 1.005)">
      <path id="Path_4615" data-name="Path 4615" d="M59.306,133.98a.728.728,0,0,0,.284.057.738.738,0,0,0,.739-.739v-2.955a.738.738,0,0,0-.454-.682L55.9,128v-4.31a.739.739,0,0,0,.739-.739v-2.216A.739.739,0,0,0,55.9,120H49.986a.739.739,0,0,0-.739.739v2.216a.739.739,0,0,0,.739.739v1.847l-7.843-3.267a.732.732,0,0,0-.569,0l-17.732,7.388a.738.738,0,0,0-.454.682V133.3a.738.738,0,0,0,1.023.682l2.671-1.113v18.9H21.911v-3.045c2.122-.513,3.694-3.21,3.694-6.56,0-3.728-1.947-6.649-4.433-6.649s-4.433,2.921-4.433,6.649c0,3.35,1.572,6.046,3.694,6.56v3.045H16.739a.739.739,0,0,0-.739.739v2.216a.739.739,0,0,0,.739.739H59.591a.739.739,0,0,0,.739-.739v-2.216a.739.739,0,0,0-.739-.739H56.635v-18.9Zm-8.581-12.5h4.433v.739H50.725Zm3.694,2.216v3.694l-2.955-1.231v-2.463Zm-36.2,18.471c0-2.8,1.353-5.172,2.955-5.172s2.955,2.368,2.955,5.172c0,2.359-.959,4.409-2.216,5v-2.784a.739.739,0,1,0-1.478,0v2.784C19.175,146.574,18.216,144.523,18.216,142.165Zm40.635,11.082v.739H17.478v-.739Zm-20.687-13.3H30.776a.739.739,0,0,0-.739.739v11.082H28.56V132.252l13.3-5.541,13.3,5.541v19.517H38.9V140.687A.739.739,0,0,0,38.165,139.948Zm-.739,1.478v10.344H31.515V141.426Zm4.717-16.2a.735.735,0,0,0-.569,0l-16.709,6.962v-1.355l16.993-7.08,16.993,7.08v1.355Z" transform="translate(-0.001 -101.661)"/>
      <path id="Path_4616" data-name="Path 4616" d="M224.739,394.955a.739.739,0,0,0,.739-.739v-1.478a.739.739,0,0,0-1.478,0v1.478A.739.739,0,0,0,224.739,394.955Z" transform="translate(-188.792 -348.541)"/>
      <path id="Path_4617" data-name="Path 4617" d="M280,336.739v7.388a.739.739,0,0,0,.739.739H292.56a.739.739,0,0,0,.739-.739v-7.388a.739.739,0,0,0-.739-.739H280.739A.739.739,0,0,0,280,336.739Zm1.478.739h10.344v5.911H281.478Z" transform="translate(-239.62 -297.712)"/>
      <path id="Path_4618" data-name="Path 4618" d="M248,220.433A4.433,4.433,0,1,0,252.433,216,4.433,4.433,0,0,0,248,220.433Zm7.388,0a2.955,2.955,0,1,1-2.955-2.955A2.955,2.955,0,0,1,255.388,220.433Z" transform="translate(-210.575 -188.795)"/>
      <path id="Path_4619" data-name="Path 4619" d="M30.725,12.444A5.172,5.172,0,0,0,21.3,10.3a4.433,4.433,0,1,0-.869,8.78h9.974a3.325,3.325,0,0,0,.319-6.634ZM30.406,17.6H20.432a2.955,2.955,0,1,1,.977-5.744.739.739,0,0,0,.9-.362A3.694,3.694,0,0,1,29.3,13.155c0,.013,0,.026,0,.04a.739.739,0,0,0,.845.731,1.847,1.847,0,1,1,.264,3.675Z" transform="translate(0 0)"/>
    </g>
  </g>
</svg>
