<svg id="info-white" xmlns="http://www.w3.org/2000/svg" width="32" height="32" viewBox="0 0 32 32">
  <rect id="Rectangle_10062" data-name="Rectangle 10062" width="32" height="32" fill="none"/>
  <g id="info_1_" data-name="info (1)" transform="translate(6 5.992)">
    <g id="Group_13125" data-name="Group 13125" transform="translate(0 0.008)">
      <g id="Group_13124" data-name="Group 13124" transform="translate(0 0)">
        <path id="Path_4503" data-name="Path 4503" d="M10,.008a10,10,0,1,0,10,10A10.011,10.011,0,0,0,10,.008Zm0,18.181a8.181,8.181,0,1,1,8.182-8.181A8.191,8.191,0,0,1,10,18.189Z" transform="translate(0 -0.008)" fill="#fff"/>
        <path id="Path_4504" data-name="Path 4504" d="M150.909,130.008a.909.909,0,0,0-.909.909v6.06a.909.909,0,0,0,1.818,0v-6.06A.909.909,0,0,0,150.909,130.008Z" transform="translate(-140.909 -122.129)" fill="#fff"/>
        <path id="Path_4505" data-name="Path 4505" d="M150.909,70.011a.909.909,0,1,0,.643.266A.917.917,0,0,0,150.909,70.011Z" transform="translate(-140.909 -65.768)" fill="#fff"/>
      </g>
    </g>
  </g>
</svg>
