<svg id="kitchen-icon" xmlns="http://www.w3.org/2000/svg" width="80" height="80" viewBox="0 0 80 80">
  <rect id="_129330626" data-name="129330626" width="80" height="80" rx="4" fill="none"/>
  <g id="kitchen-3" transform="translate(8 8)">
    <path id="Path_3180" data-name="Path 3180" d="M62.933,96h-19.2a1.067,1.067,0,0,0-1.067,1.067V121.6H19.2v-3.2a1.067,1.067,0,0,0-1.067-1.067h-3.2v2.133h2.133V121.6H12.8v-4.267H10.667V121.6H6.4v-2.133H8.533v-2.133h-3.2A1.067,1.067,0,0,0,4.267,118.4v3.2h-3.2A1.067,1.067,0,0,0,0,122.667v23.467A1.067,1.067,0,0,0,1.067,147.2H62.933A1.067,1.067,0,0,0,64,146.133V97.067A1.067,1.067,0,0,0,62.933,96ZM44.8,98.133H61.867v12.8H44.8ZM42.667,128h-19.2v-4.267h19.2ZM2.133,123.733h19.2V128H2.133Zm0,6.4h19.2v14.933H2.133Zm21.333,0H32v14.933H23.467Zm10.667,0h8.533v14.933H34.133ZM44.8,145.067v-32H61.867v32Zm0,0" transform="translate(0 -83.2)" fill="#3190af" stroke="#3190af" stroke-width="0.2"/>
    <path id="Path_3181" data-name="Path 3181" d="M352,144h2.133v4.267H352Zm0,0" transform="translate(-305.067 -124.8)" fill="#3190af" stroke="#3190af" stroke-width="0.2"/>
    <path id="Path_3182" data-name="Path 3182" d="M352,256h2.133v4.267H352Zm0,0" transform="translate(-305.067 -221.867)" fill="#3190af" stroke="#3190af" stroke-width="0.2"/>
    <path id="Path_3183" data-name="Path 3183" d="M34.133,313.067A1.067,1.067,0,1,1,33.067,312,1.067,1.067,0,0,1,34.133,313.067Zm0,0" transform="translate(-27.733 -270.4)" fill="#3190af" stroke="#3190af" stroke-width="0.2"/>
    <path id="Path_3184" data-name="Path 3184" d="M66.133,313.067A1.067,1.067,0,1,1,65.067,312,1.067,1.067,0,0,1,66.133,313.067Zm0,0" transform="translate(-55.467 -270.4)" fill="#3190af" stroke="#3190af" stroke-width="0.2"/>
    <path id="Path_3185" data-name="Path 3185" d="M98.133,313.067A1.067,1.067,0,1,1,97.067,312,1.067,1.067,0,0,1,98.133,313.067Zm0,0" transform="translate(-83.2 -270.4)" fill="#3190af" stroke="#3190af" stroke-width="0.2"/>
    <path id="Path_3186" data-name="Path 3186" d="M130.133,313.067A1.067,1.067,0,1,1,129.067,312,1.067,1.067,0,0,1,130.133,313.067Zm0,0" transform="translate(-110.933 -270.4)" fill="#3190af" stroke="#3190af" stroke-width="0.2"/>
    <path id="Path_3187" data-name="Path 3187" d="M1.067,20.267H22.4A1.067,1.067,0,0,0,23.467,19.2V16a1.067,1.067,0,0,0-.312-.754l-4.267-4.267a1.067,1.067,0,0,0-.754-.312H17.067v-9.6A1.067,1.067,0,0,0,16,0H7.467A1.067,1.067,0,0,0,6.4,1.067v9.6H5.333a1.067,1.067,0,0,0-.754.313L.312,15.246A1.067,1.067,0,0,0,0,16v3.2A1.067,1.067,0,0,0,1.067,20.267ZM8.533,2.133h6.4v8.533h-6.4Zm-6.4,14.308L5.775,12.8H17.692l3.642,3.642v1.692H2.133Zm0,0" transform="translate(0 0)" fill="#3190af" stroke="#3190af" stroke-width="0.2"/>
    <path id="Path_3188" data-name="Path 3188" d="M45.867,368h-12.8A1.067,1.067,0,0,0,32,369.067V377.6a1.067,1.067,0,0,0,1.067,1.067h12.8a1.067,1.067,0,0,0,1.067-1.067v-8.533A1.067,1.067,0,0,0,45.867,368ZM44.8,376.533H34.133v-6.4H44.8Zm0,0" transform="translate(-27.733 -318.933)" fill="#3190af" stroke="#3190af" stroke-width="0.2"/>
    <path id="Path_3189" data-name="Path 3189" d="M232,312h4.267v2.133H232Zm0,0" transform="translate(-201.067 -270.4)" fill="#3190af" stroke="#3190af" stroke-width="0.2"/>
    <path id="Path_3190" data-name="Path 3190" d="M208,392h2.133v4.267H208Zm0,0" transform="translate(-180.267 -339.733)" fill="#3190af" stroke="#3190af" stroke-width="0.2"/>
    <path id="Path_3191" data-name="Path 3191" d="M272,392h2.133v4.267H272Zm0,0" transform="translate(-235.733 -339.733)" fill="#3190af" stroke="#3190af" stroke-width="0.2"/>
    <path id="Path_3192" data-name="Path 3192" d="M185.067,26.667h6.4a1.067,1.067,0,0,0,1.067-1.067V24.533a4.267,4.267,0,0,0-3.2-4.115V0H187.2V20.418a4.267,4.267,0,0,0-3.2,4.115V25.6A1.067,1.067,0,0,0,185.067,26.667Zm3.2-4.267a2.133,2.133,0,0,1,2.133,2.133h-4.267A2.133,2.133,0,0,1,188.267,22.4Zm0,0" transform="translate(-159.467 0)" fill="#3190af" stroke="#3190af" stroke-width="0.2"/>
    <path id="Path_3193" data-name="Path 3193" d="M241.067,18.133h6.4a1.067,1.067,0,0,0,1.067-1.067V16a4.267,4.267,0,0,0-3.2-4.115V0H243.2V11.885A4.267,4.267,0,0,0,240,16v1.067A1.067,1.067,0,0,0,241.067,18.133Zm3.2-4.267A2.133,2.133,0,0,1,246.4,16h-4.267A2.133,2.133,0,0,1,244.267,13.867Zm0,0" transform="translate(-208 0)" fill="#3190af" stroke="#3190af" stroke-width="0.2"/>
  </g>
</svg>
