<svg id="layout-icon" xmlns="http://www.w3.org/2000/svg" width="80" height="80" viewBox="0 0 80 80">
  <rect id="_129330626" data-name="129330626" width="80" height="80" rx="4" fill="none"/>
  <g id="layout" transform="translate(9.714 11.667)">
    <g id="Group_12215" data-name="Group 12215" transform="translate(1.925 0)">
      <g id="Group_12214" data-name="Group 12214" transform="translate(0 0)">
        <path id="Path_4204" data-name="Path 4204" d="M55.682,5.686H49.9a.806.806,0,0,0,0,1.613h5.777a.872.872,0,0,1,.871.871V54.183a.872.872,0,0,1-.871.871H7.673a4.134,4.134,0,1,1,3.9-5.5.948.948,0,0,0,1.844-.312V7.3H44.894a.806.806,0,0,0,0-1.613H13.419c0-.027,0-.053,0-.079q0-.07-.007-.139c0-.05-.007-.1-.011-.151s-.008-.092-.014-.138-.012-.1-.019-.148-.013-.091-.02-.136-.016-.1-.025-.145-.017-.091-.027-.135-.021-.095-.032-.142-.022-.089-.033-.134-.025-.092-.039-.138-.026-.088-.04-.132-.03-.09-.045-.135-.03-.087-.046-.13-.034-.088-.051-.132-.034-.085-.052-.127-.037-.085-.057-.128-.038-.084-.058-.125-.041-.083-.062-.124-.042-.082-.064-.122-.045-.081-.068-.121-.045-.079-.069-.118-.049-.078-.073-.117-.049-.077-.074-.115-.052-.076-.079-.113-.052-.074-.079-.111-.056-.073-.084-.11-.055-.072-.084-.107-.059-.071-.089-.105-.059-.069-.089-.1-.062-.068-.094-.1-.062-.066-.093-.1-.066-.065-.1-.1-.064-.063-.1-.094-.069-.062-.1-.093-.067-.06-.1-.089-.072-.059-.108-.088-.069-.056-.1-.083-.075-.056-.113-.084-.071-.053-.108-.078S10.829.968,10.79.942s-.073-.049-.111-.073S10.6.82,10.557.8L10.444.729C10.4.705,10.359.683,10.317.661S10.241.619,10.2.6,10.114.558,10.07.537L9.953.482C9.908.462,9.862.444,9.816.425S9.738.392,9.7.377,9.6.342,9.556.325L9.438.283c-.049-.016-.1-.03-.148-.045L9.172.2C9.121.189,9.07.177,9.018.164L8.9.135C8.847.123,8.794.113,8.74.1L8.624.08C8.567.071,8.509.063,8.452.055L8.344.04C8.28.032,8.215.027,8.149.021L8.06.013Q7.916,0,7.771,0A5.748,5.748,0,0,0,1.925,5.748v30.3a.806.806,0,1,0,1.613,0V5.748A4.135,4.135,0,0,1,7.744,1.614a4.2,4.2,0,0,1,4.064,4.216v41.1a5.742,5.742,0,0,0-8.27,0V41.056a.806.806,0,1,0-1.613,0v9.863a5.754,5.754,0,0,0,5.747,5.747H55.681a2.487,2.487,0,0,0,2.484-2.484V8.17A2.486,2.486,0,0,0,55.682,5.686Z" transform="translate(-1.925 0)" fill="#3190af" stroke="#3190af" stroke-width="0.6"/>
      </g>
    </g>
    <g id="Group_12217" data-name="Group 12217" transform="translate(15.522 11.952)">
      <g id="Group_12216" data-name="Group 12216">
        <path id="Path_4205" data-name="Path 4205" d="M161.477,113.291a.806.806,0,0,0,.807-.807V110a2.008,2.008,0,0,0-2.006-2.006h-33.5A2.008,2.008,0,0,0,124.776,110v33.5a2.008,2.008,0,0,0,2.006,2.006h33.5a2.008,2.008,0,0,0,2.006-2.006V119.484a.806.806,0,1,0-1.613,0v5.409H150.325a.806.806,0,1,0,0,1.613H160.67v6.751h-3.665a.806.806,0,1,0,0,1.613h3.665v8.623a.393.393,0,0,1-.393.393H141.393V134.87h7.829a.806.806,0,1,0,0-1.613H134.556a.806.806,0,0,0,0,1.613h5.225v9.016h-13a.393.393,0,0,1-.393-.393V134.87h2.62a.806.806,0,1,0,0-1.613h-2.62V121.414h12.262a.806.806,0,0,0,.806-.807V116.87a.806.806,0,1,0-1.613,0V119.8H126.389V110a.393.393,0,0,1,.393-.393h11.062v2.271a.806.806,0,1,0,1.613,0V109.6h10.062V120.82a.807.807,0,1,0,1.613,0V109.6h9.146a.393.393,0,0,1,.393.393v2.488A.806.806,0,0,0,161.477,113.291Z" transform="translate(-124.776 -107.991)" fill="#3190af" stroke="#3190af" stroke-width="0.6"/>
      </g>
    </g>
  </g>
</svg>
