<svg id="like-active" xmlns="http://www.w3.org/2000/svg" width="32"
     height="32" viewBox="0 0 32 32">
    <defs>
        <filter id="heart" x="3.5" y="5.5" width="25" height="22.757" filterUnits="userSpaceOnUse">
            <feOffset dy="1" input="SourceAlpha"/>
            <feGaussianBlur result="blur"/>
            <feFlood flood-opacity="0.161"/>
            <feComposite operator="in" in2="blur"/>
            <feComposite in="SourceGraphic"/>
        </filter>
    </defs>
    <rect id="Rectangle_10096" data-name="Rectangle 10096" width="32" height="32" fill="none"/>
    <g transform="matrix(1, 0, 0, 1, 0, 0)" filter="url(#heart)">
        <path id="heart-2" data-name="heart"
              d="M12,55.351a.7.7,0,0,1-.352-.094A41.988,41.988,0,0,1,5.878,51.1a23.807,23.807,0,0,1-4-4.29A9.048,9.048,0,0,1,0,41.667a7.431,7.431,0,0,1,1.9-4.976,6.213,6.213,0,0,1,4.625-2.1A6.418,6.418,0,0,1,12,37.844a6.418,6.418,0,0,1,5.479-3.25,6.248,6.248,0,0,1,4.447,1.892A7.325,7.325,0,0,1,24,41.676a9.224,9.224,0,0,1-1.909,5.139,24.114,24.114,0,0,1-4,4.288,42.132,42.132,0,0,1-5.74,4.153.7.7,0,0,1-.353.1Z"
              transform="translate(4 -28.59)" fill="#3190af" stroke="#dedede" stroke-width="1"/>
    </g>
</svg>
