<svg id="location-icon-list" xmlns="http://www.w3.org/2000/svg" width="24" height="16" viewBox="0 0 24 16">
    <rect id="Rectangle_8417" data-name="Rectangle 8417" width="24" height="16" fill="none"/>
    <g id="location-pin" transform="translate(8 2)">
        <g id="Group_5" data-name="Group 5" transform="translate(0)">
            <path id="Path_8" data-name="Path 8"
                  d="M83.03,0a4.077,4.077,0,0,0-4.073,4.073c0,.9.531,2.275,1.672,4.319.778,1.395,1.553,2.573,1.586,2.623l.56.849a.305.305,0,0,0,.509,0l.56-.849c.032-.049.8-1.217,1.586-2.623C86.571,6.347,87.1,4.975,87.1,4.073A4.077,4.077,0,0,0,83.03,0ZM84.9,8.094c-.773,1.386-1.53,2.536-1.562,2.584l-.305.463-.305-.463c-.032-.049-.795-1.209-1.562-2.584a10.4,10.4,0,0,1-1.595-4.022,3.462,3.462,0,1,1,6.925,0A10.4,10.4,0,0,1,84.9,8.094Z"
                  transform="translate(-78.957)" fill="#5d5d5d"/>
            <path id="Path_9" data-name="Path 9"
                  d="M155.568,73.291a2.235,2.235,0,1,0,2.277,2.235A2.259,2.259,0,0,0,155.568,73.291Zm0,3.865a1.631,1.631,0,1,1,1.661-1.631A1.648,1.648,0,0,1,155.568,77.156Z"
                  transform="translate(-151.495 -71.52)" fill="#5d5d5d"/>
        </g>
    </g>
</svg>
