<svg id="male_inactive" xmlns="http://www.w3.org/2000/svg" width="64" height="64" viewBox="0 0 64 64">
    <g id="Rectangle_9560" data-name="Rectangle 9560" fill="none" stroke="#b5b5b5" stroke-width="1">
        <rect width="64" height="64" rx="4" stroke="none"/>
        <rect x="0.5" y="0.5" width="63" height="63" rx="3.5" fill="none"/>
    </g>
    <g id="Group_10965" data-name="Group 10965" transform="translate(23 13)">
        <g id="Path_3545" data-name="Path 3545" transform="translate(-263.934)" fill="none" stroke-linejoin="round">
            <path d="M272.849,7.459a3.73,3.73,0,1,0-3.73-3.73A3.734,3.734,0,0,0,272.849,7.459Z" stroke="none"/>
            <path d="M 272.8486022949219 6.459283828735352 C 274.3537902832031 6.459283828735352 275.578369140625 5.234773635864258 275.578369140625 3.729643821716309 C 275.578369140625 2.22451376914978 274.3537902832031 1.000003814697266 272.8486022949219 1.000003814697266 C 271.3434753417969 1.000003814697266 270.1189880371094 2.22451376914978 270.1189880371094 3.729643821716309 C 270.1189880371094 5.234773635864258 271.3434753417969 6.459283828735352 272.8486022949219 6.459283828735352 M 272.8486022949219 7.459283828735352 C 270.7921752929688 7.459283828735352 269.1189880371094 5.78636360168457 269.1189880371094 3.729643821716309 C 269.1189880371094 1.672923803329468 270.7921752929688 3.821716290985933e-06 272.8486022949219 3.821716290985933e-06 C 274.9056396484375 3.821716290985933e-06 276.578369140625 1.672923803329468 276.578369140625 3.729643821716309 C 276.578369140625 5.78636360168457 274.9056396484375 7.459283828735352 272.8486022949219 7.459283828735352 Z"
                  stroke="none" fill="#b5b5b5"/>
        </g>
        <g id="Path_3548" data-name="Path 3548" transform="translate(-211.818 -77.256)" fill="none"
           stroke-linejoin="round">
            <path d="M229.627,96.613a.475.475,0,0,0,.013-.232l-1.856-9.849a1.881,1.881,0,0,0-1.863-1.59H215.546a1.877,1.877,0,0,0-1.86,1.577l-1.859,9.861a.482.482,0,0,0,.013.232,1.66,1.66,0,0,0-.021.264,1.89,1.89,0,0,0,3.75.331l1.172-7.323-.015,23.37a1.891,1.891,0,0,0,3.783,0V101.687h.451v11.568a1.892,1.892,0,0,0,3.783,0l-.015-23.369,1.173,7.334a1.89,1.89,0,0,0,3.749-.342A1.654,1.654,0,0,0,229.627,96.613Z"
                  stroke="none"/>
            <path d="M 215.5457305908203 85.9429931640625 C 215.1087799072266 85.9429931640625 214.7418060302734 86.25267791748047 214.6731262207031 86.67934417724609 C 214.6717224121094 86.68815612792969 214.6701812744141 86.69694519042969 214.6685180664062 86.70571899414062 L 212.8282470703125 96.46617126464844 C 212.8432464599609 96.56690216064453 212.8428192138672 96.66962432861328 212.8266906738281 96.77078247070312 C 212.8207397460938 96.80814361572266 212.8179779052734 96.84194183349609 212.8179779052734 96.87715148925781 C 212.8179779052734 97.36851501464844 213.2179718017578 97.76826477050781 213.7096252441406 97.76826477050781 C 214.1349945068359 97.76826477050781 214.5008544921875 97.46125793457031 214.5830383300781 97.03694915771484 L 215.7524871826172 89.72685241699219 C 215.8348846435547 89.21171569824219 216.2996520996094 88.84645843505859 216.8194885253906 88.88799285888672 C 217.3395080566406 88.92949676513672 217.7402648925781 89.36378479003906 217.7399291992188 89.88547515869141 L 217.7248077392578 113.2547149658203 C 217.7248077392578 113.7458877563477 218.1245727539062 114.1454772949219 218.6159362792969 114.1454772949219 C 219.1075439453125 114.1454772949219 219.5074920654297 113.7458877563477 219.5074920654297 113.2547149658203 L 219.5074920654297 101.6870574951172 C 219.5074920654297 101.1347732543945 219.9552154541016 100.6870574951172 220.5074920654297 100.6870574951172 L 220.9586944580078 100.6870574951172 C 221.5109710693359 100.6870574951172 221.9586944580078 101.1347732543945 221.9586944580078 101.6870574951172 L 221.9586944580078 113.2546234130859 C 221.9586944580078 113.7457962036133 222.3589782714844 114.1453857421875 222.8509979248047 114.1453857421875 C 223.3421478271484 114.1453857421875 223.7417449951172 113.7456359863281 223.7417449951172 113.2549285888672 L 223.7264556884766 89.88547515869141 C 223.7261199951172 89.36379241943359 224.1268615722656 88.92950439453125 224.6468811035156 88.88799285888672 C 225.1669769287109 88.84654235839844 225.6314849853516 89.21172332763672 225.7138977050781 89.72683715820312 L 226.8852233886719 97.04778289794922 C 226.9664154052734 97.46581268310547 227.3317260742188 97.76826477050781 227.7573699951172 97.76826477050781 C 228.2487335205078 97.76826477050781 228.6484832763672 97.36851501464844 228.6484985351562 96.88037872314453 C 228.6483764648438 96.843994140625 228.6455688476562 96.80961608886719 228.6399383544922 96.77528381347656 C 228.6230926513672 96.67250061035156 228.6224365234375 96.56803894042969 228.6377410888672 96.46564483642578 L 226.8003692626953 86.71797180175781 C 226.7987823486328 86.70950317382812 226.7972869873047 86.70100402832031 226.7958984375 86.69248199462891 C 226.7256317138672 86.25820159912109 226.357421875 85.9429931640625 225.9203643798828 85.9429931640625 L 215.5457305908203 85.9429931640625 M 215.5457305908203 84.9429931640625 L 225.9203643798828 84.9429931640625 C 226.8505096435547 84.9429931640625 227.6339263916016 85.61111450195312 227.7830657958984 86.53274536132812 L 229.6395263671875 96.38169860839844 C 229.6548004150391 96.46141815185547 229.6495666503906 96.54032897949219 229.6267700195312 96.61344146728516 C 229.6414184570312 96.70277404785156 229.6482086181641 96.79019165039062 229.6484832763672 96.87715148925781 C 229.6484832763672 97.91986846923828 228.8000793457031 98.76826477050781 227.7573699951172 98.76826477050781 C 226.8457946777344 98.76826477050781 226.0646362304688 98.11660766601562 225.8999176025391 97.21914672851562 L 224.7264556884766 89.88482666015625 L 224.7417449951172 113.2542724609375 C 224.7417449951172 114.2969665527344 223.8936157226562 115.1453857421875 222.8509979248047 115.1453857421875 C 221.8072967529297 115.1453857421875 220.9586944580078 114.2978820800781 220.9586944580078 113.2546234130859 L 220.9586944580078 101.6870574951172 L 220.5074920654297 101.6870574951172 L 220.5074920654297 113.2547149658203 C 220.5074920654297 114.2970733642578 219.6590728759766 115.1454772949219 218.6159362792969 115.1454772949219 C 217.57275390625 115.1454772949219 216.7248077392578 114.2979736328125 216.7248077392578 113.2547149658203 L 216.7399291992188 89.88482666015625 L 215.5683441162109 97.20828247070312 C 215.4017486572266 98.11660766601562 214.6212158203125 98.76826477050781 213.7096252441406 98.76826477050781 C 212.6663818359375 98.76826477050781 211.8179779052734 97.91986846923828 211.8179779052734 96.87715148925781 C 211.8179779052734 96.79019165039062 211.8247680664062 96.70376586914062 211.8391571044922 96.61344146728516 C 211.8165435791016 96.54032897949219 211.8116455078125 96.46141815185547 211.8265686035156 96.38169860839844 L 213.6858367919922 86.52043151855469 C 213.8320770263672 85.61184692382812 214.6151428222656 84.9429931640625 215.5457305908203 84.9429931640625 Z"
                  stroke="none" fill="#b5b5b5"/>
        </g>
    </g>
</svg>
