<svg id="male-filled" xmlns="http://www.w3.org/2000/svg" width="15.874" height="38.173" viewBox="0 0 15.874 38.173">
  <path id="Path_3548" data-name="Path 3548" d="M227.672,96.613a.531.531,0,0,0,.011-.232l-1.653-9.849a1.747,1.747,0,0,0-1.658-1.59h-9.236a1.742,1.742,0,0,0-1.656,1.577l-1.655,9.861a.539.539,0,0,0,.011.232,1.859,1.859,0,0,0-.019.264,1.8,1.8,0,0,0,1.684,1.891,1.752,1.752,0,0,0,1.655-1.56l1.043-7.323-.013,23.37a1.7,1.7,0,1,0,3.368,0V101.687h.4v11.568a1.7,1.7,0,1,0,3.368,0l-.014-23.369,1.045,7.334a1.748,1.748,0,0,0,1.654,1.549,1.8,1.8,0,0,0,1.684-1.891A1.853,1.853,0,0,0,227.672,96.613Z" transform="translate(-211.818 -76.973)" fill="#fff"/>
  <path id="Path_4544" data-name="Path 4544" d="M70.631,6.987a3.494,3.494,0,1,0-3.493-3.494A3.5,3.5,0,0,0,70.631,6.987Z" transform="translate(-62.447)" fill="#fff"/>
</svg>
