<svg xmlns="http://www.w3.org/2000/svg" width="16.874" height="38.673" viewBox="0 0 16.874 38.673">
  <g id="male-outline" transform="translate(0.5)">
    <path id="Path_3548" data-name="Path 3548" d="M227.672,96.613a.531.531,0,0,0,.011-.232l-1.653-9.849a1.747,1.747,0,0,0-1.658-1.59h-9.236a1.742,1.742,0,0,0-1.656,1.577l-1.655,9.861a.539.539,0,0,0,.011.232,1.859,1.859,0,0,0-.019.264,1.8,1.8,0,0,0,1.684,1.891,1.752,1.752,0,0,0,1.655-1.56l1.043-7.323-.013,23.37a1.7,1.7,0,1,0,3.368,0V101.687h.4v11.568a1.7,1.7,0,1,0,3.368,0l-.014-23.369,1.045,7.334a1.748,1.748,0,0,0,1.654,1.549,1.8,1.8,0,0,0,1.684-1.891A1.853,1.853,0,0,0,227.672,96.613Z" transform="translate(-211.818 -76.973)" fill="none" stroke="#b5b5b5" stroke-width="1"/>
    <g id="Path_4544" data-name="Path 4544" transform="translate(-62.447)" fill="none" stroke-linejoin="round">
      <path d="M70.631,6.987a3.494,3.494,0,1,0-3.493-3.494A3.5,3.5,0,0,0,70.631,6.987Z" stroke="none"/>
      <path d="M 70.63129425048828 5.987455368041992 C 72.00634765625 5.987455368041992 73.12503814697266 4.868775367736816 73.12503814697266 3.493725538253784 C 73.12503814697266 2.118675470352173 72.00634765625 0.9999955296516418 70.63129425048828 0.9999955296516418 C 69.25649261474609 0.9999955296516418 68.13800811767578 2.118675470352173 68.13800811767578 3.493725538253784 C 68.13800811767578 4.868775367736816 69.25649261474609 5.987455368041992 70.63129425048828 5.987455368041992 M 70.63129425048828 6.987455368041992 C 68.70509338378906 6.987455368041992 67.13800811767578 5.420345306396484 67.13800811767578 3.493725538253784 C 67.13800811767578 1.567105531692505 68.70458221435547 -4.461746357264929e-06 70.63129425048828 -4.461746357264929e-06 C 72.55791473388672 -4.461746357264929e-06 74.12503814697266 1.567105531692505 74.12503814697266 3.493725538253784 C 74.12503814697266 5.420345306396484 72.55791473388672 6.987455368041992 70.63129425048828 6.987455368041992 Z" stroke="none" fill="#b5b5b5"/>
    </g>
  </g>
</svg>
