<svg id="me_active" xmlns="http://www.w3.org/2000/svg" width="72" height="52" viewBox="0 0 72 52">
    <rect id="Rectangle_10009" data-name="Rectangle 10009" width="72" height="52" fill="none"/>
    <path id="user"
          d="M36.7,6.3A21.5,21.5,0,0,0,6.3,36.7,21.5,21.5,0,0,0,36.7,6.3ZM10.779,37.154a10.887,10.887,0,0,1,21.443,0,18.939,18.939,0,0,1-21.443,0ZM14.664,18.8A6.836,6.836,0,1,1,21.5,25.638,6.844,6.844,0,0,1,14.664,18.8Zm19.74,16.6A13.427,13.427,0,0,0,26.6,26.642a9.356,9.356,0,1,0-10.2,0A13.425,13.425,0,0,0,8.6,35.406a18.98,18.98,0,1,1,25.807,0Zm0,0"
          transform="translate(15 5)" fill="#3190af"/>
</svg>
