<svg id="my-location" xmlns="http://www.w3.org/2000/svg" width="24" height="24" viewBox="0 0 24 24">
    <rect id="Rectangle_10045" data-name="Rectangle 10045" width="24" height="24" fill="none"/>
    <g id="Group_13099" data-name="Group 13099" transform="translate(-1108 -603.5)">
        <g id="Union_5" data-name="Union 5" transform="translate(656 -1349.5)" fill="none">
            <path d="M463.25,1973.75v-2.318a6.024,6.024,0,0,1-5.2-5.239h-2.291a.755.755,0,0,1,0-1.51h2.291a6.024,6.024,0,0,1,5.2-5.239v-2.695a.75.75,0,1,1,1.5,0v2.695a6.024,6.024,0,0,1,5.2,5.239h2.292a.755.755,0,0,1,0,1.51h-2.292a6.024,6.024,0,0,1-5.2,5.239v2.318a.75.75,0,0,1-1.5,0Z"
                  stroke="none"/>
            <path d="M 464.0003967285156 1970.519287109375 L 464.62548828125 1970.440795898438 C 466.8947448730469 1970.15576171875 468.6775512695312 1968.35888671875 468.9609680175781 1966.071166992188 L 469.0392761230469 1965.43896484375 L 468.9609680175781 1964.806762695312 C 468.6775207519531 1962.518920898438 466.8947448730469 1960.722045898438 464.6255493164062 1960.437133789062 L 463.9996948242188 1960.358520507812 L 463.37451171875 1960.437133789062 C 461.1051940917969 1960.722290039062 459.3223571777344 1962.519165039062 459.0389709472656 1964.806762695312 L 458.9606628417969 1965.43896484375 L 459.0389709472656 1966.071166992188 C 459.3223876953125 1968.358764648438 461.1051940917969 1970.155517578125 463.3744812011719 1970.440673828125 L 464.0003967285156 1970.519287109375 M 464.0003967285156 1974.500122070312 C 463.5855102539062 1974.500122070312 463.2498168945312 1974.164428710938 463.2498168945312 1973.75048828125 L 463.2498168945312 1971.432861328125 C 460.5360412597656 1971.091918945312 458.3850402832031 1968.92626953125 458.0465698242188 1966.194091796875 L 455.7555236816406 1966.194091796875 C 455.3379211425781 1966.194091796875 455.0003967285156 1965.855590820312 455.0003967285156 1965.43896484375 C 455.0003967285156 1965.021362304688 455.3379211425781 1964.683837890625 455.7555236816406 1964.683837890625 L 458.0465698242188 1964.683837890625 C 458.3850402832031 1961.951538085938 460.5360412597656 1959.786010742188 463.2498168945312 1959.444946289062 L 463.2498168945312 1956.750366210938 C 463.2498168945312 1956.33544921875 463.5855102539062 1955.999755859375 464.0003967285156 1955.999755859375 C 464.4143981933594 1955.999755859375 464.7501220703125 1956.33544921875 464.7501220703125 1956.750366210938 L 464.7501220703125 1959.444946289062 C 467.4635009765625 1959.78564453125 469.6148681640625 1961.951416015625 469.953369140625 1964.683837890625 L 472.2453002929688 1964.683837890625 C 472.6620178222656 1964.683837890625 473.0003967285156 1965.021362304688 473.0003967285156 1965.43896484375 C 473.0003967285156 1965.855590820312 472.6620178222656 1966.194091796875 472.2453002929688 1966.194091796875 L 469.953369140625 1966.194091796875 C 469.6148681640625 1968.926513671875 467.4635009765625 1971.092163085938 464.7501220703125 1971.432983398438 L 464.7501220703125 1973.75048828125 C 464.7501220703125 1974.164428710938 464.4143981933594 1974.500122070312 464.0003967285156 1974.500122070312 Z"
                  stroke="none" fill="#858585"/>
        </g>
        <circle id="Ellipse_894" data-name="Ellipse 894" cx="3" cy="3" r="3" transform="translate(1117 613)"
                fill="#858585"/>
    </g>
</svg>
