<svg id="my-places-icon" xmlns="http://www.w3.org/2000/svg" width="80" height="80" viewBox="0 0 80 80">
  <rect id="Rectangle_10121" data-name="Rectangle 10121" width="80" height="80" fill="none"/>
  <g id="place" transform="translate(8 8)">
    <path id="Path_4330" data-name="Path 4330" d="M64,32a31.965,31.965,0,1,1-1.416-9.443A31.97,31.97,0,0,1,64,32Z" fill="#55d485"/>
    <ellipse id="Ellipse_1110" data-name="Ellipse 1110" cx="8.264" cy="3.404" rx="8.264" ry="3.404" transform="translate(39.692 31.748)" fill="#10995b"/>
    <path id="Path_4331" data-name="Path 4331" d="M169.659,270.682a3.324,3.324,0,0,1-.867,1.716,5.2,5.2,0,0,1-1.585,1.063,16.164,16.164,0,0,1-4.14,1.125c-1.468.24-2.951.386-4.434.5s-2.987.209-4.483.285c-2.985.15-5.972.253-8.956.421a85.828,85.828,0,0,0-8.821.838,21.091,21.091,0,0,0-4.142,1.008,4.575,4.575,0,0,0-1.722.976.5.5,0,0,0-.16.541,2.754,2.754,0,0,0,.374.787,9.335,9.335,0,0,0,1.353,1.6q.211.208.43.408a.63.63,0,0,0,.226.137,7.236,7.236,0,0,0,1.924.438c.712.091,1.429.144,2.146.185,1.268.071,2.539.095,3.809.132a66.376,66.376,0,0,1,8.543.635,17.719,17.719,0,0,1,7.709,2.864,10.677,10.677,0,0,1,2.792,2.965l.06.1c.037.062.036.035,0,.086a.9.9,0,0,1-.2.132q-.228.15-.458.3-.431.274-.871.535-.882.522-1.8.987-.938.478-1.907.893-.464.2-.933.383c-.06.023-.194.1-.233.066s-.079-.173-.109-.23a3.261,3.261,0,0,0-.262-.417A7.2,7.2,0,0,0,149.692,290a24.4,24.4,0,0,0-4.125-1.139c-1.447-.286-2.907-.5-4.37-.685-1.439-.183-2.879-.35-4.317-.542a29.394,29.394,0,0,1-4.194-.79,7.19,7.19,0,0,1-3.122-1.638c-.211-.207-.4-.436-.6-.66a15.9,15.9,0,0,1-1.276-1.676,6.979,6.979,0,0,1-1.288-3.6,4.457,4.457,0,0,1,1.722-3.559,9.49,9.49,0,0,1,3.77-1.659,30.5,30.5,0,0,1,4.252-.662c2.937-.279,5.9-.324,8.845-.353,2.989-.029,5.978-.015,8.966-.063a69.866,69.866,0,0,0,8.85-.545,20.341,20.341,0,0,0,2.136-.411,6.949,6.949,0,0,0,1.9-.725,1.7,1.7,0,0,0,.645-.6,1.453,1.453,0,0,0,.157-.846c-.086-.612-.683-1.03-1.18-1.311a8.46,8.46,0,0,0-1.885-.743,3.754,3.754,0,0,0-.795-.182,1.685,1.685,0,0,1,.066-.322q.074-.348.15-.7t.149-.682a2.451,2.451,0,0,1,.073-.316,3.445,3.445,0,0,0,.63.163,12.139,12.139,0,0,1,1.819.606,5.207,5.207,0,0,1,2.7,2.219A3.215,3.215,0,0,1,169.659,270.682Z" transform="translate(-109.893 -230.902)" fill="#10995b"/>
    <path id="Path_4332" data-name="Path 4332" d="M72.008,22.557H10.84a32.013,32.013,0,0,1,61.168,0Z" transform="translate(-9.424)" fill="#bce6f5"/>
    <g id="Group_13009" data-name="Group 13009" transform="translate(0.817 16.6)">
      <path id="Path_4333" data-name="Path 4333" d="M36.171,151.12,24.3,171.68a32.045,32.045,0,0,1-6.089-3.6L8.424,151.12a15.973,15.973,0,0,1,2.344-19.146A15.8,15.8,0,0,1,22.3,127.09,16.02,16.02,0,0,1,36.171,151.12Z" transform="translate(-6.253 -127.09)" fill="#f75454"/>
      <path id="Path_4334" data-name="Path 4334" d="M81.883,194.193a8.343,8.343,0,1,1-6.375-8.11A8.349,8.349,0,0,1,81.883,194.193Z" transform="translate(-57.494 -178.173)" fill="#bce6f5"/>
      <path id="Path_4335" data-name="Path 4335" d="M108.124,195.76a8.349,8.349,0,0,1-6.375,8.111,8.347,8.347,0,0,1,0-16.221A8.348,8.348,0,0,1,108.124,195.76Z" transform="translate(-83.735 -179.74)" fill="#fff"/>
    </g>
    <g id="Group_13010" data-name="Group 13010" transform="translate(36.221 0)">
      <path id="Path_4336" data-name="Path 4336" d="M289.05,35.153,299.2,17.577A11.717,11.717,0,0,0,289.05,0h0A11.717,11.717,0,0,0,278.9,17.577Z" transform="translate(-277.315 -0.001)" fill="#f75454"/>
      <path id="Path_4337" data-name="Path 4337" d="M332.634,49.081a6.1,6.1,0,1,1-4.663-5.932A6.106,6.106,0,0,1,332.634,49.081Z" transform="translate(-314.795 -37.364)" fill="#bce6f5"/>
      <path id="Path_4338" data-name="Path 4338" d="M351.827,50.227a4.8,4.8,0,1,1-4.663-5.932A6.106,6.106,0,0,1,351.827,50.227Z" transform="translate(-333.988 -38.51)" fill="#fff"/>
    </g>
  </g>
</svg>
