<?xml version="1.0" encoding="utf-8"?>
<!-- Generator: Adobe Illustrator 24.2.0, SVG Export Plug-In . SVG Version: 6.00 Build 0)  -->
<svg version="1.1" id="Layer_1" xmlns="http://www.w3.org/2000/svg" x="0px"
     y="0px"
     viewBox="0 0 24 24" style="enable-background:new 0 0 24 24;" xml:space="preserve">
<style type="text/css">
	.st0{fill:none;}
	.st1{fill:#474747;}
</style>
    <g transform="translate(144 -342) rotate(90)">

		<rect x="342" y="120" transform="matrix(2.535182e-06 1 -1 2.535182e-06 485.9991 -222.0003)" class="st0"
              width="24" height="24"/>
        <path class="st1" d="M350.3,133.8c0,0.1,0,0.2,0.1,0.3c0.2,0.2,0.5,0.2,0.6,0c0,0,0,0,0,0l3.3-3.3l3.2,3.4c0.2,0.2,0.5,0.2,0.6,0
		c0,0,0,0,0,0c0.2-0.2,0.2-0.5,0-0.7l-3.5-3.7c-0.2-0.2-0.5-0.2-0.6,0c0,0,0,0,0,0l-3.6,3.6C350.4,133.5,350.3,133.6,350.3,133.8z"
        />
</g>
</svg>
