<svg id="openNow" xmlns="http://www.w3.org/2000/svg" width="40" height="40" viewBox="0 0 40 40">
  <rect id="Rectangle_8896" data-name="Rectangle 8896" width="40" height="40" fill="none"/>
  <g id="open" transform="translate(8 -10)">
    <g id="Group_13188" data-name="Group 13188" transform="translate(0 19)">
      <g id="Group_13187" data-name="Group 13187" transform="translate(0 0)">
        <path id="Path_4509" data-name="Path 4509" d="M23.545,27.636a1.533,1.533,0,0,0-1.068-.455H20.2l-6.068-6.3a2.049,2.049,0,0,0-.614-1.25A2.075,2.075,0,0,0,12,19a2.165,2.165,0,0,0-2.136,1.886L3.8,27.2H1.523a1.442,1.442,0,0,0-1.068.455A1.533,1.533,0,0,0,0,28.727V39.318a1.553,1.553,0,0,0,1.523,1.523H22.477A1.553,1.553,0,0,0,24,39.318V28.727A1.587,1.587,0,0,0,23.545,27.636ZM11.364,20.5a.9.9,0,1,1,1.273,1.273l-.023.023a.878.878,0,0,1-.614.25.825.825,0,0,1-.636-.273.911.911,0,0,1-.273-.636A.825.825,0,0,1,11.364,20.5Zm-1.182,1.818a2.234,2.234,0,0,0,.273.341A2.186,2.186,0,0,0,12,23.318a2.158,2.158,0,0,0,1.477-.591l.045-.045a1.793,1.793,0,0,0,.273-.341l4.682,4.886H5.5Zm12.545,17C22.75,39.386,22.727,28.636,22.727,39.318Z" transform="translate(0 -19)" fill="#3190af" stroke="#3190af" stroke-width="0.2"/>
        <path id="Path_4510" data-name="Path 4510" d="M149.25,235.364a1.691,1.691,0,0,0-.659-.273,2.773,2.773,0,0,0-.773-.091c-.341,0-.614.023-.8.023a.954.954,0,0,0-.341.023.641.641,0,0,0-.614.455c-.023.045-.023.114-.045.182v1.591c0,1.386-.023,2.273-.023,2.659,0,.364.227.568.659.568a.817.817,0,0,0,.5-.136.547.547,0,0,0,.182-.432v-1.159h.182a5.753,5.753,0,0,0,.659-.023,1.692,1.692,0,0,0,.409-.045,1.753,1.753,0,0,0,.568-.227,1.561,1.561,0,0,0,.432-.432,1.587,1.587,0,0,0,.3-.545,2.475,2.475,0,0,0,.114-.591,1.715,1.715,0,0,0-.159-.909A1.583,1.583,0,0,0,149.25,235.364Zm-.545,1.7c-.023.068-.068.136-.091.2a.566.566,0,0,1-.318.25c-.068.023-.159.023-.273.045h-.659v-1.386h.477a1.288,1.288,0,0,1,.568.091.457.457,0,0,1,.25.2.753.753,0,0,1,.091.341A.818.818,0,0,1,148.7,237.068Z" transform="translate(-137.705 -222.727)" fill="#fff" stroke="#fff" stroke-width="0.2"/>
        <path id="Path_4511" data-name="Path 4511" d="M46.482,234.782a2.555,2.555,0,0,0-1.023-.182,2.482,2.482,0,0,0-1.841.8,2.769,2.769,0,0,0-.614.932,3.1,3.1,0,0,0-.2,1.159,2.552,2.552,0,0,0,.8,1.932,2.517,2.517,0,0,0,.864.545,2.865,2.865,0,0,0,.977.182,2.6,2.6,0,0,0,1.045-.2,2.51,2.51,0,0,0,.864-.614,3.285,3.285,0,0,0,.591-.909,2.91,2.91,0,0,0,.2-1.091,2.587,2.587,0,0,0-.8-1.932A2.424,2.424,0,0,0,46.482,234.782Zm.25,3.136a1.716,1.716,0,0,1-.3.523,1.129,1.129,0,0,1-.932.455,1.375,1.375,0,0,1-.545-.091,1.12,1.12,0,0,1-.432-.318,1.3,1.3,0,0,1-.3-.477,1.742,1.742,0,0,1-.091-.614,1.874,1.874,0,0,1,.091-.636,1.764,1.764,0,0,1,.273-.5,1.129,1.129,0,0,1,.909-.432,2.107,2.107,0,0,1,.545.091,1.5,1.5,0,0,1,.455.318,1.353,1.353,0,0,1,.318.477,2.489,2.489,0,0,1,.091.614A1.694,1.694,0,0,1,46.732,237.918Z" transform="translate(-40.368 -222.35)" fill="#fff" stroke="#fff" stroke-width="0.2"/>
        <path id="Path_4512" data-name="Path 4512" d="M229.023,239.627h-.477c-.182,0-.386,0-.636.023h-.7v-.932h1.364a.655.655,0,0,0,.432-.136.564.564,0,0,0,.159-.409.521.521,0,0,0-.182-.477.682.682,0,0,0-.227-.091,1.107,1.107,0,0,0-.273-.023c-.318,0-.682.023-1.114.023h-.114l.023-.614v-.409h1.318a2.516,2.516,0,0,0,.523-.023h.023a.4.4,0,0,0,.273-.227.658.658,0,0,0,.068-.386.544.544,0,0,0-.045-.2.476.476,0,0,0-.3-.3.673.673,0,0,0-.227-.045h-2.2a.746.746,0,0,0-.477.136.614.614,0,0,0-.159.182.806.806,0,0,0-.068.25v4.159a.629.629,0,0,0,.068.3.537.537,0,0,0,.182.2.755.755,0,0,0,.3.091,2.209,2.209,0,0,0,.409.023h2.091a.622.622,0,0,0,.432-.159.684.684,0,0,0,.159-.455.655.655,0,0,0-.136-.432C229.341,239.7,229.2,239.627,229.023,239.627Z" transform="translate(-213.159 -223.105)" fill="#fff" stroke="#fff" stroke-width="0.2"/>
        <path id="Path_4513" data-name="Path 4513" d="M302.614,238.25v-2.591c0-.432-.2-.659-.636-.659a1.152,1.152,0,0,0-.3.045.472.472,0,0,0-.227.136.756.756,0,0,0-.136.227,1.184,1.184,0,0,0-.046.318l.023,1.455v.886l-.159-.25-1.682-2.364a1.3,1.3,0,0,0-.159-.182.848.848,0,0,0-.159-.136.457.457,0,0,0-.182-.091.629.629,0,0,0-.2-.023.916.916,0,0,0-.5.136.465.465,0,0,0-.182.182.458.458,0,0,0-.068.25v4.273a.5.5,0,0,0,.2.432.746.746,0,0,0,.477.136.564.564,0,0,0,.455-.182.64.64,0,0,0,.159-.477V237.2l1.909,2.727.136.2a.386.386,0,0,0,.136.136.456.456,0,0,0,.182.091.629.629,0,0,0,.2.023.839.839,0,0,0,.523-.159.537.537,0,0,0,.182-.2.458.458,0,0,0,.068-.25V238.75l-.023-.3Z" transform="translate(-281.068 -222.727)" fill="#fff" stroke="#fff" stroke-width="0.2"/>
      </g>
    </g>
  </g>
</svg>
