<svg xmlns="http://www.w3.org/2000/svg" width="16.509" height="15.416" viewBox="0 0 16.509 15.416">
    <g id="parking-icon" transform="translate(0.05 0.05)">
        <path id="Path_2784" data-name="Path 2784"
              d="M24.82,47a.82.82,0,1,0,.82.82A.82.82,0,0,0,24.82,47Zm0,1.094a.273.273,0,1,1,.273-.273A.273.273,0,0,1,24.82,48.094Z"
              transform="translate(-17.983 -35.787)" fill="#858585" stroke="#858585" stroke-width="0.1"/>
        <path id="Path_2785" data-name="Path 2785"
              d="M48.82,47a.82.82,0,1,0,.82.82A.82.82,0,0,0,48.82,47Zm0,1.094a.273.273,0,1,1,.273-.273A.273.273,0,0,1,48.82,48.094Z"
              transform="translate(-35.419 -35.787)" fill="#858585" stroke="#858585" stroke-width="0.1"/>
        <path id="Path_2786" data-name="Path 2786"
              d="M27.76,29.914h-.62a.823.823,0,0,0-.73.452A3.023,3.023,0,0,0,23.474,28H21.107a3.023,3.023,0,0,0-2.937,2.366.823.823,0,0,0-.73-.452h-.62a.82.82,0,0,0-.82.82v.273a.82.82,0,0,0,.82.82h.434l.16.16A1.367,1.367,0,0,0,16.689,33l-.234,1.641a1.366,1.366,0,0,0,1.186,1.55v.285a.82.82,0,0,0,.82.82h1.094a.82.82,0,0,0,.82-.82V36.2H24.2v.273a.82.82,0,0,0,.82.82h1.094a.82.82,0,0,0,.82-.82v-.285a1.366,1.366,0,0,0,1.186-1.55L27.891,33a1.367,1.367,0,0,0-.725-1.014l.16-.16h.434a.82.82,0,0,0,.82-.82v-.273A.82.82,0,0,0,27.76,29.914Zm-9.09.746a2.474,2.474,0,0,1,2.437-2.114h2.367a2.474,2.474,0,0,1,2.437,2.114l.167,1.168H18.5Zm-1.85.621a.273.273,0,0,1-.273-.273v-.273a.273.273,0,0,1,.273-.273h.62a.273.273,0,0,1,.27.235l.137.951-.286-.286a.273.273,0,0,0-.194-.08Zm3.008,5.2a.273.273,0,0,1-.273.273H18.461a.273.273,0,0,1-.273-.273V36.2h1.641Zm6.564,0a.273.273,0,0,1-.273.273H25.025a.273.273,0,0,1-.273-.273V36.2h1.641Zm1.192-1.757a.82.82,0,0,1-.812.936H17.808A.82.82,0,0,1,17,34.721l.234-1.641a.825.825,0,0,1,.812-.7h8.5a.825.825,0,0,1,.812.7Zm.449-3.713a.273.273,0,0,1-.273.273h-.547a.273.273,0,0,0-.193.08l-.286.286.137-.952a.273.273,0,0,1,.27-.235h.62a.273.273,0,0,1,.273.273Z"
              transform="translate(-12.171 -21.983)" fill="#858585" stroke="#858585" stroke-width="0.1"/>
        <path id="Path_2787" data-name="Path 2787"
              d="M35.555,48H32.273a.273.273,0,0,0-.26.36l.273.82a.273.273,0,0,0,.26.187h2.735a.274.274,0,0,0,.26-.187l.273-.82a.273.273,0,0,0-.26-.36Zm-.471.82H32.744l-.091-.273h2.523Z"
              transform="translate(-23.795 -36.513)" fill="#858585" stroke="#858585" stroke-width="0.1"/>
        <path id="Path_2788" data-name="Path 2788"
              d="M5.008,18.9V11.47H6.649a.273.273,0,0,0,.273-.273V6.273A.273.273,0,0,0,6.649,6H2.273A.273.273,0,0,0,2,6.273V11.2a.273.273,0,0,0,.273.273H3.641V18.9a.82.82,0,0,0-.547.77v1.367a.273.273,0,0,0,.273.273H5.282a.273.273,0,0,0,.273-.273V19.675A.82.82,0,0,0,5.008,18.9ZM2.547,6.547H6.376v4.376H2.547ZM4.461,11.47v7.384H4.188V11.47Zm.547,9.3H3.641V19.675a.273.273,0,0,1,.273-.273h.82a.273.273,0,0,1,.273.273Z"
              transform="translate(-2 -6)" fill="#858585" stroke="#858585" stroke-width="0.1"/>
        <path id="Path_2789" data-name="Path 2789"
              d="M8.547,13.008v-.82h.547a1.094,1.094,0,1,0,0-2.188h-.82A.273.273,0,0,0,8,10.273v2.735a.273.273,0,0,0,.547,0Zm0-2.461h.547a.547.547,0,1,1,0,1.094H8.547Z"
              transform="translate(-6.359 -8.906)" fill="#858585" stroke="#858585" stroke-width="0.1"/>
        <path id="Path_2790" data-name="Path 2790"
              d="M29.834,32.08a.273.273,0,0,0-.387,0L28.08,33.448a.273.273,0,1,0,.387.387l1.367-1.367A.273.273,0,0,0,29.834,32.08Z"
              transform="translate(-20.889 -24.889)" fill="#858585" stroke="#858585" stroke-width="0.1"/>
        <path id="Path_2791" data-name="Path 2791"
              d="M34.448,32.08,33.08,33.448a.273.273,0,1,0,.387.387l1.367-1.367a.273.273,0,1,0-.387-.387Z"
              transform="translate(-24.522 -24.889)" fill="#858585" stroke="#858585" stroke-width="0.1"/>
    </g>
</svg>
