<svg id="parking-icon" xmlns="http://www.w3.org/2000/svg" width="80" height="80" viewBox="0 0 80 80">
  <rect id="_129330626" data-name="129330626" width="80" height="80" rx="4" fill="none"/>
  <g id="parking-area" transform="translate(8 8)">
    <path id="Path_3092" data-name="Path 3092" d="M60.755,272.1H49.86a4.124,4.124,0,0,0-4.119,4.119v21.74a4.124,4.124,0,0,0,4.119,4.119H60.755a4.124,4.124,0,0,0,4.119-4.119V276.22a4.124,4.124,0,0,0-4.119-4.119ZM49.86,273.976H60.755A2.247,2.247,0,0,1,63,276.22v3.249a20.685,20.685,0,0,0-15.383,0V276.22A2.247,2.247,0,0,1,49.86,273.976Zm1.034,17v-5.156a1.838,1.838,0,0,1,1.836-1.836h5.156a1.838,1.838,0,0,1,1.836,1.836v5.156a1.838,1.838,0,0,1-1.836,1.836H52.729A1.838,1.838,0,0,1,50.894,290.974Zm9.285-8.07a3.691,3.691,0,0,0-2.293-.8H52.729a3.691,3.691,0,0,0-2.293.8l-2.019-1.739a18.708,18.708,0,0,1,13.781,0ZM49.3,284.4a3.69,3.69,0,0,0-.282,1.417v1.641h-1.4v-4.509Zm-1.685,4.933h1.4v1.641a3.688,3.688,0,0,0,.4,1.665l-1.8,1.667Zm3.037,4.715a3.69,3.69,0,0,0,2.076.637h5.156a3.69,3.69,0,0,0,2.077-.637l2.175,2.015a24.035,24.035,0,0,1-13.658,0ZM61.2,292.639a3.687,3.687,0,0,0,.4-1.665v-1.641H63v4.972Zm1.8-5.18H61.6v-1.641a3.69,3.69,0,0,0-.282-1.417L63,282.95ZM60.755,300.2H49.86a2.247,2.247,0,0,1-2.244-2.244v-.2a25.879,25.879,0,0,0,15.383,0v.2A2.247,2.247,0,0,1,60.755,300.2Z" transform="translate(-40.023 -238.088)" fill="#3190af" stroke="#3190af" stroke-width="0.5"/>
    <path id="Path_3093" data-name="Path 3093" d="M316.169,30.049h10.894a4.124,4.124,0,0,0,4.12-4.119V4.19a4.125,4.125,0,0,0-4.12-4.12h-1.32a.937.937,0,1,0,0,1.875h1.32a2.248,2.248,0,0,1,2.245,2.245V7.439a20.685,20.685,0,0,0-15.383,0V4.19a2.247,2.247,0,0,1,2.244-2.245h5.824a.937.937,0,0,0,0-1.875h-5.824a4.124,4.124,0,0,0-4.119,4.12V25.93A4.123,4.123,0,0,0,316.169,30.049Zm10.894-1.875H316.169a2.246,2.246,0,0,1-2.244-2.244v-.2a25.878,25.878,0,0,0,15.383,0v.2A2.247,2.247,0,0,1,327.063,28.174ZM313.925,17.3h1.4v1.641a3.686,3.686,0,0,0,.4,1.665l-1.8,1.666V17.3Zm15.383,4.972-1.8-1.667a3.687,3.687,0,0,0,.4-1.665V17.3h1.4Zm-12.346-.257a3.689,3.689,0,0,0,2.076.637h5.156a3.688,3.688,0,0,0,2.077-.637l2.175,2.015a24.035,24.035,0,0,1-13.658,0Zm9.068-8.23v5.156a1.838,1.838,0,0,1-1.836,1.836h-5.156a1.838,1.838,0,0,1-1.836-1.836V13.787a1.838,1.838,0,0,1,1.836-1.836h5.156a1.838,1.838,0,0,1,1.836,1.836Zm3.278,1.641h-1.4V13.787a3.691,3.691,0,0,0-.282-1.417l1.685-1.451Zm-.8-6.295-2.02,1.74a3.692,3.692,0,0,0-2.293-.8h-5.156a3.692,3.692,0,0,0-2.293.8l-2.019-1.739A18.707,18.707,0,0,1,328.507,9.133Zm-12.9,3.236a3.691,3.691,0,0,0-.282,1.417v1.641h-1.4V10.919Z" transform="translate(-273.044 -0.061)" fill="#3190af" stroke="#3190af" stroke-width="0.5"/>
    <path id="Path_3094" data-name="Path 3094" d="M23.615,249.438a.937.937,0,0,0-.937-.937H.937a.938.938,0,0,0,0,1.875h21.74A.938.938,0,0,0,23.615,249.438Z" transform="translate(0 -217.438)" fill="#3190af" stroke="#3190af" stroke-width="0.5"/>
    <path id="Path_3095" data-name="Path 3095" d="M241.492,31.062H211.368V.937a.938.938,0,0,0-1.875,0V31.062h-4.635a.938.938,0,0,0,0,1.875h4.635V63.062a.938.938,0,0,0,1.875,0V32.937h30.125a.938.938,0,0,0,0-1.875Z" transform="translate(-178.43)" fill="#3190af" stroke="#3190af" stroke-width="0.5"/>
    <path id="Path_3096" data-name="Path 3096" d="M345.01,300.317a8.423,8.423,0,0,0-8.462-8.363h-4.962a3.322,3.322,0,0,0-1.461.323,3.283,3.283,0,0,0-1.873,2.984v16.2a2.676,2.676,0,0,0,2.673,2.673h1.253a2.676,2.676,0,0,0,2.673-2.673v-2.778c.661,0,1.282-.005,1.7-.005A8.423,8.423,0,0,0,345.01,300.317Zm-8.462,6.488c-.612,0-1.663,0-2.64.009a.937.937,0,0,0-.933.937v3.711a.8.8,0,0,1-.8.8h-1.253a.8.8,0,0,1-.8-.8V295.258a1.424,1.424,0,0,1,.815-1.293,1.488,1.488,0,0,1,.644-.135h4.962a6.489,6.489,0,1,1,0,12.977Z" transform="translate(-287.22 -255.46)" fill="#3190af" stroke="#3190af" stroke-width="0.5"/>
    <path id="Path_3097" data-name="Path 3097" d="M369.658,329.737h-2.628a.937.937,0,0,0-.937.94l0,1.184c0,1.434.008,3.485.012,4.233a.938.938,0,0,0,.937.933h0c.967,0,2-.009,2.609-.009a3.642,3.642,0,1,0,0-7.281Zm0,5.406c-.414,0-1.026,0-1.68,0,0-.952-.006-2.276-.008-3.291v-.245h1.689a1.768,1.768,0,1,1,0,3.531Z" transform="translate(-320.33 -288.52)" fill="#3190af" stroke="#3190af" stroke-width="0.5"/>
    <path id="Path_3098" data-name="Path 3098" d="M76.854,32.26H71.891a3.322,3.322,0,0,0-1.461.323,3.283,3.283,0,0,0-1.873,2.984v16.2a2.676,2.676,0,0,0,2.673,2.673h1.253a2.676,2.676,0,0,0,2.673-2.673V48.991c.661,0,1.282,0,1.7,0a8.364,8.364,0,1,0,0-16.726Zm0,14.851c-.612,0-1.663,0-2.64.009a.938.938,0,0,0-.933.938V51.77a.8.8,0,0,1-.8.8H71.23a.8.8,0,0,1-.8-.8V35.563a1.424,1.424,0,0,1,.815-1.293,1.489,1.489,0,0,1,.644-.135h4.962a6.489,6.489,0,1,1,0,12.976Z" transform="translate(-59.988 -28.227)" fill="#3190af" stroke="#3190af" stroke-width="0.5"/>
    <path id="Path_3099" data-name="Path 3099" d="M109.963,70.043h-2.629a.937.937,0,0,0-.937.94l0,1.184c0,1.434.008,3.485.012,4.233a.937.937,0,0,0,.937.933h0c.967,0,2-.009,2.609-.009a3.642,3.642,0,1,0,0-7.281Zm0,5.406c-.414,0-1.026,0-1.68,0,0-.951-.006-2.276-.008-3.291v-.245h1.689a1.768,1.768,0,1,1,0,3.531Z" transform="translate(-93.097 -61.288)" fill="#3190af" stroke="#3190af" stroke-width="0.5"/>
    <path id="Path_3100" data-name="Path 3100" d="M458.193,469.7a.937.937,0,0,0-.937.938v.063a.938.938,0,1,0,1.875,0v-.062A.938.938,0,0,0,458.193,469.7Z" transform="translate(-400.098 -410.988)" fill="#3190af" stroke="#3190af" stroke-width="0.5"/>
    <path id="Path_3101" data-name="Path 3101" d="M435.887,459.115a.937.937,0,0,0-.937.938v.063a.937.937,0,1,0,1.875,0v-.062A.937.937,0,0,0,435.887,459.115Z" transform="translate(-380.58 -401.726)" fill="#3190af" stroke="#3190af" stroke-width="0.5"/>
    <path id="Path_3102" data-name="Path 3102" d="M457.4,448.619a.937.937,0,0,0,.938-.937v-.062a.938.938,0,0,0-1.875,0v.063A.937.937,0,0,0,457.4,448.619Z" transform="translate(-399.408 -390.846)" fill="#3190af" stroke="#3190af" stroke-width="0.5"/>
    <path id="Path_3103" data-name="Path 3103" d="M43.539,78.378a.937.937,0,0,0,.937-.937v-.062a.938.938,0,1,0-1.875,0v.063A.937.937,0,0,0,43.539,78.378Z" transform="translate(-37.276 -66.885)" fill="#3190af" stroke="#3190af" stroke-width="0.5"/>
    <path id="Path_3104" data-name="Path 3104" d="M22.75,91.7a.937.937,0,0,0,.938-.938V90.7a.938.938,0,1,0-1.875,0v.062A.937.937,0,0,0,22.75,91.7Z" transform="translate(-19.086 -78.54)" fill="#3190af" stroke="#3190af" stroke-width="0.5"/>
    <path id="Path_3105" data-name="Path 3105" d="M23.591,66.862a.937.937,0,0,0,.938-.937v-.062a.938.938,0,0,0-1.875,0v.063A.938.938,0,0,0,23.591,66.862Z" transform="translate(-19.822 -56.809)" fill="#3190af" stroke="#3190af" stroke-width="0.5"/>
  </g>
</svg>
