<svg id="permission" xmlns="http://www.w3.org/2000/svg" width="40" height="40" viewBox="0 0 40 40">
  <rect id="Rectangle_8896" data-name="Rectangle 8896" width="40" height="40" fill="none"/>
  <path id="settings" d="M22.684,9.394,20.8,9.155a9.45,9.45,0,0,0-.569-1.374l1.161-1.5a1.486,1.486,0,0,0-.122-1.979L19.7,2.732a1.491,1.491,0,0,0-1.985-.127L16.221,3.766A9.417,9.417,0,0,0,14.846,3.2L14.607,1.32A1.5,1.5,0,0,0,13.121,0H10.88A1.5,1.5,0,0,0,9.394,1.317L9.155,3.2a9.307,9.307,0,0,0-1.375.569L6.286,2.605a1.488,1.488,0,0,0-1.979.122L2.732,4.3a1.491,1.491,0,0,0-.127,1.986L3.766,7.781A9.34,9.34,0,0,0,3.2,9.155L1.32,9.394A1.5,1.5,0,0,0,0,10.88v2.24a1.5,1.5,0,0,0,1.317,1.486l1.88.239a9.45,9.45,0,0,0,.569,1.374l-1.161,1.5a1.486,1.486,0,0,0,.122,1.979L4.3,21.269a1.492,1.492,0,0,0,1.985.126l1.494-1.161a9.232,9.232,0,0,0,1.374.569l.239,1.876A1.5,1.5,0,0,0,10.88,24h2.24a1.5,1.5,0,0,0,1.486-1.317l.239-1.88a9.45,9.45,0,0,0,1.374-.569l1.5,1.161a1.486,1.486,0,0,0,1.979-.122L21.269,19.7a1.49,1.49,0,0,0,.127-1.985L20.235,16.22a9.233,9.233,0,0,0,.569-1.374l1.876-.239A1.5,1.5,0,0,0,24,13.121V10.88a1.5,1.5,0,0,0-1.316-1.486ZM12,17a5,5,0,1,1,5-5,5.006,5.006,0,0,1-5,5Z" transform="translate(8 8)" fill="#3190af"/>
</svg>
