<svg id="Component_37_1" data-name="Component 37 – 1" xmlns="http://www.w3.org/2000/svg" width="24" height="24"
     viewBox="0 0 24 24">
    <rect id="Rectangle_9855" data-name="Rectangle 9855" width="24" height="24" fill="none"/>
    <g id="Layer_2" data-name="Layer 2" transform="translate(4.021 2.501)">
        <g id="Layer_1" data-name="Layer 1" transform="translate(-0.021)">
            <path id="Path_3353" data-name="Path 3353"
                  d="M129.065,228.22H125.8a.8.8,0,0,0-.8.8v5.033h2.166V229.32a.267.267,0,0,1,.534,0v4.732h2.166v-5.033A.8.8,0,0,0,129.065,228.22Z"
                  transform="translate(-119.432 -218.056)" fill="#858585"/>
            <path id="Path_3354" data-name="Path 3354"
                  d="M15.711,4.532H1.981a.267.267,0,0,1-.267-.285A.273.273,0,0,1,1.989,4h13.49a.267.267,0,0,0,.245-.372L14.223.161A.267.267,0,0,0,13.978,0h-12a.267.267,0,0,0-.245.161L0,4.16A8.845,8.845,0,0,0-.02,5.92,2.2,2.2,0,0,0,4,7.15a.134.134,0,0,1,.223,0,2.2,2.2,0,0,0,3.643,0,.134.134,0,0,1,.223,0,2.2,2.2,0,0,0,3.643,0,.134.134,0,0,1,.223,0,2.2,2.2,0,0,0,1.852.97,2.222,2.222,0,0,0,2.171-2.233V4.8a.267.267,0,0,0-.269-.266Z"
                  transform="translate(0.021)" fill="#858585"/>
            <path id="Path_3355" data-name="Path 3355"
                  d="M32.029,178.89a2.727,2.727,0,0,1-2.792-.44.267.267,0,0,0-.348,0,2.728,2.728,0,0,1-3.518,0,.27.27,0,0,0-.349,0,2.728,2.728,0,0,1-3.518,0,.267.267,0,0,0-.348,0,2.724,2.724,0,0,1-2.791.44.267.267,0,0,0-.365.246V185.1a1.333,1.333,0,0,0,1.333,1.333h2.9V181.4a1.336,1.336,0,0,1,1.336-1.333h3.266a1.336,1.336,0,0,1,1.333,1.333v5.033h2.9A1.333,1.333,0,0,0,32.4,185.1v-5.968a.267.267,0,0,0-.369-.247Z"
                  transform="translate(-17.197 -170.441)" fill="#858585"/>
        </g>
    </g>
</svg>
