<svg id="Component_38_1" data-name="Component 38 – 1" xmlns="http://www.w3.org/2000/svg" width="24" height="24"
     viewBox="0 0 24 24">
    <rect id="Rectangle_9855" data-name="Rectangle 9855" width="24" height="24" fill="none"/>
    <g id="home" transform="translate(4 3.267)">
        <path id="Path_3106" data-name="Path 3106"
              d="M31.183,29.366q0-.017,0-.034a1.068,1.068,0,0,0-1.067-1.067V23.333l.96-.72a.267.267,0,0,0,0-.429L28.784,20.51V17.6a.267.267,0,0,0,.267-.267V16.267A.267.267,0,0,0,28.784,16H26.117a.267.267,0,0,0-.267.267v1.067a.267.267,0,0,0,.267.267v.962l-1.976-1.444a.267.267,0,0,0-.315,0l-6.933,5.066a.267.267,0,0,0,0,.429l.96.72v4.933a1.068,1.068,0,0,0-1.067,1.067q0,.017,0,.034a1.067,1.067,0,0,0,.266,2.1H30.917a1.067,1.067,0,0,0,.266-2.1Zm-4.8-12.833h2.133v.533H26.384Zm.267,2.4V17.6h1.6v2.521l-1.625-1.188Zm-2.666-1.27L30.469,22.4l-.621.466-5.707-4.151a.267.267,0,0,0-.314,0L18.12,22.868,17.5,22.4ZM16.518,30.4a.534.534,0,0,1,.525-.533h0l.041,0a.267.267,0,0,0,.267-.357.524.524,0,0,1-.035-.181.534.534,0,0,1,.533-.533v2.133h-.8A.534.534,0,0,1,16.518,30.4Zm11.466.533h-3.2V25.066h3.2Zm.533,0V24.8a.267.267,0,0,0-.267-.267H24.517a.267.267,0,0,0-.267.267v6.133H18.384v-7.6l5.6-4.072,5.6,4.072v7.6Zm2.4,0h-.8V28.8a.534.534,0,0,1,.533.533.524.524,0,0,1-.035.181.267.267,0,0,0,.267.357l.041,0h0a.533.533,0,0,1-.008,1.067Z"
              transform="translate(-15.984 -16)" fill="#858585" stroke="#858585" stroke-width="0.2"/>
        <path id="Path_3107" data-name="Path 3107"
              d="M124.029,272H120.31a.31.31,0,0,0-.31.31v4.339a.31.31,0,0,0,.31.31h3.719a.31.31,0,0,0,.31-.31V272.31A.31.31,0,0,0,124.029,272Zm-.31,2.169h-1.24v-1.55h1.24Zm-1.86-1.55v1.55h-1.24v-1.55Zm-1.24,2.169h1.24v1.55h-1.24Zm1.86,1.55v-1.55h1.24v1.55Z"
              transform="translate(-116.704 -263.995)" fill="#858585" stroke="#858585" stroke-width="0.2"/>
        <circle id="Ellipse_855" data-name="Ellipse 855" cx="0.31" cy="0.31" r="0.31"
                transform="translate(9.183 11.87) rotate(-67.5)" fill="#858585" stroke="#858585" stroke-width="0.2"/>
    </g>
</svg>
