<svg id="properties_inactive" xmlns="http://www.w3.org/2000/svg" width="72" height="52" viewBox="0 0 72 52">
    <rect id="Rectangle_10007" data-name="Rectangle 10007" width="72" height="52" fill="none"/>
    <g id="Group_10256" data-name="Group 10256" transform="translate(-87 -144.941)">
        <g id="Rectangle_8744" data-name="Rectangle 8744" transform="translate(104 151.941)" fill="#858585"
           stroke="#858585" stroke-width="0.5" opacity="0">
            <rect width="38" height="38" stroke="none"/>
            <rect x="0.25" y="0.25" width="37.5" height="37.5" fill="none"/>
        </g>
        <g id="Outline" transform="translate(104 151.999)">
            <path id="Path_2749" data-name="Path 2749"
                  d="M51.411,60.044V29.691h1.265a.632.632,0,0,0,.632-.632V24.633A.632.632,0,0,0,52.62,24l-21.5,1.9a.632.632,0,0,0-.577.63v2.529a.632.632,0,0,0,.632.632h1.265V39.809h1.265V29.691H50.146V60.044H46a2.361,2.361,0,0,0,.35-1.246,2.282,2.282,0,0,0-.819-1.73c-.309-.311-.445-.464-.445-.818,0-1.571-.869-3.162-2.529-3.162s-2.529,1.59-2.529,3.162c0,.355-.137.507-.445.818a2.282,2.282,0,0,0-.819,1.73,2.362,2.362,0,0,0,.35,1.246H32.441v-8.22a.632.632,0,0,0-.632-.632H28.014a.632.632,0,0,0-.632.632v8.22h-1.9V48.877l7.588-3.32,7.588,3.32v3.578h1.265V49.431l1.011.443a.632.632,0,0,0,.886-.58V46.132a.632.632,0,0,0-.379-.579L33.327,41.126a.632.632,0,0,0-.507,0L22.7,45.553a.632.632,0,0,0-.379.579v3.162a.632.632,0,0,0,.886.579l1.011-.443V60.044H19.794V49.294h1.265V48.029H17.265V34.118H31.176V32.853H27.012l-2.344-2.344a.632.632,0,0,0-.447-.185H19.162a.632.632,0,0,0-.632.632v1.9h-1.9a.632.632,0,0,0-.632.632V48.662a.632.632,0,0,0,.632.632h1.9v10.75H16v1.265H53.94V60.044Zm-19.6-32.935,20.235-1.785v3.1H31.809Zm-8.22,21.218V46.546l9.485-4.15,9.485,4.15v1.781l-.632-.277v-.021h-.048l-8.551-3.741a.632.632,0,0,0-.507,0l-8.551,3.741H24.22v.021ZM19.794,31.588h4.165l1.265,1.265H19.794Zm8.853,20.867h2.529v7.588H28.647Zm12.647,7.588A1.363,1.363,0,0,1,40.029,58.8c0-.368.139-.523.452-.839a2.26,2.26,0,0,0,.813-1.709c0-1.5.827-1.9,1.265-1.9,1,0,1.265,1.241,1.265,1.9a2.26,2.26,0,0,0,.812,1.709c.313.316.452.471.452.839a1.363,1.363,0,0,1-1.265,1.246Z"
                  transform="translate(-16 -24)" fill="#858585" stroke="#858585" stroke-width="0.5"/>
            <path id="Path_2750" data-name="Path 2750"
                  d="M240.632,384a.632.632,0,0,0-.632.632v3.162a.632.632,0,0,0,.632.632h3.794a.632.632,0,0,0,.632-.632v-3.162a.632.632,0,0,0-.632-.632Zm3.162,3.162h-2.529v-1.9h2.529Z"
                  transform="translate(-222.294 -355.545)" fill="#858585" stroke="#858585" stroke-width="0.5"/>
            <rect id="Rectangle_8745" data-name="Rectangle 8745" width="1.265" height="1.265"
                  transform="translate(13.279 24.661)" fill="#858585" stroke="#858585" stroke-width="0.5"/>
            <path id="Path_2751" data-name="Path 2751"
                  d="M54.956,175.588v-6.323h5.691V168H48.632a.632.632,0,0,0-.632.632V178.75a.632.632,0,0,0,.632.632h1.9v-1.265H49.265v-8.853h4.426v6.323Z"
                  transform="translate(-45.471 -156.618)" fill="#858585" stroke="#858585" stroke-width="0.5"/>
            <path id="Path_2752" data-name="Path 2752"
                  d="M264.632,125.059h3.794a.632.632,0,0,0,.632-.632v-3.794a.632.632,0,0,0-.632-.632h-3.794a.632.632,0,0,0-.632.632v3.794A.632.632,0,0,0,264.632,125.059Zm.632-3.794h2.529v2.529h-2.529Z"
                  transform="translate(-244.397 -112.412)" fill="#858585" stroke="#858585" stroke-width="0.5"/>
            <path id="Path_2753" data-name="Path 2753"
                  d="M360.632,125.059h3.794a.632.632,0,0,0,.632-.632v-3.794a.632.632,0,0,0-.632-.632h-3.794a.632.632,0,0,0-.632.632v3.794A.632.632,0,0,0,360.632,125.059Zm.632-3.794h2.529v2.529h-2.529Z"
                  transform="translate(-332.809 -112.412)" fill="#858585" stroke="#858585" stroke-width="0.5"/>
            <path id="Path_2754" data-name="Path 2754"
                  d="M264,210.529h1.265v-1.265h2.529v3.162h1.265v-3.794a.632.632,0,0,0-.632-.632h-3.794a.632.632,0,0,0-.632.632Z"
                  transform="translate(-244.397 -193.456)" fill="#858585" stroke="#858585" stroke-width="0.5"/>
            <path id="Path_2755" data-name="Path 2755"
                  d="M360,212.426a.632.632,0,0,0,.632.632h3.794a.632.632,0,0,0,.632-.632v-3.794a.632.632,0,0,0-.632-.632h-3.794a.632.632,0,0,0-.632.632Zm1.265-3.162h2.529v2.529h-2.529Z"
                  transform="translate(-332.809 -193.456)" fill="#858585" stroke="#858585" stroke-width="0.5"/>
            <path id="Path_2756" data-name="Path 2756"
                  d="M384,299.794v1.265h2.529a.632.632,0,0,0,.632-.632v-3.794a.632.632,0,0,0-.632-.632H384v1.265h1.9v2.529Z"
                  transform="translate(-354.912 -274.5)" fill="#858585" stroke="#858585" stroke-width="0.5"/>
            <rect id="Rectangle_8746" data-name="Rectangle 8746" width="1.265" height="1.265"
                  transform="translate(5.059 27.191)" fill="#858585" stroke="#858585" stroke-width="0.5"/>
        </g>
    </g>
</svg>
