<svg id="rate" xmlns="http://www.w3.org/2000/svg" width="24" height="24" viewBox="0 0 24 24">
    <rect id="Rectangle_10092" data-name="Rectangle 10092" width="24" height="24" fill="none"/>
    <g id="star-with-five-points" transform="translate(4 4)">
        <path id="Path_2792" data-name="Path 2792"
              d="M15.963,6.5c-.245-.767-1.6-.943-3.025-1.132a6.324,6.324,0,0,1-1.943-.418,6.336,6.336,0,0,1-.982-1.729C9.406,1.915,8.831.682,8.028.68l-.015,0C7.216.691,6.636,1.909,6.018,3.2a6.448,6.448,0,0,1-1,1.721,6.427,6.427,0,0,1-1.949.4C1.644,5.5.292,5.658.04,6.421s.734,1.7,1.78,2.693A6.418,6.418,0,0,1,3.146,10.6a6.375,6.375,0,0,1-.222,1.975c-.277,1.412-.539,2.75.109,3.228a.939.939,0,0,0,.58.162,6.959,6.959,0,0,0,2.531-1.024,6.35,6.35,0,0,1,1.818-.805,6.294,6.294,0,0,1,1.811.821A6.616,6.616,0,0,0,12.347,16a.9.9,0,0,0,.527-.16c.652-.469.4-1.806.142-3.224a6.494,6.494,0,0,1-.2-1.979,6.472,6.472,0,0,1,1.342-1.468C15.21,8.192,16.206,7.268,15.963,6.5Z"
              transform="translate(0 -0.678)" fill="#3190af"/>
    </g>
</svg>
