<svg id="rateDesktop" xmlns="http://www.w3.org/2000/svg" width="32" height="32" viewBox="0 0 32 32">
    <rect id="Rectangle_10056" data-name="Rectangle 10056" width="32" height="32" fill="none"/>
    <g id="star-with-five-points" transform="translate(4 5)">
        <path id="Path_2792" data-name="Path 2792"
              d="M23.944,9.412c-.368-1.151-2.393-1.414-4.538-1.7a9.485,9.485,0,0,1-2.914-.627,9.5,9.5,0,0,1-1.473-2.594c-.91-1.96-1.772-3.809-2.977-3.812l-.022,0C10.824.7,9.954,2.525,9.028,4.464a9.672,9.672,0,0,1-1.5,2.581,9.64,9.64,0,0,1-2.924.6C2.466,7.9.438,8.148.06,9.293s1.1,2.552,2.671,4.039a9.628,9.628,0,0,1,1.99,2.221,9.562,9.562,0,0,1-.334,2.963c-.416,2.119-.808,4.125.163,4.842a1.409,1.409,0,0,0,.869.243,10.439,10.439,0,0,0,3.8-1.535,9.526,9.526,0,0,1,2.726-1.208,9.441,9.441,0,0,1,2.717,1.232c1.41.783,2.869,1.593,3.862,1.577a1.353,1.353,0,0,0,.79-.24c.977-.7.6-2.709.212-4.836a9.741,9.741,0,0,1-.305-2.968,9.707,9.707,0,0,1,2.014-2.2C22.815,11.95,24.309,10.563,23.944,9.412Z"
              transform="translate(0 -0.678)" fill="none" stroke="#3190af" stroke-width="1.8"/>
    </g>
</svg>
