<svg id="schedule-location" xmlns="http://www.w3.org/2000/svg" width="24" height="24" viewBox="0 0 24 24">
    <rect id="Rectangle_9847" data-name="Rectangle 9847" width="24" height="24" fill="none"/>
    <path id="Union_82" data-name="Union 82"
          d="M4.484,23.82a14.135,14.135,0,0,1-2.333-.49,7.449,7.449,0,0,1-.9-.338A3.908,3.908,0,0,1,.577,22.6a1.737,1.737,0,0,1-.428-.429.786.786,0,0,1,0-.921,1.737,1.737,0,0,1,.428-.429,3.908,3.908,0,0,1,.677-.388,7.443,7.443,0,0,1,.9-.338,14.136,14.136,0,0,1,2.333-.49c.205-.027.417-.051.628-.072l.392.716a18.006,18.006,0,0,0-2.537.335,5.645,5.645,0,0,0-1.332.431,1.342,1.342,0,0,0-.362.254.358.358,0,0,0,0,.546,1.34,1.34,0,0,0,.362.254,5.643,5.643,0,0,0,1.332.431,21.677,21.677,0,0,0,4.4.4,21.676,21.676,0,0,0,4.4-.4,5.644,5.644,0,0,0,1.332-.431,1.34,1.34,0,0,0,.362-.254.358.358,0,0,0,0-.546,1.342,1.342,0,0,0-.362-.254,5.646,5.646,0,0,0-1.332-.431,18.144,18.144,0,0,0-2.6-.34c.168-.3.3-.537.406-.712.214.021.427.046.634.073a14.137,14.137,0,0,1,2.333.49,7.448,7.448,0,0,1,.9.338,3.91,3.91,0,0,1,.677.388,1.738,1.738,0,0,1,.428.429.786.786,0,0,1,0,.921,1.737,1.737,0,0,1-.428.429,3.91,3.91,0,0,1-.677.388,7.454,7.454,0,0,1-.9.338,14.137,14.137,0,0,1-2.333.49A21.984,21.984,0,0,1,7.341,24,21.984,21.984,0,0,1,4.484,23.82Zm-.8-1.671a5.984,5.984,0,0,1-1.109-.262c-.27-.1-.407-.21-.407-.321s.137-.22.407-.321a5.984,5.984,0,0,1,1.109-.262,20.218,20.218,0,0,1,2.109-.2c.109.2.2.366.263.491-.674.023-1.25.062-1.667.115s-.651.116-.651.182c0,.175,1.618.317,3.607.317s3.607-.142,3.607-.317c0-.066-.23-.13-.665-.183s-1.013-.092-1.7-.115l.276-.491A20.32,20.32,0,0,1,11,20.982a5.982,5.982,0,0,1,1.109.262c.27.1.407.21.407.321s-.137.22-.407.321A5.981,5.981,0,0,1,11,22.15a24.493,24.493,0,0,1-3.661.242A24.493,24.493,0,0,1,3.68,22.15Zm3.251-.711L.954,10.657a7.242,7.242,0,1,1,12.748,0L7.723,21.439a.453.453,0,0,1-.792,0ZM3.706,7.224A3.621,3.621,0,1,0,7.327,3.612,3.621,3.621,0,0,0,3.706,7.224Z"
          transform="translate(4.8)" fill="#57c1e3"/>
</svg>
