<svg id="start-searching" xmlns="http://www.w3.org/2000/svg" width="32" height="32" viewBox="0 0 32 32">
    <rect id="Rectangle_10022" data-name="Rectangle 10022" width="32" height="32" fill="none"/>
    <g id="Group_12593" data-name="Group 12593" transform="translate(7.297 7)">
        <g id="Group_10413" data-name="Group 10413" transform="translate(-0.297 0)">
            <g id="Group_10415" data-name="Group 10415" transform="translate(0)">
                <rect id="Rectangle_8810" data-name="Rectangle 8810" width="18" height="18" fill="none"/>
                <g id="Group_9770" data-name="Group 9770" transform="translate(0.976 1.773)">
                    <path id="Path_2483" data-name="Path 2483"
                          d="M301.723,299.721l-3.478-3.478a6.7,6.7,0,0,1-2.01,2.009l3.478,3.478a1.421,1.421,0,0,0,2.01-2.009Z"
                          transform="translate(-286.981 -286.988)" fill="#b5b5b5"/>
                    <path id="Path_2484" data-name="Path 2484"
                          d="M11.37,5.685a5.684,5.684,0,1,0-5.684,5.684A5.685,5.685,0,0,0,11.37,5.685ZM5.686,9.948A4.263,4.263,0,1,1,9.949,5.685,4.268,4.268,0,0,1,5.686,9.948Z"
                          transform="translate(-0.001)" fill="#b5b5b5"/>
                    <path id="Path_2485" data-name="Path 2485"
                          d="M75.817,79.132h.947a2.371,2.371,0,0,1,2.369-2.369v-.947A3.32,3.32,0,0,0,75.817,79.132Z"
                          transform="translate(-73.448 -73.447)" fill="#b5b5b5"/>
                </g>
            </g>
        </g>
    </g>
</svg>
