<svg id="search" xmlns="http://www.w3.org/2000/svg" width="24" height="24" viewBox="0 0 24 24">
    <rect id="Rectangle_8732" data-name="Rectangle 8732" width="24" height="24" fill="none"/>
    <g id="loupe" transform="translate(2 2)">
        <g id="Group_9686" data-name="Group 9686">
            <g id="Group_9685" data-name="Group 9685">
                <path id="Path_2747" data-name="Path 2747"
                      d="M8.808,0a8.808,8.808,0,1,0,8.808,8.808A8.818,8.818,0,0,0,8.808,0Zm0,15.989a7.182,7.182,0,1,1,7.182-7.182A7.19,7.19,0,0,1,8.808,15.989Z"
                      fill="#b5b5b5"/>
            </g>
        </g>
        <g id="Group_9688" data-name="Group 9688" transform="translate(13.713 13.713)">
            <g id="Group_9687" data-name="Group 9687">
                <path id="Path_2748" data-name="Path 2748"
                      d="M357.095,355.945l-4.661-4.661a.813.813,0,0,0-1.15,1.15l4.661,4.661a.813.813,0,0,0,1.15-1.15Z"
                      transform="translate(-351.046 -351.046)" fill="#b5b5b5"/>
            </g>
        </g>
    </g>
</svg>
