<svg id="selfie-empty" xmlns="http://www.w3.org/2000/svg" width="40" height="38" viewBox="0 0 40 38">
  <g id="Group_13197" data-name="Group 13197">
    <rect id="Rectangle_8446" data-name="Rectangle 8446" width="40" height="38" fill="none"/>
    <g id="vlog" transform="translate(4 4)">
      <path id="Path_4544" data-name="Path 4544" d="M22.4,22a1.049,1.049,0,0,0-1.05-.93h-16a3.1,3.1,0,0,1-3.2-2.977V8.158a3.1,3.1,0,0,1,3.2-2.977H6.4a1.1,1.1,0,0,0,1.012-.466.937.937,0,0,0,0-1.051A1.1,1.1,0,0,0,6.4,3.2H5.33A5.164,5.164,0,0,0,0,8.158v9.927a5.164,5.164,0,0,0,5.33,4.959H9.9l.34.93a3.14,3.14,0,0,0,2.57,2h0v2.968a1.08,1.08,0,0,0,2.13,0v-2.9h2.14v2.968a1.08,1.08,0,0,0,2.13,0V26.04h0a3.14,3.14,0,0,0,2.57-2l.56-1.563A1.035,1.035,0,0,0,22.4,22Zm-3.67,2.047H13.27a1.065,1.065,0,0,1-1-.679l-.12-.326h7.71l-.12.326A1.056,1.056,0,0,1,18.73,24.049Z" transform="translate(0 0)" fill="#b5b5b5"/>
      <path id="Path_4545" data-name="Path 4545" d="M26.67,3.2H22.4A3.2,3.2,0,0,0,19.2,0H12.8A3.2,3.2,0,0,0,9.6,3.2V4.27a1.07,1.07,0,0,0,1.07,1.07h16a3.2,3.2,0,0,1,3.2,3.2V19.2a3.2,3.2,0,0,1-3.2,3.2H25.6a1.07,1.07,0,1,0,0,2.13h1.07A5.34,5.34,0,0,0,32,19.2V8.53A5.34,5.34,0,0,0,26.67,3.2ZM12.8,2.13h6.4A1.07,1.07,0,0,1,20.27,3.2H11.74A1.07,1.07,0,0,1,12.8,2.13Z" fill="#b5b5b5"/>
      <path id="Path_4546" data-name="Path 4546" d="M4.26,12.84A1.07,1.07,0,0,0,3.2,13.91v3.16a1.07,1.07,0,0,0,2.13,0V13.91a1.07,1.07,0,0,0-1.07-1.07Z" transform="translate(0 -0.961)" fill="#b5b5b5"/>
      <path id="Path_4547" data-name="Path 4547" d="M5.33,10.67a1,1,0,0,0-1.07-1,1.119,1.119,0,1,0,1.07,1.04Z" transform="translate(0 -0.651)" fill="#b5b5b5"/>
      <path id="Path_4548" data-name="Path 4548" d="M28.81,13.91a1,1,0,0,0-1.07-1A1.029,1.029,0,1,0,28.8,14Z" transform="translate(0 -0.865)" fill="#b5b5b5"/>
      <path id="Path_4549" data-name="Path 4549" d="M9.78,20a1.07,1.07,0,0,0,.76,1.3,1.11,1.11,0,0,0,.27,0,1.07,1.07,0,0,0,1-.8,3.2,3.2,0,0,1,3.09-2.38h2.14a3.17,3.17,0,0,1,3.07,2.38,1.084,1.084,0,0,0,2.11-.5,5.3,5.3,0,0,0-5.14-4H14.93a5.33,5.33,0,0,0-5.15,4Z" transform="translate(0 -1.204)" fill="#b5b5b5"/>
      <path id="Path_4550" data-name="Path 4550" d="M20.27,10.69a4.27,4.27,0,1,0-1.236,3.045A4.27,4.27,0,0,0,20.27,10.69Zm-6.4,0A2.13,2.13,0,1,1,16,12.83a2.13,2.13,0,0,1-2.13-2.14Z" transform="translate(0 -0.553)" fill="#b5b5b5"/>
    </g>
  </g>
</svg>
