<svg id="share-button" xmlns="http://www.w3.org/2000/svg" width="32" height="32" viewBox="0 0 32 32">
  <rect id="Rectangle_10098" data-name="Rectangle 10098" width="32" height="32" fill="none"/>
  <g id="share_1_" data-name="share (1)" transform="translate(-31.088 6.578)">
    <path id="Path_4506" data-name="Path 4506" d="M96.552,4.293l1.179-1.179v9.347a.912.912,0,0,0,1.823,0V3.114l1.179,1.179A.912.912,0,0,0,102.022,3L99.287.269Q99.255.237,99.22.208L99.189.185l-.041-.03L99.11.132,99.072.11,99.032.09,98.991.071,98.952.057,98.907.041l-.04-.01L98.82.02,98.774.013,98.732.006c-.028,0-.056,0-.084,0h-.011q-.042,0-.085,0l-.041.006L98.464.02l-.046.011-.041.011-.043.015-.041.015L98.254.09l-.042.02-.036.021-.04.024L98.1.184l-.033.025c-.022.018-.043.037-.064.058l0,0L95.263,3a.912.912,0,0,0,1.289,1.289Z" transform="translate(-51.652)" fill="#b5b5b5"/>
    <path id="Path_4507" data-name="Path 4507" d="M53.068,100H50.637a.912.912,0,0,0,0,1.823h1.519v9.116H41.824v-9.116h1.519a.912.912,0,1,0,0-1.823H40.913a.912.912,0,0,0-.912.912v10.94a.912.912,0,0,0,.912.912H53.068a.912.912,0,0,0,.912-.912v-10.94A.912.912,0,0,0,53.068,100Z" transform="translate(0 -93.922)" fill="#b5b5b5"/>
  </g>
</svg>
