<svg id="shop-roof" xmlns="http://www.w3.org/2000/svg" width="893.66" height="200.304" viewBox="0 0 893.66 200.304">
  <g id="Group_13057" data-name="Group 13057" transform="translate(0 123.265)">
    <path id="Path_4457" data-name="Path 4457" d="M226.8,244.764h0a40.622,40.622,0,0,1-40.621-40.621V167.724h81.243v36.418A40.622,40.622,0,0,1,226.8,244.764Z" transform="translate(138.785 -167.724)" fill="#d2555a"/>
    <path id="Path_4458" data-name="Path 4458" d="M319.894,244.764h0a40.622,40.622,0,0,1-40.621-40.621V167.724h81.243v36.418A40.623,40.623,0,0,1,319.894,244.764Z" transform="translate(208.178 -167.724)" fill="#d2555a"/>
    <path id="Path_4459" data-name="Path 4459" d="M133.712,244.764h0a40.622,40.622,0,0,1-40.621-40.621V167.724h81.243v36.418A40.623,40.623,0,0,1,133.712,244.764Z" transform="translate(69.393 -167.724)" fill="#d2555a"/>
    <path id="Path_4460" data-name="Path 4460" d="M40.621,244.764h0A40.622,40.622,0,0,1,0,204.142V167.724H81.243v36.418A40.622,40.622,0,0,1,40.621,244.764Z" transform="translate(0 -167.724)" fill="#d2555a"/>
    <path id="Path_4461" data-name="Path 4461" d="M412.984,244.764h0a40.622,40.622,0,0,1-40.621-40.621V167.724h81.243v36.418A40.621,40.621,0,0,1,412.984,244.764Z" transform="translate(277.571 -167.724)" fill="#d2555a"/>
  </g>
  <path id="Path_4485" data-name="Path 4485" d="M506.075,244.764h0a40.622,40.622,0,0,1-40.621-40.621V167.724H546.7v36.418A40.622,40.622,0,0,1,506.075,244.764Z" transform="translate(346.963 -44.46)" fill="#d2555a"/>
  <g id="Group_13058" data-name="Group 13058" transform="translate(81.241 123.265)">
    <path id="Path_4465" data-name="Path 4465" d="M459.53,244.764h0a40.622,40.622,0,0,1-40.621-40.621V167.724h81.243v36.418A40.624,40.624,0,0,1,459.53,244.764Z" transform="translate(231.026 -167.724)" fill="#c7cfe2"/>
    <path id="Path_4466" data-name="Path 4466" d="M87.166,244.764h0a40.622,40.622,0,0,1-40.621-40.621V167.724h81.243v36.418A40.622,40.622,0,0,1,87.166,244.764Z" transform="translate(-46.545 -167.724)" fill="#c7cfe2"/>
    <path id="Path_4467" data-name="Path 4467" d="M273.348,244.764h0a40.622,40.622,0,0,1-40.621-40.621V167.724H313.97v36.418A40.622,40.622,0,0,1,273.348,244.764Z" transform="translate(92.241 -167.724)" fill="#c7cfe2"/>
  </g>
  <g id="Group_13059" data-name="Group 13059">
    <path id="Path_4468" data-name="Path 4468" d="M267.423,220.367H186.182l8.4-123.264h75.64Z" transform="translate(138.786 -97.103)" fill="#ff6464"/>
    <path id="Path_4469" data-name="Path 4469" d="M361.711,220.367H280.47L277.667,97.1h75.64Z" transform="translate(206.981 -97.103)" fill="#ff6464"/>
    <path id="Path_4470" data-name="Path 4470" d="M174.332,220.367H93.091L112.7,97.1h75.638Z" transform="translate(69.393 -97.103)" fill="#ff6464"/>
    <path id="Path_4471" data-name="Path 4471" d="M81.243,220.367H0L30.816,97.1h75.64Z" transform="translate(0 -97.103)" fill="#ff6464"/>
    <path id="Path_4472" data-name="Path 4472" d="M459.587,220.367H378.346L364.339,97.1h75.638Z" transform="translate(271.589 -97.103)" fill="#ff6464"/>
  </g>
  <path id="Path_4486" data-name="Path 4486" d="M557.464,220.367H476.222L451.009,97.1h75.64Z" transform="translate(336.195 -97.103)" fill="#ff6464"/>
  <g id="Group_13060" data-name="Group 13060" transform="translate(81.243)">
    <path id="Path_4476" data-name="Path 4476" d="M508.525,220.367H427.284L407.674,97.1h75.638Z" transform="translate(222.65 -97.103)" fill="#eff2fa"/>
    <path id="Path_4477" data-name="Path 4477" d="M127.787,220.367H46.546L71.759,97.1H147.4Z" transform="translate(-46.546 -97.103)" fill="#eff2fa"/>
    <path id="Path_4478" data-name="Path 4478" d="M313.97,220.367H232.727L235.53,97.1h75.637Z" transform="translate(92.239 -97.103)" fill="#eff2fa"/>
  </g>
</svg>
