<svg id="size-icon" xmlns="http://www.w3.org/2000/svg" width="80" height="80" viewBox="0 0 80 80">
  <rect id="_129330626" data-name="129330626" width="80" height="80" rx="4" fill="none"/>
  <g id="size" transform="translate(13.374 13.374)">
    <g id="Group_12213" data-name="Group 12213" transform="translate(-1 -1)">
      <g id="Group_12212" data-name="Group 12212" transform="translate(0)">
        <path id="Path_4201" data-name="Path 4201" d="M85.254,45.043h44.2a.87.87,0,0,0,.921-.921V-.079A.87.87,0,0,0,129.455-1h-44.2a.87.87,0,0,0-.921.921v44.2A.87.87,0,0,0,85.254,45.043Zm.921-14.734h9.209a10.216,10.216,0,0,1-9.209,9.209Zm0-29.468h14.734V6.367h-.921a.87.87,0,0,0-.921.921.87.87,0,0,0,.921.921h3.683a.87.87,0,0,0,.921-.921.87.87,0,0,0-.921-.921h-.921V.842h8.288v10.13a.87.87,0,0,0,.921.921h3.683v.921a.921.921,0,1,0,1.842,0V9.13a.921.921,0,1,0-1.842,0v.921H112.88V.842h15.655V10.05h-3.683V9.13a.921.921,0,1,0-1.842,0v3.683a.921.921,0,1,0,1.842,0v-.921h3.683V26.626h-5.525v-.921a.921.921,0,1,0-1.842,0v3.683a.921.921,0,1,0,1.842,0v-.921h5.525V43.2H108.276V28.468H113.8v.921a.921.921,0,0,0,1.842,0V25.705a.921.921,0,0,0-1.842,0v.921h-6.446a.87.87,0,0,0-.921.921V43.2H86.175V41.325a11.946,11.946,0,0,0,11.05-11.937.87.87,0,0,0-.921-.921H86.175V22.943h15.655a.87.87,0,0,0,.921-.921V15.576h.921a.921.921,0,1,0,0-1.842H99.988a.921.921,0,1,0,0,1.842h.921V21.1H86.175Z" transform="translate(-75.124 1)" fill="#3190af" stroke="#3190af" stroke-width="0.6"/>
        <path id="Path_4202" data-name="Path 4202" d="M6.091,44.767A.912.912,0,1,0,4.8,43.478l-1.2,1.2V2.131l1.2,1.2a.89.89,0,0,0,1.289,0,.89.89,0,0,0,0-1.289L3.486-.566A.875.875,0,0,0,2.684-1a.875.875,0,0,0-.8.434l-2.6,2.605a.89.89,0,0,0,0,1.289.89.89,0,0,0,1.289,0l1.2-1.2V44.675l-1.2-1.2a.89.89,0,0,0-1.289,0,.89.89,0,0,0,0,1.289l2.605,2.605a.875.875,0,0,0,.8.434.875.875,0,0,0,.8-.434Z" transform="translate(1 1)" fill="#3190af" stroke="#3190af" stroke-width="0.6"/>
        <path id="Path_4203" data-name="Path 4203" d="M107.539,446.417v0a.875.875,0,0,0-.434-.8l-2.605-2.605a.912.912,0,1,0-1.289,1.289l1.2,1.2H61.864l1.2-1.2a.912.912,0,0,0-1.289-1.289l-2.605,2.605a.959.959,0,0,0,0,1.6l2.605,2.605a.89.89,0,0,0,1.289,0,.89.89,0,0,0,0-1.289l-1.2-1.2h42.544l-1.2,1.2a.89.89,0,0,0,0,1.289.89.89,0,0,0,1.289,0l2.605-2.605A.875.875,0,0,0,107.539,446.417Z" transform="translate(-52.287 -394.847)" fill="#3190af" stroke="#3190af" stroke-width="0.6"/>
      </g>
    </g>
  </g>
</svg>
