<svg id="storey-icon" xmlns="http://www.w3.org/2000/svg" width="80" height="80" viewBox="0 0 80 80">
  <rect id="_129330626" data-name="129330626" width="80" height="80" rx="4" fill="none"/>
  <g id="Group_10032" data-name="Group 10032" transform="translate(8 8)">
    <path id="Path_3179" data-name="Path 3179" d="M61.306,38.112l-1.346-.822,1.346-.828c3.584-2.191,3.592-5.922,0-8.117l-1.346-.822,1.346-.828a5.623,5.623,0,0,0,0-9.594L34.926.873a5.6,5.6,0,0,0-5.865,0l0,0L2.694,17.1a5.623,5.623,0,0,0,0,9.594l1.35.831-1.346.822c-3.58,2.188-3.6,5.92,0,8.114l1.35.831-1.346.822a4.994,4.994,0,0,0,0,8.864L29.061,63.2a5.6,5.6,0,0,0,5.869,0L61.306,46.979A5,5,0,0,0,61.306,38.112ZM4.654,20.294,31.021,4.069h0a1.865,1.865,0,0,1,1.946,0L59.351,20.3a1.874,1.874,0,0,1,0,3.2L32.971,39.722a1.865,1.865,0,0,1-1.95,0L4.649,23.5A1.874,1.874,0,0,1,4.654,20.294ZM3.752,32.4c0-.063.167-.413.9-.86l2.973-1.817L29.061,42.92a5.6,5.6,0,0,0,5.869,0L56.378,29.726l2.974,1.817c.73.446.9.8.9.86s-.167.414-.9.863L32.971,49.488a1.865,1.865,0,0,1-1.95,0L4.649,33.263C3.919,32.817,3.754,32.466,3.752,32.4Zm55.6,11.379L32.971,60.005a1.865,1.865,0,0,1-1.95,0L4.649,43.78c-1.191-.728-1.193-1.74,0-2.469l2.973-1.817,21.44,13.193a5.6,5.6,0,0,0,5.869,0L56.378,39.493l2.974,1.818a1.3,1.3,0,0,1,0,2.472Z" transform="translate(0 -0.044)" fill="#3190af"/>
  </g>
</svg>
