<?xml version="1.0" encoding="utf-8"?>
<!-- Generator: Adobe Illustrator 26.0.3, SVG Export Plug-In . SVG Version: 6.00 Build 0)  -->
<svg version="1.1" id="timing-icon-list" xmlns="http://www.w3.org/2000/svg" xmlns:xlink="http://www.w3.org/1999/xlink" x="0px"
	 y="0px" viewBox="0 0 24 16" style="enable-background:new 0 0 24 16;" xml:space="preserve">
<style type="text/css">
	.st0{fill:none;}
	.st1{fill:#EF5E5E;}
</style>
<rect id="Rectangle_8431" class="st0" width="24" height="16"/>
<g id="clock" transform="translate(6.667 2.667)">
	<g id="Group_204" transform="translate(0 0)">
		<g id="Group_205">
			<path id="Path_96" class="st1" d="M10.2,3.3C9.7,2,8.7,1,7.4,0.4C6.7,0.1,6,0,5.3,0C4.6,0,3.9,0.1,3.3,0.4C2,1,1,2,0.4,3.3
				c-0.6,1.3-0.6,2.8,0,4.1C1,8.7,2,9.7,3.3,10.2c0.7,0.3,1.4,0.4,2.1,0.4c0.7,0,1.4-0.1,2.1-0.4c1.3-0.5,2.3-1.5,2.8-2.8
				C10.8,6.1,10.8,4.6,10.2,3.3L10.2,3.3z M9.4,7.7C9,8.4,8.4,9,7.7,9.4C7,9.8,6.2,10,5.3,10c-0.6,0-1.2-0.1-1.8-0.4
				C2.9,9.4,2.4,9.1,2,8.6C1.6,8.2,1.2,7.7,1,7.1C0.8,6.6,0.6,6,0.6,5.3c0-0.8,0.2-1.6,0.6-2.3c0.4-0.7,1-1.3,1.7-1.7
				c0.7-0.4,1.5-0.6,2.3-0.6c0.8,0,1.6,0.2,2.3,0.6C8.4,1.7,9,2.3,9.4,3C9.8,3.7,10,4.5,10,5.3C10,6.2,9.8,7,9.4,7.7z"/>
			<path id="Path_97" class="st1" d="M5.7,5.3v-3c0-0.2-0.2-0.3-0.3-0.3C5.1,1.9,5,2.1,5,2.3v3.1c0,0,0,0,0,0c0,0.1,0,0.2,0.1,0.3
				l1.7,1.7c0.1,0.1,0.3,0.1,0.4,0c0.1-0.1,0.1-0.3,0-0.4c0,0,0,0,0,0L5.7,5.3z"/>
		</g>
	</g>
</g>
</svg>
