<svg id="timing-icon-list" xmlns="http://www.w3.org/2000/svg" width="24" height="16" viewBox="0 0 24 16">
    <rect id="Rectangle_8431" data-name="Rectangle 8431" width="24" height="16" fill="none"/>
    <g id="clock" transform="translate(6.667 2.667)">
        <g id="Group_204" data-name="Group 204" transform="translate(0 0)">
            <g id="Group_205" data-name="Group 205">
                <path id="Path_96" data-name="Path 96"
                      d="M10.241,3.422A5.226,5.226,0,0,0,7.4.594,5.242,5.242,0,0,0,5.325.168a5.188,5.188,0,0,0-2.07.426A5.242,5.242,0,0,0,.42,3.422a5.328,5.328,0,0,0,0,4.147A5.254,5.254,0,0,0,3.254,10.4a5.188,5.188,0,0,0,2.07.426A5.244,5.244,0,0,0,7.4,10.4a5.237,5.237,0,0,0,2.84-2.834,5.261,5.261,0,0,0,0-4.147ZM9.39,7.849A4.679,4.679,0,0,1,7.675,9.558a4.594,4.594,0,0,1-2.35.63,4.516,4.516,0,0,1-1.82-.373,4.769,4.769,0,0,1-1.493-1,4.74,4.74,0,0,1-1-1.5A4.592,4.592,0,0,1,.647,5.493a4.585,4.585,0,0,1,.624-2.344A4.681,4.681,0,0,1,2.98,1.439,4.558,4.558,0,0,1,5.325.81a4.593,4.593,0,0,1,2.35.63A4.693,4.693,0,0,1,9.389,3.148a4.558,4.558,0,0,1,.63,2.344A4.6,4.6,0,0,1,9.39,7.849Z"
                      transform="translate(0 -0.168)" fill="#54b948"/>
                <path id="Path_97" data-name="Path 97"
                      d="M287.752,114.269v-3.021a.336.336,0,0,0-.338-.327.329.329,0,0,0-.321.327v3.068a.266.266,0,0,1,.012.047.3.3,0,0,0,.087.263l1.744,1.744a.332.332,0,0,0,.449,0,.314.314,0,0,0,0-.455Z"
                      transform="translate(-282.089 -108.991)" fill="#54b948"/>
            </g>
        </g>
    </g>
</svg>
