<svg id="toilet-icon" xmlns="http://www.w3.org/2000/svg" width="80" height="80" viewBox="0 0 80 80">
  <rect id="_129330626" data-name="129330626" width="80" height="80" rx="4" fill="none"/>
  <g id="toilet" transform="translate(16 24)">
    <g id="Group_9838" data-name="Group 9838">
      <g id="Group_9837" data-name="Group 9837">
        <path id="Path_2885" data-name="Path 2885" d="M36.563,20.064H14.813a3.944,3.944,0,0,0-3.826,3.01H9.965V1.875A1.877,1.877,0,0,0,8.09,0H1.875A1.877,1.877,0,0,0,0,1.875V24.012c0,.021,0,.042,0,.063s0,.019,0,.029a.944.944,0,0,0,.015.1h0L1.932,33.3a32.446,32.446,0,0,1,.693,6.665v7.1A.938.938,0,0,0,3.562,48H31.728a.938.938,0,0,0,.938-.937v-10A14.825,14.825,0,0,0,40.5,24,3.942,3.942,0,0,0,36.563,20.064Zm-21.75,1.875h21.75A2.065,2.065,0,0,1,38.4,23.064H12.976A2.064,2.064,0,0,1,14.813,21.939ZM1.875,23.074V1.875H8.09v21.2ZM25.688,36.939a.938.938,0,1,0,0,1.875,14.744,14.744,0,0,0,5.1-.906v8.217H4.5V39.962a34.331,34.331,0,0,0-.733-7.051L2.76,28.125h20.6a.938.938,0,0,0,0-1.875H2.643a.935.935,0,0,0-.269.04l-.282-1.34,36.5-.01A12.955,12.955,0,0,1,25.688,36.939Z" fill="#3190af" stroke="#3190af" stroke-width="0.2"/>
      </g>
    </g>
    <g id="Group_9840" data-name="Group 9840" transform="translate(25.472 26.25)">
      <g id="Group_9839" data-name="Group 9839">
        <path id="Path_2886" data-name="Path 2886" d="M272.654,280h-.012a.937.937,0,1,0,0,1.875h.012a.937.937,0,1,0,0-1.875Z" transform="translate(-271.704 -280)" fill="#3190af" stroke="#3190af" stroke-width="0.2"/>
      </g>
    </g>
    <g id="Group_9842" data-name="Group 9842" transform="translate(30.75)">
      <g id="Group_9841" data-name="Group 9841">
        <path id="Path_2887" data-name="Path 2887" d="M344.313,0a.938.938,0,0,0-.937.937V6.75h-.281c-.029,0-.058,0-.086,0v-1.1A2.816,2.816,0,0,0,340.2,2.844h-7.129a2.816,2.816,0,0,0-2.812,2.812V6.75h-.379V5.1A.937.937,0,0,0,328,5.1V7.687a.938.938,0,0,0,.938.937h1.316v7.406a.938.938,0,0,0,.938.938H342.07a.937.937,0,0,0,.937-.937V8.621c.028,0,.057,0,.086,0h1.219a.938.938,0,0,0,.938-.937V.937A.938.938,0,0,0,344.313,0Zm-3.18,15.094h-9V13.251a2.8,2.8,0,0,0,.937.161H340.2a2.8,2.8,0,0,0,.938-.161Zm0-6.125V10.6a.939.939,0,0,1-.938.938h-7.129a.939.939,0,0,1-.937-.937V5.656a.939.939,0,0,1,.937-.937H340.2a.939.939,0,0,1,.938.937Z" transform="translate(-328)" fill="#3190af" stroke="#3190af" stroke-width="0.2"/>
      </g>
    </g>
  </g>
</svg>
