<svg xmlns="http://www.w3.org/2000/svg" width="26.094" height="26.094" viewBox="0 0 26.094 26.094">
    <path id="user_2_" data-name="user (2)"
          d="M26.094,13.047A13.047,13.047,0,1,0,4.235,22.658l-.012.011.423.357c.028.023.057.042.085.065.225.186.458.363.7.535.077.056.154.111.232.165q.38.262.779.5l.175.1c.291.166.588.322.892.465l.067.03a12.929,12.929,0,0,0,3.155,1l.087.016c.343.059.691.107,1.042.139l.129.01c.35.029.7.047,1.063.047s.706-.019,1.054-.046l.132-.01q.523-.048,1.033-.136l.089-.016a12.929,12.929,0,0,0,3.111-.975l.109-.049q.439-.206.859-.444l.208-.12c.255-.15.506-.307.75-.474.088-.06.174-.123.26-.186.208-.15.413-.3.612-.466.044-.036.092-.066.135-.1l.434-.362-.013-.011A13.013,13.013,0,0,0,26.094,13.047Zm-25.145,0A12.1,12.1,0,1,1,21.07,22.091a3.555,3.555,0,0,0-.424-.255l-4.017-2.008a1.052,1.052,0,0,1-.584-.946v-1.4c.093-.115.191-.245.293-.388a9.668,9.668,0,0,0,1.241-2.431,1.722,1.722,0,0,0,.989-1.56V11.419a1.726,1.726,0,0,0-.421-1.124V8.081A3.827,3.827,0,0,0,17.254,5.3a5.34,5.34,0,0,0-4.207-1.5A5.342,5.342,0,0,0,8.84,5.3,3.827,3.827,0,0,0,7.947,8.08v2.214a1.729,1.729,0,0,0-.421,1.124V13.1a1.726,1.726,0,0,0,.636,1.338A8.915,8.915,0,0,0,9.629,17.47v1.373a1.058,1.058,0,0,1-.551.929L5.326,21.818a3.429,3.429,0,0,0-.357.226A12.069,12.069,0,0,1,.949,13.047Zm19.195,9.788q-.249.181-.506.349c-.079.051-.157.1-.237.152-.224.139-.452.27-.684.394l-.155.079a12.089,12.089,0,0,1-1.655.7l-.06.02q-.446.148-.9.262h0c-.307.076-.619.139-.932.191l-.026,0c-.295.048-.592.083-.89.109l-.158.012c-.295.022-.591.037-.888.037s-.6-.015-.9-.037l-.155-.012c-.3-.027-.6-.062-.9-.111l-.04-.007a12.053,12.053,0,0,1-1.846-.461L9.155,24.5q-.448-.152-.883-.338l-.006,0c-.274-.118-.543-.249-.809-.387l-.1-.054c-.242-.13-.48-.269-.714-.416l-.206-.132c-.215-.141-.428-.288-.635-.443l-.063-.049.046-.026L9.532,20.6a2.006,2.006,0,0,0,1.046-1.762V17.134L10.468,17a7.921,7.921,0,0,1-1.424-2.949L9,13.865l-.162-.1a.786.786,0,0,1-.365-.66V11.418a.775.775,0,0,1,.264-.58L8.9,10.7V8.054l0-.062a2.858,2.858,0,0,1,.662-2.069,4.471,4.471,0,0,1,3.493-1.179,4.482,4.482,0,0,1,3.485,1.17,2.905,2.905,0,0,1,.67,2.078l0,2.7.157.141a.776.776,0,0,1,.264.58V13.1a.792.792,0,0,1-.56.747l-.236.073-.076.235a8.777,8.777,0,0,1-1.184,2.387c-.124.176-.245.331-.349.45l-.118.134v1.755a2,2,0,0,0,1.109,1.794l4.017,2.008.076.039C20.247,22.763,20.2,22.8,20.144,22.835Z"
          fill="#0092dd"/>
</svg>
