<svg id="ViewPasswordActive" xmlns="http://www.w3.org/2000/svg" width="32" height="32" viewBox="0 0 32 32">
    <path id="Path_2529" data-name="Path 2529" d="M0,0H32V32H0Z" fill="none"/>
    <g id="view" transform="translate(5 9)">
        <g id="Group_8797" data-name="Group 8797">
            <g id="Group_8796" data-name="Group 8796" transform="translate(0 0)">
                <path id="Path_2527" data-name="Path 2527"
                      d="M21.86,99.418c-.2-.269-4.879-6.583-10.86-6.583S.336,99.149.14,99.418a.726.726,0,0,0,0,.856c.2.269,4.879,6.583,10.86,6.583s10.664-6.314,10.86-6.583A.725.725,0,0,0,21.86,99.418ZM11,105.406c-4.406,0-8.221-4.191-9.351-5.561,1.128-1.371,4.936-5.56,9.351-5.56s8.221,4.19,9.351,5.561C19.223,101.218,15.415,105.406,11,105.406Z"
                      transform="translate(0 -92.835)" fill="#0092dd"/>
            </g>
        </g>
        <g id="Group_8799" data-name="Group 8799" transform="translate(6.648 2.659)">
            <g id="Group_8798" data-name="Group 8798" transform="translate(0 0)">
                <path id="Path_2528" data-name="Path 2528"
                      d="M159.074,154.725a4.352,4.352,0,1,0,4.352,4.352A4.357,4.357,0,0,0,159.074,154.725Zm0,7.253a2.9,2.9,0,1,1,2.9-2.9A2.9,2.9,0,0,1,159.074,161.978Z"
                      transform="translate(-154.722 -154.725)" fill="#0092dd"/>
            </g>
        </g>
    </g>
</svg>
