<svg id="Component_3_2" data-name="Component 3 – 2" xmlns="http://www.w3.org/2000/svg" width="24" height="24" viewBox="0 0 24 24">
  <rect id="Rectangle_9882" data-name="Rectangle 9882" width="24" height="24" fill="none"/>
  <path id="heart" d="M8,48.432a.468.468,0,0,1-.234-.063A27.992,27.992,0,0,1,3.919,45.6a15.871,15.871,0,0,1-2.669-2.86A6.032,6.032,0,0,1,0,39.309a4.954,4.954,0,0,1,1.264-3.318,4.142,4.142,0,0,1,3.084-1.4A4.279,4.279,0,0,1,8,36.761a4.279,4.279,0,0,1,3.653-2.167,4.166,4.166,0,0,1,2.964,1.261A4.883,4.883,0,0,1,16,39.315a6.149,6.149,0,0,1-1.273,3.426A16.076,16.076,0,0,1,12.063,45.6a28.087,28.087,0,0,1-3.827,2.768A.469.469,0,0,1,8,48.432Z" transform="translate(4 -29.594)" fill="#fff"/>
</svg>
