<svg id="world-location" xmlns="http://www.w3.org/2000/svg" width="16" height="16.427" viewBox="0 0 16 16.427">
    <g id="Group_8912" data-name="Group 8912">
        <path id="Path_2614" data-name="Path 2614"
              d="M4.989,8.3S7.927,5.379,7.927,2.938a2.937,2.937,0,1,0-5.875,0C2.052,5.517,4.989,8.3,4.989,8.3ZM3.459,2.938a1.531,1.531,0,1,1,1.531,1.53A1.531,1.531,0,0,1,3.459,2.938Z"
              transform="translate(-1.199)" fill="#4f4f4f"/>
        <path id="Path_2615" data-name="Path 2615"
              d="M21.7,5.854l-.239.076-1.276.114-.36.575-.26-.083L18.553,5.62l-.148-.476-.2-.508-.639-.573-.752-.147-.018.345.737.719.361.425-.406.212-.331-.1-.494-.206.017-.4-.65-.267-.216.938-.654.149.065.523.851.164.148-.836.7.1.327.191h.526l.359.719.953.966-.07.376-.768-.1-1.327.67L15.976,9.66l-.124.507h-.344l-.639-.294-.621.294.154.655.27-.313.475-.014-.033.588.393.114.393.442.641-.18.733.115.85.229.426.049.719.818,1.39.818-.9,1.718-.949.441-.36.982-1.374.917-.147.53A8,8,0,0,0,21.7,5.854Z"
              transform="translate(-7.056 -1.881)" fill="#4f4f4f"/>
        <path id="Path_2616" data-name="Path 2616"
              d="M9.331,17.205l-.582-1.08.534-1.115-.534-.162-.6-.6-1.331-.3-.442-.925v.549H6.181l-.845-1.145c-.412.493-.725.808-.764.847l-.362.361-.371-.352A12.726,12.726,0,0,1,1.2,9.577,7.986,7.986,0,0,0,8.411,21.026a8.211,8.211,0,0,0,1-.07l-.084-.969S9.7,18.547,9.7,18.5,9.331,17.205,9.331,17.205Z"
              transform="translate(-0.41 -4.599)" fill="#4f4f4f"/>
        <path id="Path_2617" data-name="Path 2617"
              d="M13.638,2.35l.589.1,1.429-.134.393-.433.555-.371.786.119.286-.043A7.875,7.875,0,0,0,12.612.994a3.455,3.455,0,0,1,.843,1.644Zm.97-.741.818-.45.524.3-.76.579-.725.073L14.139,1.9Z"
              transform="translate(-6.27 -0.391)" fill="#4f4f4f"/>
    </g>
</svg>
